<svg version="1.2" xmlns="http://www.w3.org/2000/svg" viewBox="0 0 1000 1000" width="1000" height="1000">
	<title>5792735-ai</title>
	<style>
		.s0 { fill: #ebebeb } 
		.s1 { fill: #ffc727 } 
		.s2 { fill: #263238 } 
		.s3 { fill: #37474f } 
		.s4 { fill: #ffffff } 
		.s5 { fill: #c7c7c7 } 
		.s6 { fill: #dbdbdb } 
		.s7 { fill: #a6a6a6 } 
		.s8 { opacity: .1;fill: #000000 } 
		.s9 { fill: #ffffff;stroke: #ebebeb;stroke-width: 2 } 
		.s10 { fill: none;stroke: #37474f;stroke-width: 2 } 
		.s11 { fill: none;stroke: #ebebeb;stroke-width: 2 } 
		.s12 { fill: #455a64 } 
		.s13 { fill: #eb9481 } 
		.s14 { fill: #ff9abb } 
	</style>
	<g id="Background Complete">
		<g id="&lt;Group&gt;">
			<g id="&lt;Group&gt;">
				<path id="&lt;Compound Path&gt;" fill-rule="evenodd" class="s0" d="m821.8 551l-0.3-11.1c-0.1-3.7-0.2-7.5-0.2-11.3v-0.5h0.5c8.8-0.1 17.7-0.3 26.5-0.4l26.5-0.1h1v1l-0.1 22.4v0.9h-0.9c-4.5 0-9 0-13.4-0.1l-13.3-0.2zm0 0l26.7-0.6 13.1-0.2c4.1-0.1 8.2-0.1 12.2-0.1l-0.1-20.5-25.5-0.2c-8.6 0-17.3-0.2-25.9-0.3 0 3.5-0.2 7-0.3 10.5zm52.1-0.8v0.8l0.9-0.8q-0.4 0-0.9 0zm-0.1-20.5h1l-1-1zm-51.4-0.5q0-0.3 0-0.5l-0.6 0.5q0.3 0 0.6 0z"/>
			</g>
			<g id="&lt;Group&gt;">
				<path id="&lt;Compound Path&gt;" fill-rule="evenodd" class="s0" d="m851.4 579.2l-0.3-11.1c-0.1-3.7-0.3-7.5-0.3-11.3v-0.5h0.6c8.8-0.1 17.6-0.3 26.4-0.3l26.5-0.2h1v1l-0.1 22.4v0.9h-0.9c-4.4 0-8.9 0-13.4-0.1l-13.3-0.2zm0 0l26.7-0.6 13.2-0.2c4.1-0.1 8.1-0.1 12.2-0.1l-0.1-20.5-25.5-0.1c-8.7 0-17.3-0.3-26-0.4 0 3.5-0.1 7-0.2 10.6zm52.1-0.9v0.9l0.9-0.9q-0.5 0-0.9 0zm-0.1-20.5h1l-1-1zm-51.5-0.5q0-0.2 0-0.5l-0.5 0.5q0.3 0 0.5 0z"/>
			</g>
			<path id="&lt;Path&gt;" class="s0" d="m792.2 579.2h52.9v-22.4h-52.9z"/>
			<g id="&lt;Group&gt;">
				<path id="&lt;Compound Path&gt;" fill-rule="evenodd" class="s0" d="m95.7 733.7l-0.3-11.1c-0.1-3.7-0.2-7.5-0.3-11.3v-0.5h0.6c8.8-0.1 17.6-0.3 26.5-0.4l26.4-0.1h1v1l-0.1 22.4v0.9h-0.9c-4.4 0-8.9 0-13.3-0.1l-13.4-0.2zm0 0l26.7-0.6 13.2-0.2c4.1-0.1 8.1-0.1 12.2-0.1l-0.1-20.5-25.5-0.2c-8.6 0-17.3-0.2-25.9-0.3-0.1 3.5-0.2 7-0.3 10.5zm52.1-0.8v0.8l0.9-0.8q-0.5 0-0.9 0zm-0.1-20.5h1l-1-1zm-51.4-0.5q0-0.3 0-0.5l-0.6 0.5q0.3 0 0.6 0z"/>
			</g>
			<path id="&lt;Path&gt;" class="s0" d="m125.2 761.9h53v-22.4h-53z"/>
			<g id="&lt;Group&gt;">
				<path id="&lt;Compound Path&gt;" fill-rule="evenodd" class="s0" d="m232.9 315.7l-0.3-11c-0.1-3.8-0.2-7.6-0.2-11.4v-0.5h0.5c8.8-0.1 17.7-0.3 26.5-0.3l26.5-0.2h1v1l-0.1 22.4-0.1 0.9h-0.8c-4.5 0-9 0-13.4-0.1l-13.3-0.2zm0 0l26.7-0.6 13.1-0.2c4.1-0.1 8.2-0.1 12.2-0.1l-0.1-20.5-25.5-0.1c-8.6 0-17.3-0.2-25.9-0.3-0.1 3.4-0.2 6.9-0.3 10.5zm52.1-0.9v0.9l0.9-0.9q-0.5 0-0.9 0zm-0.1-20.5h1l-1-1zm-51.4-0.4q0-0.3 0-0.6l-0.6 0.5q0.3 0 0.6 0.1z"/>
			</g>
			<path id="&lt;Path&gt;" class="s0" d="m125 122.3h52.9v-22.4h-52.9z"/>
			<g id="&lt;Group&gt;">
				<path id="&lt;Compound Path&gt;" fill-rule="evenodd" class="s0" d="m95.4 150.5l-0.3-11.1c0-3.7-0.2-7.5-0.2-11.3v-0.5h0.5c8.9-0.1 17.7-0.3 26.5-0.4l26.5-0.1h1v1l-0.1 22.4v0.9h-0.9c-4.5 0-8.9 0-13.4-0.1l-13.3-0.2zm0 0l26.7-0.6 13.1-0.2c4.1-0.1 8.2-0.1 12.2-0.1l-0.1-20.5-25.4-0.1c-8.7-0.1-17.3-0.3-26-0.4 0 3.5-0.2 7-0.2 10.6zm52-0.9v0.9l0.9-0.9q-0.4 0-0.9 0zm-0.1-20.5h1l-1-1zm-51.4-0.5q0-0.2 0-0.5l-0.5 0.5q0.2 0 0.5 0z"/>
			</g>
			<g id="&lt;Group&gt;">
				<path id="&lt;Compound Path&gt;" fill-rule="evenodd" class="s0" d="m821.8 122.3l-0.3-11.1c-0.1-3.7-0.2-7.5-0.2-11.3v-0.5h0.5c8.8-0.1 17.7-0.4 26.5-0.4l26.5-0.1h1v1l-0.1 22.4v0.9h-0.9c-4.5-0.1-9 0-13.4-0.1l-13.3-0.3zm0 0l26.7-0.5 13.1-0.2c4.1-0.1 8.2-0.1 12.2-0.1l-0.1-20.5-25.5-0.2c-8.6 0-17.3-0.2-25.9-0.3 0 3.5-0.2 7-0.3 10.5zm52.1-0.9v0.9l0.9-0.9q-0.4 0-0.9 0zm-0.1-20.5l1 0.1-1-1zm-51.4-0.5q0-0.3 0-0.5l-0.6 0.5q0.3 0 0.6 0z"/>
			</g>
			<path id="&lt;Path&gt;" class="s0" d="m738.1 402.1h53v-22.3h-53z"/>
		</g>
		<g id="&lt;Group&gt;">
			<path id="&lt;Compound Path&gt;" fill-rule="evenodd" class="s0" d="m167.6 243.1l-14-22.5 6.9-4.3c2-1.2 3.1-3.5 2.9-5.9q-0.2-2-0.1-4c0-2.4-1.2-4.6-3.3-5.7l-7.1-3.8 12.5-23.4 7.1 3.9c2.1 1.1 4.6 0.9 6.6-0.5q1.6-1.1 3.4-2c2.1-1.2 3.4-3.4 3.3-5.8l-0.3-8.1 26.5-0.8 0.2 8.2c0.1 2.3 1.6 4.4 3.7 5.4q0.9 0.4 1.8 0.9 0.8 0.5 1.7 1c2 1.2 4.5 1.3 6.5 0l7-4.3 13.9 22.5-6.9 4.3c-2 1.3-3.1 3.6-2.9 5.9q0.2 2 0.1 4c0 2.4 1.2 4.6 3.3 5.7l7.2 3.8-12.5 23.4-7.2-3.9c-2.1-1.1-4.6-0.9-6.6 0.5q-1.6 1.1-3.3 2c-2.1 1.2-3.4 3.4-3.3 5.7l0.2 8.2-26.5 0.8-0.2-8.1c-0.1-2.4-1.5-4.5-3.7-5.5q-0.9-0.4-1.7-0.9-0.9-0.5-1.7-1c-2.1-1.2-4.6-1.3-6.6 0zm22.4-16.7c10.5 5.7 23.7 1.7 29.3-8.9 5.7-10.5 1.7-23.7-8.8-29.3-10.6-5.7-23.8-1.7-29.4 8.8-5.7 10.6-1.7 23.7 8.9 29.4z"/>
			<path id="&lt;Compound Path&gt;" fill-rule="evenodd" class="s0" d="m865.2 516l-16.1-9.3 2.9-4.9c0.8-1.4 0.7-3.2-0.2-4.6q-0.8-1.2-1.4-2.4c-0.7-1.5-2.2-2.5-3.9-2.5h-5.7v-18.5h5.7c1.7 0 3.2-1 3.9-2.5q0.6-1.2 1.4-2.4c0.9-1.4 1-3.1 0.2-4.6l-2.9-4.9 16.1-9.3 2.8 5c0.9 1.4 2.5 2.2 4.1 2.1q0.7 0 1.4 0 0.7 0 1.4 0c1.6 0.1 3.2-0.7 4-2.1l2.9-5 16.1 9.3-2.9 4.9c-0.8 1.5-0.7 3.3 0.2 4.7q0.7 1.1 1.4 2.4c0.7 1.4 2.2 2.4 3.9 2.4h5.7v18.5h-5.7c-1.7 0-3.2 1-3.9 2.5q-0.7 1.2-1.4 2.4c-0.9 1.4-1 3.1-0.2 4.6l2.9 4.9-16.1 9.3-2.9-4.9c-0.8-1.5-2.4-2.3-4-2.2q-0.7 0-1.4 0-0.7 0-1.4 0c-1.6-0.1-3.2 0.7-4.1 2.2zm8.3-17.8c8.4 0 15.2-6.8 15.2-15.2 0-8.3-6.8-15.2-15.2-15.2-8.4 0-15.2 6.9-15.2 15.2 0 8.4 6.8 15.2 15.2 15.2z"/>
			<path id="&lt;Compound Path&gt;" fill-rule="evenodd" class="s0" d="m93.8 272.5l9.3-16.1 4.9 2.9c1.5 0.8 3.3 0.7 4.7-0.2q1.1-0.7 2.4-1.4c1.4-0.7 2.4-2.2 2.4-3.9v-5.7h18.6v5.7c0 1.7 0.9 3.2 2.4 3.9q1.2 0.7 2.4 1.4c1.4 0.9 3.2 1 4.6 0.2l4.9-2.9 9.3 16.1-4.9 2.8c-1.5 0.9-2.3 2.5-2.2 4.1q0 0.7 0 1.4 0 0.7 0 1.4c-0.1 1.6 0.7 3.2 2.2 4l4.9 2.9-9.3 16.1-4.9-2.9c-1.4-0.8-3.2-0.7-4.6 0.2q-1.2 0.7-2.4 1.4c-1.5 0.7-2.4 2.2-2.4 3.9v5.7h-18.6v-5.7c0-1.7-1-3.2-2.4-3.9q-1.3-0.7-2.4-1.4c-1.4-0.9-3.2-1-4.7-0.2l-4.9 2.9-9.3-16.1 5-2.8c1.4-0.9 2.2-2.5 2.1-4.1q0-0.7 0-1.4 0-0.7 0-1.4c0.1-1.6-0.7-3.2-2.1-4.1zm17.7 8.3c0 8.4 6.8 15.2 15.2 15.2 8.4 0 15.2-6.8 15.2-15.2 0-8.4-6.8-15.2-15.2-15.2-8.4 0-15.2 6.8-15.2 15.2z"/>
		</g>
	</g>
	<g id="Shadow">
		<path id="&lt;Path&gt;" class="s0" d="m409.1 925.2c0 11.4-65 20.7-145.2 20.7-80.2 0-145.2-9.3-145.2-20.7 0-11.5 65-20.8 145.2-20.8 80.2 0 145.2 9.3 145.2 20.8z"/>
	</g>
	<g id="Plant">
		<g id="&lt;Group&gt;">
			<g id="&lt;Group&gt;">
				<g id="&lt;Group&gt;">
					<path id="&lt;Path&gt;" class="s1" d="m792.3 702.5c-14.8-30.5-40.7-46.1-69.9-37.5-29.2 8.7-33.7 49.4-11.9 59.7 21.8 10.2 43.6-19.8 55.1-25.9 11.5-6.2 26.7 3.7 26.7 3.7z"/>
					<path id="&lt;Path&gt;" class="s2" d="m806.7 783.5c-0.1-3.7-0.3-7.4-0.4-11q-0.4-11-0.8-22c-0.5-13.4-1.9-26.6-7.5-38.9-4.9-11.1-13-20.8-23.4-27.1-3.9-2.3-8.1-4.1-12.4-5.3-3.6-4-9.2-6.7-14.4-7.9-6.7-1.6-13.7-1.3-20.5-0.5-0.3 0-0.3 0.4 0 0.4 6.5-0.8 13.1-0.4 19.4 1.3 2.7 0.8 5.3 1.8 7.8 3.1 1.6 0.8 3.1 1.8 4.6 2.9-5.9-1.2-11.9-1.2-17.9 0.1-2.1 0.5-4.2 1.3-6.2 2.1-1.5-0.4-3.3-0.5-4.8-0.4-2.2 0-4.3 0.4-6.4 0.9-4.2 1-8.2 3-12 5.2-0.2 0.1 0 0.5 0.2 0.3 3.7-2 7.7-3.4 11.8-4.4q2.9-0.7 6-0.9c1.1 0 2.2 0 3.3 0.1-8.2 3.8-15.1 10.4-18.8 18.8-0.1 0.2 0.2 0.4 0.3 0.2 4.4-9.9 13.7-16.7 24.1-19.3 0.6-0.2 1.3-0.3 1.9-0.4-0.2 0.9-0.2 2-0.3 2.9q-0.3 2.3-0.7 4.5c-0.7 3-1.4 6-2.4 8.9q-1.5 4.4-3.6 8.6c-1.4 2.9-2.8 5.9-4.9 8.3-0.2 0.3 0.2 0.5 0.3 0.3 1.8-2.8 3.8-5.3 5.4-8.2q2.3-4.1 4-8.5 1.6-4.4 2.6-9.1 0.5-2.4 0.7-4.9c0.1-1 0.4-2.1 0.2-3.1 3.4-0.5 6.9-0.5 10.4-0.2-1.3 7.3-2.7 14.9-6.8 21.2-0.1 0.2 0.3 0.4 0.4 0.1 1.8-3.4 3.6-6.7 5-10.3 1.3-3.5 2.2-7.2 2.5-10.8 6 0.7 11.9 2.8 17.1 5.7 10.1 5.7 17.8 14.6 22.9 25 5.4 11.2 7.6 23.3 8.4 35.8 1 15.5 1.2 31.2 2.7 46.7 0.1 1 1.7 1.3 1.9 0.2 0.6-3.5 0.3-7 0.3-10.4z"/>
					<path id="&lt;Path&gt;" class="s2" d="m772.4 682.1c-0.8-1.2-2.2-2.2-3.3-3.1q-1.8-1.5-3.8-2.9c-2.6-1.7-5.4-3-8.4-3.9-0.2 0-0.3 0.4-0.1 0.4 3.1 0.7 5.8 2.3 8.3 4.1q1.9 1.4 3.6 2.9c1.1 0.9 2.1 2.2 3.4 2.9 0.2 0.1 0.5-0.2 0.3-0.4z"/>
					<path id="&lt;Path&gt;" class="s2" d="m725.2 693.1c-2.4 2.9-4.8 5.8-6.8 9-2 3.2-3.7 6.5-5 10-0.1 0.1 0.1 0.2 0.1 0.1 3.6-6.5 7.2-13.1 12-18.8 0.1-0.2-0.1-0.5-0.3-0.3z"/>
					<path id="&lt;Path&gt;" class="s2" d="m757 690.1q-0.4 2.9-1.6 5.5c-0.8 1.7-1.8 3.3-2.8 4.9-0.1 0.1 0 0.2 0.1 0.1 2.7-2.8 4.1-6.6 4.7-10.4 0.1-0.2-0.3-0.3-0.4-0.1z"/>
				</g>
				<g id="&lt;Group&gt;">
					<path id="&lt;Path&gt;" class="s1" d="m804.6 703.2c0 0 21-26.3 61.4-17 38.5 8.9 56.2 79.4 17.4 87.8-38.9 8.5-32.1-56.8-46.2-67.9-10.4-8.1-25.3-6.3-32.6-2.9z"/>
					<path id="&lt;Path&gt;" class="s2" d="m897.3 724.7c-2.7-2.3-5.4-4.5-8.4-6.4-2.7-1.8-5.7-3.4-8.9-4.4-1.6-2.4-3.3-4.7-5.2-6.8-3.7-3.9-7.8-7.1-12.3-9.7q0.6-0.1 1.2-0.1c2.2-0.1 4.3-0.1 6.5 0.1 4.3 0.3 8.5 1.3 12.5 3.1 0.2 0.1 0.3-0.3 0.1-0.4-4-1.7-8.2-3-12.4-3.7-2.1-0.4-4.3-0.6-6.4-0.6q-1.7 0-3.4 0.2-0.3 0-0.6 0.1c-3.7-1.9-7.6-3.3-11.7-4.3q0.6-0.2 1.2-0.3c1.9-0.5 3.9-0.8 5.9-1 4.1-0.5 8.1-0.4 12.2 0.2 0.2 0 0.3-0.4 0-0.4-4-0.5-8.1-0.7-12.2-0.5-3.3 0.1-6.9 0.5-10.2 1.3q-3.6-0.7-7.4-0.8c-14.1-0.6-29.5 4.6-38.1 16.2-8.7 11.7-10.4 27.1-12 41.1-2.1 19.5-3.1 39.3-1.5 58.8 0.1 1.2 1.7 1 1.7-0.1 0.6-16.6 1.2-33.3 2.8-49.8 0.7-7.7 1.5-15.4 2.8-23 1.1-6.5 2.6-13 5.6-18.9 3-6.2 7.7-11.2 13.6-14.7 5.9-3.5 12.6-5.4 19.4-6 6.1-0.5 12.2 0.1 18.1 1.7-0.3 1.2-0.2 2.4-0.1 3.6q0.2 2.3 0.9 4.4 0.7 2.1 1.7 4c0.7 1.3 1.7 2.6 2.5 3.9 0.1 0.2 0.5 0 0.3-0.2-1.7-2.2-2.6-5.3-3.1-8q-0.4-2-0.5-4.1c0-1 0-2.1 0-3.1 6.4 1.9 12.4 5.1 17.7 9.3q1.4 1.2 2.8 2.5c-1.4 1.1-2.5 2.8-3.4 4.2-1.4 2-2.6 4.1-3.6 6.4-2 4.4-3 9.3-3.8 14.1 0 0.2 0.4 0.3 0.4 0 0.7-4.7 2.4-9.1 4.6-13.3 1.1-2 2.3-4 3.6-5.9q1-1.5 2.1-2.9c0.4-0.5 0.9-1 1.2-1.6 4.8 4.7 8.7 10.2 11.5 16.2q0 0-0.1 0c-2 1.9-3.4 4.5-4.7 6.9-1.5 2.5-2.7 5.3-3.8 8.1-2.1 5.3-3.4 10.9-4.8 16.4-0.1 0.3 0.3 0.4 0.4 0.1 1.1-5.7 3.2-11 5.7-16.2q1.8-3.8 3.8-7.5c1.3-2.3 2.8-4.6 3.8-7.1 2.7 5.9 4.3 12.3 4.7 18.7 0 0.3 0.4 0.3 0.3 0-0.8-10.1-3.8-20.1-9-28.8 2.4 1.1 4.9 2.1 7.3 3.4 3 1.6 5.9 3.6 8.4 5.9 0.2 0.2 0.4-0.1 0.3-0.3z"/>
					<path id="&lt;Path&gt;" class="s2" d="m867.6 726.2c-1.2 4-2.8 7.9-3.9 11.9-1 3.9-1.7 7.9-1.7 11.9 0 0.1 0.1 0.1 0.2 0 1.1-8 2.9-16.1 5.7-23.7 0.1-0.2-0.2-0.4-0.3-0.1z"/>
					<path id="&lt;Path&gt;" class="s2" d="m893.2 716.3c-1.6-1.5-3.4-2.8-5.3-3.8-2-1-4.1-1.6-6.2-2.2-0.3-0.1-0.4 0.3-0.1 0.4 2.1 0.4 4.1 1.4 6 2.4 1.8 1 3.7 2.1 5.5 3.4 0.1 0.1 0.2-0.1 0.1-0.2z"/>
				</g>
				<g id="&lt;Group&gt;">
					<path id="&lt;Path&gt;" class="s1" d="m824.5 668c0 0 3.9-47.3 39.1-62.6 29.3-12.8 46.2 20.2 25.4 40.4-16.8 16.3-43.7 8.9-64.5 22.2z"/>
					<path id="&lt;Path&gt;" class="s2" d="m882.5 614.5c-5.3 2.3-10.6 4.6-15.7 7.4-4.2 2.5-8.2 5.2-12.1 8.1 0.6-1.2 1.1-2.4 1.7-3.6q1.3-2.8 3-5.4c2.2-3.5 4.7-6.9 7.7-9.8 0.2-0.1-0.1-0.4-0.3-0.2-2.9 2.9-5.7 6-8.1 9.5q-1.8 2.5-3.4 5.3c-0.9 1.7-1.9 3.6-2.3 5.5q-0.2 0.1-0.4 0.2c-6.2 4.9-11.8 10.5-16.8 16.5q0.1-0.7 0.3-1.4 1-3.4 2.1-6.9c1.6-4.7 3.6-9.5 6.4-13.8 0.1-0.2-0.2-0.4-0.4-0.1-2.6 4.3-5.3 8.7-7.3 13.4-1 2.3-1.8 4.6-2.5 7-0.3 1.4-0.9 3.1-1.1 4.8-1.5 1.9-3 3.9-4.5 5.9-15.1 21.5-22.6 47.5-24.5 73.5q-0.8 11.7-0.4 23.3c0.3 7.8 0.6 15.8 2.1 23.4 0.1 0.5 0.9 0.4 0.9-0.1-0.2-6.8-0.9-13.6-1.1-20.5-0.1-6.8 0.1-13.7 0.7-20.5 1.1-13.6 3.7-27.2 7.7-40.3 4.1-13.4 10.1-26.2 17.9-37.9 1.4-0.3 2.9-0.7 4.4-1q2.6-0.7 5.2-1.4c3.4-1 6.7-2 9.8-3.6 0.3-0.1 0.1-0.5-0.2-0.3-3 1.7-6.4 2.7-9.9 3.4-2.8 0.5-5.6 0.9-8.4 1.5q3.8-5.6 8.2-10.7c6.7 0.6 13.5 0 20-1.5 3.5-0.9 6.9-1.9 10.3-3.2 3.5-1.4 6.8-3.1 10.3-4.6 0.3-0.1 0.1-0.5-0.2-0.3-5.9 3.6-13.4 5.5-20.2 6.6-6.3 1.1-12.7 1.5-19 1.6 2.5-2.9 5.1-5.7 7.8-8.3 9.3-8.8 20.2-16.9 32.4-21.1 0.2-0.1 0.1-0.5-0.1-0.4z"/>
					<path id="&lt;Path&gt;" class="s2" d="m853.9 614.7c-1.6 2-3.1 4.1-4.4 6.3-1.3 2.3-2.3 4.7-3.1 7.3 0 0.1 0.1 0.2 0.2 0.1 1.2-2.3 2.1-4.8 3.3-7.1q1.8-3.4 4.2-6.4c0.2-0.2-0.1-0.4-0.2-0.2z"/>
					<path id="&lt;Path&gt;" class="s2" d="m886.6 630.4c-2.3 1.4-4.7 2.2-7.2 3-2.5 0.8-4.9 1.5-7.4 2-0.1 0-0.1 0.2 0 0.2 2.6-0.3 5.2-0.8 7.7-1.6 2.4-0.9 4.8-2.1 7.1-3.2 0.2-0.2 0-0.5-0.2-0.4z"/>
				</g>
				<g id="&lt;Group&gt;">
					<path id="&lt;Path&gt;" class="s1" d="m797.2 659.5c-0.3 2.1-5.4-17.2-35.1-34.2-27-15.5-59.3-55.9-32.8-81.3 21.4-20.6 77.7 24.2 67.9 115.5z"/>
					<path id="&lt;Path&gt;" class="s2" d="m817.6 769.7c-0.4-20-2-39.9-4.7-59.8-2.5-18.2-6.4-36.2-12.6-53.5-2.2-6.3-4.7-12.4-7.4-18.5 0.2-2.3-0.1-4.8-0.2-7.1-0.1-3-0.4-6-0.7-9q-0.4-4.6-0.9-9.1c-0.4-3-1-6-1.1-9 0-0.3-0.5-0.2-0.4 0 0.7 3.1 0.8 6.5 1.1 9.6q0.3 4.4 0.4 8.8c0.1 2.9 0.1 5.8 0.1 8.8 0 1 0 2.1-0.1 3.3-2.8-5.9-5.8-11.8-9-17.4 2-12.4-0.6-25.3-3.1-37.3-0.1-0.3-0.5-0.1-0.4 0.1 1.3 6.3 1.8 12.7 2 19.1 0.1 5.1-0.2 10.1-0.2 15.2q-1-1.8-2.1-3.6-5.8-9.5-12.4-18.5c0.5-2.9 0.1-5.9-0.3-8.8-0.5-3.2-1.2-6.4-2.1-9.6q-1.5-4.7-3.3-9.3c-1.3-3.1-3-6.1-4.3-9.2-0.1-0.3-0.5-0.1-0.3 0.2 1.7 2.8 2.7 6.2 3.7 9.3 1 3 1.8 6.1 2.4 9.3q1 4.6 1.6 9.4c0.3 2.1 0.5 4.3 0.8 6.4-6.4-8.6-13.3-16.7-20.8-24.3-0.2-0.2-0.4 0.1-0.3 0.3 11.3 12.8 21.6 26.4 30.3 41.2q0.5 0.8 0.9 1.6c-1.6-1-3.5-1.8-5-2.7q-4.3-2.4-8.7-4.8-4.2-2.2-8.4-4.6c-1.5-0.8-2.9-1.6-4.4-2.4-1.6-0.8-3.5-1.6-5-2.7-0.2-0.2-0.5 0.1-0.2 0.3 2.8 1.5 5.4 3.9 8.1 5.6q4.2 2.7 8.5 5.1c5.3 3 11.1 5.1 16.3 8.2 3.6 6.3 6.9 12.8 10 19.4q-4.8-3.1-9.7-5.8-3.1-1.8-6.3-3.5c-2.1-1.1-4.2-2.1-6-3.6-0.2-0.2-0.5 0.1-0.3 0.3 3.4 3.3 7.4 5.6 11.4 7.9 3.9 2.3 7.7 4.4 11.7 6.4q4.8 10.4 8.6 21.3c12.5 35.4 17.1 73.1 19.3 110.4 0.7 11.2 1 22.3 1.2 33.5 0.1 11.1-0.5 22.3-0.5 33.4 0 0.3 0.6 0.4 0.6 0.1 1.4-9.9 1.6-20 2-29.9 0.5-10.1 0.5-20.3 0.2-30.5z"/>
					<path id="&lt;Path&gt;" class="s2" d="m763.6 609.2c-5.5-2.2-10.7-5.2-15.8-8.1-5.2-3-10.2-6.1-15-9.6-0.1 0-0.2 0.1-0.1 0.2 4.5 3.6 9.3 7 14.4 10 5.2 3.1 10.7 5.4 16.3 7.9 0.2 0.1 0.4-0.3 0.2-0.4z"/>
					<path id="&lt;Path&gt;" class="s2" d="m772.2 569.1c-0.4-1.7-1-3.4-1.6-5.1 0.1 0 0.1-0.1 0.1-0.2q-0.6-1.4-1.1-2.8-0.1-0.2-0.2-0.4-0.1-0.2-0.2-0.5c0-0.1-0.1-0.1-0.1 0q0.1 0.5 0.3 1c0 0.2 0.1 0.4 0.1 0.5 2.1 6.6 3.4 13.4 4.5 20.2 0 0.3 0.3 0.3 0.3 0-0.3-4.3-1-8.5-2.1-12.7z"/>
				</g>
			</g>
			<g id="&lt;Group&gt;">
				<g id="&lt;Group&gt;">
					<path id="&lt;Path&gt;" class="s3" d="m849.1 776.9l-2.1 25.2-6.5 76.7h-69.7l-6.5-76.7-2.1-25.2z"/>
					<path id="&lt;Path&gt;" class="s2" d="m849.1 776.9l-2.1 25.2h-82.7l-2.1-25.2z"/>
				</g>
				<path id="&lt;Path&gt;" class="s3" d="m855.9 791h-100.5v-24.2h100.5z"/>
			</g>
		</g>
	</g>
	<g id="Floor">
		<g id="&lt;Group&gt;">
			<path id="&lt;Path&gt;" class="s2" d="m94.9 878.8l101.3-0.5 101.2-0.1 202.6-0.4 202.6 0.4 101.2 0.1 101.3 0.5-101.3 0.5-101.2 0.2-202.6 0.3-202.6-0.3-101.2-0.2z"/>
		</g>
	</g>
	<g id="Device">
		<g id="&lt;Group&gt;">
			<g id="&lt;Group&gt;">
				<path id="&lt;Compound Path&gt;" fill-rule="evenodd" class="s2" d="m703.3 148v696c0 19.2-15.4 34.8-34.3 34.8h-338.1c-18.9 0-34.2-15.6-34.2-34.8v-696c0-19.3 15.3-34.9 34.2-34.9h338.1c18.9 0 34.3 15.6 34.3 34.9zm-21.4 26.4c0-34.2-13.7-39.2-30.7-39.2h-60.6c-3.5 0-6.4 4-6.4 9v2.1c0 11.6-6.3 11.7-14.1 11.7h-140.2c-7.8 0-14.1-0.1-14.1-11.7v-2.1c0-5-2.9-9-6.4-9h-60.6c-17 0-30.7 1.8-30.7 39.2v648.1c0 18.3 13.7 33.1 30.7 33.1h302.4c17 0 30.7-14.8 30.7-33.1z"/>
				<path id="&lt;Path&gt;" class="s4" d="m519.1 143.5h-38.2c-1.3 0-2.4-1.1-2.4-2.4 0-1.3 1.1-2.4 2.4-2.4h38.2c1.3 0 2.4 1.1 2.4 2.4 0 1.3-1.1 2.4-2.4 2.4z"/>
				<g id="&lt;Group&gt;">
					<path id="&lt;Path&gt;" class="s4" d="m681.9 174.4v648.1c0 18.3-13.7 33.1-30.6 33.1h-302.5c-17 0-30.7-14.8-30.7-33.1v-648.1c0-37.4 13.7-39.2 30.7-39.2h60.6c3.5 0 6.4 4 6.4 9v2.1c0 11.6 6.3 11.7 14.1 11.7h140.2c7.8 0 14.1-0.1 14.1-11.7v-2.1c0-5 2.9-9 6.5-9h60.6c16.9 0 30.6 5 30.6 39.2z"/>
					<g id="&lt;Group&gt;">
						<path id="&lt;Path&gt;" class="s5" d="m354.9 199.1l-10.7-10.1 10.7-10 1.7 1.7-8.9 8.3 8.9 8.3z"/>
						<g id="&lt;Group&gt;">
							<path id="&lt;Path&gt;" class="s5" d="m653.7 182.8c0 1.1-0.9 2.1-2.1 2.1-1.2 0-2.1-1-2.1-2.1 0-1.2 0.9-2.2 2.1-2.2 1.2 0 2.1 1 2.1 2.2z"/>
							<path id="&lt;Path&gt;" class="s5" d="m653.7 190.3c0 1.2-0.9 2.1-2.1 2.1-1.2 0-2.1-0.9-2.1-2.1 0-1.2 0.9-2.1 2.1-2.1 1.2 0 2.1 0.9 2.1 2.1z"/>
							<path id="&lt;Path&gt;" class="s5" d="m653.7 197.8c0 1.2-0.9 2.1-2.1 2.1-1.2 0-2.1-0.9-2.1-2.1 0-1.2 0.9-2.1 2.1-2.1 1.2 0 2.1 0.9 2.1 2.1z"/>
						</g>
					</g>
					<g id="&lt;Group&gt;">
						<g id="u5Zjqx 1 ">
							<g id="&lt;Group&gt;">
								<path id="&lt;Path&gt;" class="s5" d="m398.9 149.8q-0.3 0.3-0.6 0.6-0.1 0.1-0.3 0.3c-1.6-1.5-3.5-2.4-5.7-2.4-2.1 0-4 0.9-5.6 2.4q-0.2-0.2-0.3-0.3-0.3-0.3-0.6-0.6 0 0 0 0 0 0 0 0 0-0.1 0-0.1 0.4-0.3 0.8-0.6 0.8-0.7 1.7-1.1 1.1-0.6 2.3-0.8 0.5-0.1 1.1-0.1c0.1-0.1 1-0.1 1-0.1q0.4 0.1 0.7 0.1 1.1 0.1 2.1 0.5 0.8 0.3 1.4 0.7 0.8 0.4 1.4 0.9 0.3 0.3 0.6 0.6 0 0 0 0z"/>
								<path id="&lt;Path&gt;" class="s5" d="m388.6 152.5q-0.5-0.4-1-0.9c1.1-1 2.3-1.7 3.8-1.9 2.2-0.3 4.1 0.4 5.7 1.9q-0.5 0.5-1 0.9c-1-1-2.3-1.5-3.8-1.5-1.4 0-2.7 0.5-3.7 1.5z"/>
								<path id="&lt;Path&gt;" class="s5" d="m395.2 153.5q-0.5 0.4-0.9 0.9-0.8-0.8-2-0.8-1.1 0-1.9 0.8-0.5-0.5-0.9-0.9c1.4-1.6 4.1-1.7 5.7 0z"/>
							</g>
							<path id="&lt;Path&gt;" class="s5" d="m393.2 155.2c0 0.5-0.4 0.8-0.9 0.8-0.4 0-0.8-0.3-0.8-0.8 0-0.5 0.4-0.8 0.8-0.8 0.5 0 0.9 0.3 0.9 0.8z"/>
						</g>
						<g id="&lt;Group&gt;">
							<path id="&lt;Path&gt;" class="s5" d="m341.8 151.5c0-1.3 1.1-2.4 2.4-2.4 1.4 0 2.4 1.1 2.4 2.4 0 1.4-1 2.5-2.4 2.5-1.3 0-2.4-1.1-2.4-2.5z"/>
							<path id="&lt;Path&gt;" class="s5" d="m349.4 151.5c0-1.3 1.1-2.4 2.4-2.4 1.4 0 2.4 1.1 2.4 2.4 0 1.4-1 2.5-2.4 2.5-1.3 0-2.4-1.1-2.4-2.5z"/>
							<path id="&lt;Path&gt;" class="s5" d="m357 151.5c0-1.3 1.1-2.4 2.4-2.4 1.3 0 2.4 1.1 2.4 2.4 0 1.4-1.1 2.5-2.4 2.5-1.3 0-2.4-1.1-2.4-2.5z"/>
							<path id="&lt;Path&gt;" class="s5" d="m364.6 151.5c0-1.3 1.1-2.4 2.4-2.4 1.3 0 2.4 1.1 2.4 2.4 0 1.4-1.1 2.5-2.4 2.5-1.3 0-2.4-1.1-2.4-2.5z"/>
							<path id="&lt;Path&gt;" class="s5" d="m372.2 151.5c0-1.3 1.1-2.4 2.4-2.4 1.3 0 2.4 1.1 2.4 2.4 0 1.4-1.1 2.5-2.4 2.5-1.3 0-2.4-1.1-2.4-2.5z"/>
						</g>
						<g id="&lt;Group&gt;">
							<path id="&lt;Compound Path&gt;" fill-rule="evenodd" class="s5" d="m654.6 156.8h-19.6v-9.1h19.6zm-18.6-1h17.6v-7.1h-17.6z"/>
							<path id="&lt;Path&gt;" class="s5" d="m649.3 149.3h-12.7v6h12.7z"/>
							<path id="&lt;Path&gt;" class="s5" d="m656.4 154.7h-1.8v-4.9h1.8z"/>
						</g>
					</g>
					<g id="&lt;Group&gt;">
						<path id="&lt;Path&gt;" class="s0" d="m373.4 816h-2.8v12.7h-5.2v-6.5h-9.1v6.5h-5.2v-12.7h-2.7l12.5-12.9z"/>
						<g id="&lt;Group&gt;">
							<path id="&lt;Path&gt;" class="s0" d="m651.7 807.4h-30.2v-4.3h30.2z"/>
							<path id="&lt;Path&gt;" class="s0" d="m651.7 818h-30.2v-4.3h30.2z"/>
							<path id="&lt;Path&gt;" class="s0" d="m651.7 828.7h-30.2v-4.3h30.2z"/>
						</g>
						<path id="&lt;Path&gt;" class="s0" d="m508.6 814.2l-8.6 9.1-8.6-9.1 1.5-1.4 7.1 7.5 7.1-7.5z"/>
						<path id="&lt;Compound Path&gt;" fill-rule="evenodd" class="s0" d="m500 832.8c-8.6 0-15.6-7-15.6-15.6 0-8.6 7-15.6 15.6-15.6 8.6 0 15.6 7 15.6 15.6 0 8.6-7 15.6-15.6 15.6zm0-29.1c-7.5 0-13.5 6-13.5 13.5 0 7.5 6 13.5 13.5 13.5 7.5 0 13.5-6 13.5-13.5 0-7.5-6-13.5-13.5-13.5z"/>
					</g>
					<g id="&lt;Group&gt;">
						<g id="&lt;Group&gt;">
							<g id="&lt;Group&gt;">
								<path id="&lt;Path&gt;" class="s6" d="m476.7 761.2c0 2.9-2.3 5.2-5.2 5.2-2.8 0-5.2-2.3-5.2-5.2 0-2.9 2.4-5.2 5.2-5.2 2.9 0 5.2 2.3 5.2 5.2z"/>
								<path id="&lt;Path&gt;" class="s1" d="m508.4 761.2c0 4.4-3.5 7.9-7.8 7.9-4.4 0-7.9-3.5-7.9-7.9 0-4.3 3.5-7.9 7.9-7.9 4.3 0 7.8 3.6 7.8 7.9z"/>
								<path id="&lt;Path&gt;" class="s6" d="m534.8 761.2c0 2.9-2.3 5.2-5.2 5.2-2.9 0-5.2-2.3-5.2-5.2 0-2.9 2.3-5.2 5.2-5.2 2.9 0 5.2 2.3 5.2 5.2z"/>
							</g>
						</g>
						<g id="&lt;Group&gt;">
							<g id="&lt;Group&gt;">
								<g id="&lt;Group&gt;">
									<path id="&lt;Path&gt;" class="s1" d="m569.1 661h-140.4v-44.7h140.4z"/>
								</g>
								<g id="&lt;Group&gt;">
									<path id="&lt;Compound Path&gt;" class="s4" d="m467.9 644.9v-12.1c0-0.6 0.5-1.1 1.1-1.1 0.7 0 1.2 0.5 1.2 1.1v11h5.5c0.6 0 1.1 0.5 1.1 1.1 0 0.6-0.5 1.1-1.1 1.1h-6.6q-0.1 0-0.1 0 0 0 0 0c-0.6 0-1.1-0.5-1.1-1.1z"/>
									<path id="&lt;Compound Path&gt;" fill-rule="evenodd" class="s4" d="m489.9 633.5c1.3 1.3 2.1 3.1 2.1 5.2 0 2-0.8 3.8-2.1 5.1-1.2 1.4-3 2.2-4.9 2.2-1.9 0-3.7-0.8-5-2.2-1.3-1.3-2-3.1-2-5.1 0-2.1 0.7-3.9 2-5.2 1.3-1.4 3.1-2.2 5-2.2 1.9 0 3.7 0.8 4.9 2.2zm-0.2 5.2c0-1.4-0.6-2.7-1.4-3.6-0.9-0.9-2-1.5-3.3-1.5-1.3 0-2.4 0.6-3.3 1.5-0.8 0.9-1.4 2.2-1.4 3.6 0 1.4 0.6 2.6 1.4 3.5 0.9 0.9 2 1.5 3.3 1.5 1.3 0 2.4-0.6 3.3-1.5 0.8-0.9 1.4-2.1 1.4-3.5z"/>
									<path id="&lt;Compound Path&gt;" class="s4" d="m495.4 638.7c0-4.1 3.4-7.4 7.6-7.4 1.7 0 3.4 0.6 4.6 1.6 0.6 0.4 0.7 1.1 0.3 1.6-0.4 0.5-1.2 0.6-1.7 0.2-0.9-0.7-2-1.1-3.2-1.1-1.5 0-2.8 0.6-3.7 1.5-1 0.9-1.6 2.2-1.6 3.6 0 1.3 0.6 2.6 1.6 3.5 0.9 0.9 2.2 1.5 3.7 1.5 1 0 2-0.3 2.8-0.8v-2.8h-3c-0.6 0-1.1-0.5-1.1-1.2 0-0.6 0.5-1.1 1.1-1.1h4.1q0 0 0 0 0 0 0 0c0.7 0 1.2 0.5 1.2 1.1v4.6c0 0.1 0 0.2 0 0.3q-0.1 0.1-0.1 0.1-0.1 0.3-0.4 0.5c-1.3 1-2.9 1.6-4.6 1.6-4.2 0-7.6-3.2-7.6-7.3z"/>
									<path id="&lt;Compound Path&gt;" class="s4" d="m512.9 632.8c0-0.6 0.5-1.1 1.1-1.1 0.6 0 1.2 0.5 1.2 1.1v12.1c0 0.6-0.6 1.1-1.2 1.1-0.6 0-1.1-0.5-1.1-1.1z"/>
									<path id="&lt;Compound Path&gt;" class="s4" d="m521.2 644.9c0 0.6-0.5 1.1-1.1 1.1-0.6 0-1.1-0.5-1.1-1.1v-11.9q0 0 0 0c0-0.4 0.2-0.7 0.5-1 0.5-0.3 1.2-0.2 1.5 0.3l6.6 9.1v-8.4c0-0.6 0.5-1.1 1.1-1.1 0.7 0 1.2 0.5 1.2 1.1v11.9c0 0.6-0.5 1.1-1.2 1.1-0.3 0-0.6-0.1-0.8-0.4q-0.1 0-0.1-0.1l-6.6-9.1z"/>
								</g>
							</g>
							<g id="&lt;Group&gt;">
								<g id="&lt;Group&gt;">
									<path id="&lt;Path&gt;" class="s5" d="m533.9 270.8v14.6h-10.3v-14.6c0-13.9-10.6-25.2-23.6-25.2-13 0-23.6 11.3-23.6 25.2v36.6h-10.3v-36.6c0-19.9 15.2-36.2 33.9-36.2 18.7 0 33.9 16.3 33.9 36.2z"/>
									<path id="&lt;Path&gt;" class="s7" d="m466.1 285.4l10.3 0.5v21.5h-10.3z"/>
								</g>
								<path id="&lt;Path&gt;" class="s1" d="m547.2 380.7h-94.4v-85.6h94.4z"/>
								<path id="&lt;Path&gt;" class="s8" d="m547.2 380.7h-47.2v-85.6h47.2z"/>
								<path id="&lt;Path&gt;" class="s2" d="m504 341.1l3.9 18.7h-16.7l3.9-18.7c-2.3-1.5-3.9-4.1-3.9-7.1 0-4.7 3.7-8.4 8.4-8.4 4.6 0 8.3 3.7 8.3 8.4 0 3-1.6 5.6-3.9 7.1z"/>
							</g>
							<g id="&lt;Group&gt;">
								<path id="&lt;Path&gt;" class="s9" d="m621.5 516.8h-243v-41.6h243z"/>
								<g id="&lt;Group&gt;">
									<g id="&lt;Group&gt;">
										<path id="&lt;Path&gt;" class="s10" d="m402.7 486.7v17.7"/>
										<path id="&lt;Path&gt;" class="s10" d="m411.6 495.5h-17.8"/>
										<path id="&lt;Path&gt;" class="s10" d="m409 489.3l-12.6 12.5"/>
										<path id="&lt;Path&gt;" class="s10" d="m409 501.8l-12.6-12.5"/>
									</g>
									<g id="&lt;Group&gt;">
										<path id="&lt;Path&gt;" class="s10" d="m432.9 486.7v17.7"/>
										<path id="&lt;Path&gt;" class="s10" d="m441.8 495.5h-17.8"/>
										<path id="&lt;Path&gt;" class="s10" d="m439.2 489.3l-12.6 12.5"/>
										<path id="&lt;Path&gt;" class="s10" d="m439.2 501.8l-12.6-12.5"/>
									</g>
									<g id="&lt;Group&gt;">
										<path id="&lt;Path&gt;" class="s10" d="m463 486.7v17.7"/>
										<path id="&lt;Path&gt;" class="s10" d="m471.9 495.5h-17.7"/>
										<path id="&lt;Path&gt;" class="s10" d="m469.3 489.3l-12.5 12.5"/>
										<path id="&lt;Path&gt;" class="s10" d="m469.3 501.8l-12.5-12.5"/>
									</g>
									<g id="&lt;Group&gt;">
										<path id="&lt;Path&gt;" class="s10" d="m493.2 486.7v17.7"/>
										<path id="&lt;Path&gt;" class="s10" d="m502.1 495.5h-17.8"/>
										<path id="&lt;Path&gt;" class="s10" d="m499.5 489.3l-12.6 12.5"/>
										<path id="&lt;Path&gt;" class="s10" d="m499.5 501.8l-12.6-12.5"/>
									</g>
									<g id="&lt;Group&gt;">
										<path id="&lt;Path&gt;" class="s10" d="m523.4 486.7v17.7"/>
										<path id="&lt;Path&gt;" class="s10" d="m532.3 495.5h-17.8"/>
										<path id="&lt;Path&gt;" class="s10" d="m529.7 489.3l-12.6 12.5"/>
										<path id="&lt;Path&gt;" class="s10" d="m529.7 501.8l-12.6-12.5"/>
									</g>
									<g id="&lt;Group&gt;">
										<path id="&lt;Path&gt;" class="s10" d="m553.5 486.7v17.7"/>
										<path id="&lt;Path&gt;" class="s10" d="m562.4 495.5h-17.7"/>
										<path id="&lt;Path&gt;" class="s10" d="m559.8 489.3l-12.5 12.5"/>
										<path id="&lt;Path&gt;" class="s10" d="m559.8 501.8l-12.5-12.5"/>
									</g>
									<g id="&lt;Group&gt;">
										<path id="&lt;Path&gt;" class="s11" d="m611 495.9c0 0-4 5.5-10.2 5.5-6.3 0-10.3-5.5-10.3-5.5 0 0 4-5.5 10.3-5.5 6.2 0 10.2 5.5 10.2 5.5z"/>
										<path id="&lt;Path&gt;" class="s0" d="m605.3 495.9c0 2.5-2.1 4.5-4.6 4.5-2.4 0-4.5-2-4.5-4.5 0-2.5 2.1-4.5 4.5-4.5 2.5 0 4.6 2 4.6 4.5z"/>
										<path id="&lt;Path&gt;" class="s11" d="m608.9 487.6l-16 15.9"/>
									</g>
								</g>
							</g>
							<g id="&lt;Group&gt;">
								<path id="&lt;Compound Path&gt;" fill-rule="evenodd" class="s1" d="m434.7 431.9h-3.2v5.6c0 0.8-0.7 1.4-1.5 1.4-0.8 0-1.4-0.6-1.4-1.4v-15.3c0-0.8 0.6-1.4 1.4-1.4h4.7c3 0 5.5 2.4 5.5 5.5 0 3.1-2.5 5.6-5.5 5.6zm-3.2-2.9h3.2c1.5 0 2.6-1.2 2.7-2.7-0.1-1.5-1.2-2.7-2.7-2.7h-3.2z"/>
								<path id="&lt;Compound Path&gt;" fill-rule="evenodd" class="s1" d="m451.2 434.6h-6.3l-1.3 3.4c-0.3 0.6-0.8 0.9-1.4 0.9q-0.2 0-0.5-0.1c-0.7-0.3-1.1-1.1-0.8-1.8l5.7-15.3c0.3-0.6 0.8-0.9 1.4-0.9 0.6 0 1.1 0.3 1.4 0.9l5.7 15.3c0.3 0.7-0.1 1.5-0.9 1.8q-0.2 0.1-0.5 0.1c-0.5 0-1.1-0.3-1.3-0.9zm-1-2.9l-2.1-5.5-2.1 5.5z"/>
								<path id="&lt;Compound Path&gt;" class="s1" d="m457.6 434.4c0.5-0.6 1.4-0.7 1.9-0.2 1.2 0.9 3.2 2 5 2 1.3 0 2.5-0.4 3.2-1 0.8-0.5 1.2-1.2 1.2-1.8 0-0.4-0.1-0.6-0.3-0.8-0.1-0.3-0.4-0.6-0.8-0.8-0.7-0.5-2-1-3.5-1.2h-0.1c-1.2-0.3-2.3-0.6-3.3-1.1-1-0.4-1.9-1.1-2.4-2q-0.6-0.9-0.6-2.1c0-1.6 0.9-2.9 2.1-3.8 1.2-0.9 2.8-1.4 4.4-1.4 2.5 0 4.4 1.3 5.7 2.1 0.6 0.4 0.8 1.3 0.4 1.8-0.4 0.7-1.3 0.9-1.9 0.4-1.3-0.8-2.6-1.6-4.2-1.6-1.1 0-2.2 0.3-2.9 0.9-0.7 0.5-0.9 1-0.9 1.6 0 0.3 0 0.5 0.1 0.7q0.2 0.3 0.7 0.7c0.7 0.5 1.9 0.9 3.3 1.1 1.3 0.3 2.6 0.6 3.6 1.1 1.1 0.5 2 1.2 2.6 2.2 0.4 0.6 0.6 1.4 0.6 2.2 0 1.6-0.9 3.1-2.2 4-1.3 0.9-3 1.5-4.8 1.5-2.8 0-5.2-1.4-6.6-2.6-0.6-0.5-0.7-1.3-0.3-1.9z"/>
								<path id="&lt;Compound Path&gt;" class="s1" d="m474.7 434.4c0.5-0.6 1.3-0.7 1.9-0.2 1.1 0.9 3.1 2 4.9 2 1.3 0 2.5-0.4 3.3-1 0.8-0.5 1.1-1.2 1.1-1.8 0-0.4-0.1-0.6-0.2-0.8-0.2-0.3-0.4-0.6-0.8-0.8-0.8-0.5-2-1-3.6-1.2-1.2-0.3-2.4-0.6-3.4-1.1-0.9-0.4-1.8-1.1-2.4-2q-0.6-0.9-0.6-2.1c0-1.6 0.9-2.9 2.1-3.8 1.2-0.9 2.8-1.4 4.5-1.4 2.5 0 4.3 1.3 5.6 2.1 0.6 0.4 0.8 1.3 0.4 1.8-0.4 0.7-1.2 0.9-1.8 0.4-1.4-0.8-2.6-1.6-4.2-1.6-1.2 0-2.2 0.3-2.9 0.9-0.7 0.5-1 1-1 1.6 0 0.3 0 0.5 0.2 0.7q0.2 0.3 0.7 0.7c0.7 0.5 1.8 0.9 3.2 1.1h0.1c1.3 0.3 2.5 0.6 3.6 1.1 1 0.5 1.9 1.2 2.5 2.2 0.4 0.6 0.7 1.4 0.7 2.2 0 1.6-1 3.1-2.3 4-1.2 0.9-2.9 1.5-4.8 1.5-2.8 0-5.1-1.4-6.6-2.6-0.6-0.5-0.6-1.3-0.2-1.9z"/>
								<path id="&lt;Compound Path&gt;" class="s1" d="m515.8 422.9l-6.3 15.1c0 0.1-0.1 0.2-0.2 0.3q0 0.1-0.1 0.1c0 0.1 0 0.1 0 0.1q-0.1 0.1-0.2 0.1c-0.1 0.1-0.2 0.2-0.3 0.2q0 0 0 0-0.1 0-0.2 0.1-0.1 0-0.1 0-0.1 0-0.2 0-0.2 0-0.3 0-0.1 0-0.1 0-0.1-0.1-0.1-0.1-0.1 0-0.1 0c-0.1 0-0.2-0.1-0.2-0.2q-0.1 0 0 0-0.2 0-0.2-0.1c-0.1 0-0.1 0-0.1-0.1q0 0-0.1-0.1c0 0 0 0 0 0-0.1-0.1-0.1-0.2-0.1-0.3l-3.4-8-3.4 8c-0.1 0.1-0.1 0.2-0.1 0.3q-0.1 0-0.1 0 0 0.1-0.1 0.1c0 0.1 0 0.1 0 0.1q-0.1 0.1-0.2 0.1-0.1 0-0.1 0c0 0.1-0.1 0.2-0.2 0.2q0 0 0 0 0 0 0 0-0.2 0-0.2 0.1-0.1 0-0.1 0-0.1 0-0.2 0-0.2 0-0.3 0 0 0-0.1 0-0.1-0.1-0.2-0.1 0 0 0 0c-0.1 0-0.2-0.1-0.2-0.2q-0.1 0-0.1 0c0 0-0.1-0.1-0.1-0.1-0.1 0-0.1 0-0.1-0.1q-0.1 0-0.1-0.1c-0.1-0.1-0.1-0.2-0.2-0.3l-6.3-15.1c-0.3-0.7 0-1.6 0.7-1.8 0.7-0.3 1.6 0 1.9 0.7l5.1 12 3.3-7.9c0.2-0.6 0.8-0.9 1.4-0.9 0.5 0 1.1 0.3 1.3 0.9l3.4 7.9 5-12c0.3-0.7 1.2-1 1.9-0.7 0.7 0.2 1 1.1 0.7 1.8z"/>
								<path id="&lt;Compound Path&gt;" fill-rule="evenodd" class="s1" d="m533.9 423c1.6 1.7 2.6 4 2.6 6.6 0 2.5-1 4.8-2.6 6.5-1.5 1.7-3.8 2.8-6.2 2.8-2.5 0-4.7-1.1-6.3-2.8-1.6-1.7-2.6-4-2.6-6.5 0-2.6 1-4.9 2.6-6.6 1.6-1.7 3.8-2.8 6.3-2.8 2.4 0 4.7 1.1 6.2 2.8zm-0.3 6.6c0-1.8-0.7-3.4-1.8-4.6-1.1-1.1-2.5-1.8-4.1-1.8-1.6 0-3.1 0.7-4.2 1.8-1.1 1.2-1.7 2.8-1.7 4.6 0 1.7 0.6 3.4 1.7 4.5 1.1 1.1 2.6 1.8 4.2 1.8 1.6 0 3-0.7 4.1-1.8 1.1-1.1 1.8-2.8 1.8-4.5z"/>
								<path id="&lt;Compound Path&gt;" fill-rule="evenodd" class="s1" d="m553.7 436.8c0.2 0.7-0.2 1.5-0.9 1.8-0.1 0-0.4 0-0.6 0q0 0 0 0c-0.3 0-0.7 0-1-0.2-0.4-0.2-0.7-0.6-0.9-0.9-0.3-0.8-0.5-1.7-0.5-3.2 0-0.5-0.2-0.8-0.3-1.1-0.2-0.3-0.5-0.5-0.8-0.7-0.6-0.4-1.2-0.6-1.5-0.6h-3v5.6c0 0.8-0.7 1.4-1.5 1.4-0.8 0-1.4-0.6-1.4-1.4v-15.3c0-0.8 0.6-1.4 1.4-1.4q0 0 0.1 0h4.6c3.1 0 5.5 2.4 5.5 5.5 0 1.7-0.8 3.2-2 4.3q0.5 0.4 0.9 0.9c0.5 0.8 0.9 1.8 0.9 2.8-0.1 0.8 0 1.3 0.1 1.6 0.4 0.1 0.7 0.4 0.9 0.9zm-3.7-10.5c0-1.5-1.2-2.7-2.6-2.7h-3.2v5.4h3.2c1.4 0 2.6-1.2 2.6-2.7z"/>
								<path id="&lt;Compound Path&gt;" fill-rule="evenodd" class="s1" d="m557.9 437.5v-15.3c0-0.8 0.6-1.4 1.4-1.4h3.1c5 0 9 4 9 9 0 5-4 9.1-9 9.1h-3.1c-0.8 0-1.4-0.6-1.4-1.4zm2.9-1.5h1.6c3.4 0 6.1-2.7 6.1-6.2 0-3.4-2.7-6.2-6.1-6.2h-1.6z"/>
							</g>
						</g>
					</g>
				</g>
			</g>
		</g>
	</g>
	<g id="Shield">
		<g id="&lt;Group&gt;">
			<g id="&lt;Group&gt;">
				<path id="&lt;Path&gt;" class="s3" d="m868.1 200.6c0 0-15.2 122.1-40.3 149.6-30.1 32.9-51.9 28.1-64.1 45.1q0 0 0 0c-12.2-17-34-12.2-64.1-45.1-25.1-27.5-40.3-149.6-40.3-149.6 66-32.1 104.4-68.1 104.4-68.1q0 0 0 0.1c1.2 1.1 39.4 36.4 104.4 68z"/>
				<path id="&lt;Path&gt;" class="s12" d="m763.7 132.6v262.7q0 0 0 0c-12.2-17-34-12.2-64.1-45.1-25.1-27.5-40.3-149.6-40.3-149.6 66-32.1 104.4-68.1 104.4-68.1q0 0 0 0.1z"/>
				<g id="&lt;Group&gt;">
					<path id="&lt;Path&gt;" class="s12" d="m851.9 210.4c0 0-12.9 103.2-34 126.4-25.5 27.9-44 23.8-54.2 38.1-10.3-14.3-28.7-10.2-54.2-38.1-21.2-23.2-34-126.4-34-126.4 55.8-27.1 88.2-57.5 88.2-57.5 0 0 32.4 30.4 88.2 57.5z"/>
					<path id="&lt;Path&gt;" class="s3" d="m675.5 210.4c0 0 12.9 103.1 34.1 126.4 25.4 27.8 43.8 23.8 54.1 38.1v-221.9c-1 0.9-33.3 30.7-88.2 57.4z"/>
				</g>
			</g>
			<g id="&lt;Group&gt;">
				<path id="&lt;Path&gt;" class="s1" d="m804.6 263.9c0 22.6-18.3 40.9-40.9 40.9-22.6 0-40.9-18.3-40.9-40.9 0-22.6 18.3-40.9 40.9-40.9 22.6 0 40.9 18.3 40.9 40.9z"/>
				<path id="&lt;Path&gt;" class="s4" d="m759 290.5l-18.2-18.9 6.8-6.5 10 10.4 21.7-33.2 7.8 5.1z"/>
			</g>
		</g>
	</g>
	<g id="Character">
		<g id="&lt;Group&gt;">
			<g id="&lt;Group&gt;">
				<path id="&lt;Path&gt;" class="s5" d="m160.7 494.2h140.4v-29.1h-140.4z"/>
				<path id="&lt;Path&gt;" class="s5" d="m263.4 493.9l3.9 37.2 48.5 347.6h13.9l-38.3-347.6-3.1-37.2z"/>
				<path id="&lt;Path&gt;" class="s5" d="m132.1 878.7h13.8l48.6-347.6 3.9-37.2h-24.9l-3.1 37.2z"/>
				<path id="&lt;Path&gt;" class="s5" d="m155.5 765.2h154.8v-8.8h-154.8z"/>
				<path id="&lt;Path&gt;" class="s7" d="m291.4 529.7h-24.1l-3.9-35.8h24.9z"/>
				<path id="&lt;Path&gt;" class="s7" d="m170.4 529.7h24.1l3.9-35.8h-24.9z"/>
			</g>
			<g id="&lt;Group&gt;">
				<g id="&lt;Group&gt;">
					<path id="&lt;Path&gt;" class="s2" d="m179.5 325.4c5.9 3.1 7 13.7 25.7 13.2 2.6-0.1 4.8-1.2 7.3-0.3 3.5 1.3 6.4 4.2 9.5 6.3 2.7 1.7 5.5 2.8 8.6 3.2 5.7 0.9 11.7-0.7 16.7-3.8 3-1.9 5.6-4.5 8.6-6.5 2.8-2 20.8-6.4 23.8-16.4 1.9-6.4 1.6-13.7-6-23-1.5-1.9-3.2-3.6-3.4-6.2-0.2-2.2 0.7-4 1.4-6 0.8-2.2 1.7-4.5 1.1-6.9-0.6-2.4-2.5-4-4-5.8-2.8-3.4-2.3-8.3 0-14.3 2-5.1 1.1-10.9-1.8-15.5-1.7-2.7-4.1-4.8-6.4-7-3.4-3.2-4-6.2-5.5-10.8-2.9-8.8-7.5-12.7-12.8-15.4-4.8-2.5-4.7-1.5-9.8-0.8-5.2-3.2-11.6-4.5-17.5-3.7-5.6 0.7-10.3 4.5-14.6 8.1-3.8 3.2-7.2 6.7-7.4 12.2-0.2 3.1 0.6 6.2 0.5 9.4-0.2 4-2.5 6.5-5.1 9-3.7 3.6-6.9 7.8-7.8 13.1-0.7 4.3 3.5 10.9-1.4 17.2-4.3 5.5-12 11.9-14 18.9-6.2 21.8 8.6 28.9 14.3 31.8z"/>
					<path id="&lt;Compound Path&gt;" fill-rule="evenodd" class="s2" d="m251.7 336.9c8.4-1.7 20-0.7 25-7.8-3.7 2.5-8.2 4-12.4 4.5-0.2 0-0.2-0.2 0-0.2 4.8-0.7 9.6-2.4 13.2-5.8 0.9-1.7 1.4-3.8 1.6-6.3 0.3-6.5-2.2-11.6-5.1-17.2q-1.6-3.3-2.5-6.7-0.5-0.9-0.9-1.8c-1.8-4.4 0-8.8 1.9-12.7 0-0.1 0.1-0.1 0 0-0.8 2.3-1.8 4.8-2 7.3q0.3 2.9 1.1 5.8c1.3 2.5 3.5 4.6 5.4 6.6 3.3 3.6 6.2 8 6.5 13.1 0.3 5.2-2 9.3-5.4 12.2-4.5 9.6-17.7 8-26.3 9.3-0.2 0-0.3-0.3-0.1-0.3zm28.5-12.6c3.9-6 2.7-12.6-1.4-18.2-1.9-2.6-4.5-4.7-6.4-7.4q0.3 0.9 0.6 1.8c1.4 3.4 3.4 6.4 4.8 9.7 2 4.9 2.7 10.8 1 15.9q0 0.1 0 0.2 0.8-0.9 1.4-2z"/>
					<path id="&lt;Compound Path&gt;" fill-rule="evenodd" class="s2" d="m162.4 292.9c1.6-4.7 4.6-7.9 8.2-10.8-0.4 0.2-0.9 0.4-1.4 0.5-0.1 0.1-0.1 0 0-0.1 6.1-2.6 8.5-8.2 8-14.9-0.4-4.3-1.4-8.9-0.1-13.1 1.5-4.4 5.1-6.6 8.8-8.8 1.9-1.5 4-2.9 5.8-4.4 0.9-1 1.6-2.1 2.1-3.5 0 0 0.1 0 0.1 0.1q-0.3 1.1-0.8 2.1 0.4-0.3 0.8-0.7 0 0 0 0-0.5 0.5-1 1c-1.3 2.5-3.7 4.2-6.1 5.7q-0.6 0.4-1.2 0.7c-4.6 4.1-8.4 8.5-6.4 15.9 0.7 2.7 1.8 5.3 1.9 8q0.9-2.1 1.2-4.5c0.1-0.1 0.2-0.1 0.2 0-0.2 1.8-0.7 3.5-1.4 5.1q0 0.9-0.2 1.9c-0.7 3.2-2.7 5.6-5.2 7.4-0.2 0.1-0.3-0.1-0.2-0.2 2.7-2.2 4.2-4.6 4.7-7.3-2.8 5-7.5 9-11.2 13-2.3 2.4-4.5 5.3-6.3 8.3-2.2 8.7-1 19.9 7.2 24.7 0.1 0.1 0 0.3-0.2 0.3-7.8-4.7-9.5-14.3-8.1-23-2.9 5.8-4 12.3-0.4 18.6 0.2 0.1-0.1 0.3-0.2 0.1-4.5-7-2.8-15.5 1.4-22.1zm17.9-20.6c0.2-2.1-0.1-4.3-0.8-6.8-1.1-3.4-2.2-6.8-1.1-10.4 0.6-2.1 1.7-3.8 3-5.3-2.8 2.5-4.6 5.6-4.5 10.7 0.1 4.9 1.5 10-0.2 14.8-0.5 1.4-1.3 2.7-2.2 3.8q1-0.8 2-1.6c1.5-1.6 2.8-3.4 3.8-5.2zm-4.2 5.7q-1.4 1.2-2.8 2.3-0.4 0.4-0.8 0.6c-3.3 2.8-6.6 5.7-8.5 9.7 3.3-4.3 8.2-8.2 12.1-12.6z"/>
					<path id="&lt;Path&gt;" class="s2" d="m173.2 320.5c0 0 0 0.1 0 0.1-0.1 0-0.1-0.1 0-0.1z"/>
					<path id="&lt;Path&gt;" class="s2" d="m259.4 235.1c3.2 2.8 6.3 5.8 9.1 8.9 2 2.1 3.3 4.6 3.4 7.6 0.2 3-0.9 5.5-2.5 8q-1 1.4-1.9 2.9c-0.1 1.8 0.1 3.6 0.8 5.5 1.4 3.3 4.5 5.3 6 8.6 2.3 5.4-0.3 9.9-2.5 14.7-0.1 0-0.1 0-0.1 0 1.7-4 4-7.9 2.7-12.4-1.1-3.6-3.7-5.6-5.8-8.6-1.2-1.9-1.8-4.1-1.9-6.3-1.8 3.6-2.4 7.5 0.7 11.3 0.2 0.2 0 0.4-0.2 0.2-4-4-3-9-0.5-13.3 0.1-2.6 0.8-5.1 1.7-7.4 0.1-0.2 0.4 0 0.4 0.2-0.4 1.9-0.9 3.8-1.1 5.6q0.2-0.3 0.4-0.6c3.2-4.6 4.5-9.9 0.8-14.8-2.8-3.7-6.5-6.5-9.6-9.9-0.1-0.1 0-0.2 0.1-0.2z"/>
				</g>
				<g id="&lt;Group&gt;">
					<g id="&lt;Group&gt;">
						<g id="&lt;Group&gt;">
							<path id="&lt;Path&gt;" class="s13" d="m283.5 612.8c0 0-35.9 79.5-35.9 79.6-6.9 15.2-12.7 28.6-15.1 35.8q0 0.1 0 0.2c-0.9 2.7-1.3 4.5-1 5.2q0 0 0 0.1c3.1 5.1 122.8 64 127.7 64.7 4.8 0.7 7.1-13.2 4.3-19.2-2.9-6-38.6-49-38.6-49l35-79.9z"/>
							<path id="&lt;Path&gt;" class="s0" d="m255 676.1c0 0-7.4 16.2-7.4 16.3-6.9 15.2-12.7 28.6-15.1 35.8q0 0.1 0 0.2c-0.8 2.7-1.1 4.6-1 5.2q0 0 0 0.1c3.1 5.1 122.8 64 127.7 64.7 4.8 0.7 7.1-13.2 4.3-19.2-2.9-6-38.6-49-38.6-49l7.7-16.5z"/>
							<g id="&lt;Group&gt;">
								<path id="&lt;Path&gt;" class="s2" d="m359.1 798.2c-4.8-0.6-124.6-59.4-127.7-64.6-1.2-1.9 6.3-19.8 16.1-41.3q0.1-0.3 0.3-0.6l77.7 37-0.7 1.3c0 0 35.8 43.1 38.6 49.1 2.8 5.9 0.6 19.8-4.3 19.1z"/>
								<path id="&lt;Path&gt;" class="s1" d="m363.1 794.8c1.7 1.9-2.3 8.9-4.1 8.7-1.8-0.2-132.1-64.9-134.1-66.5-2-1.6 2.8-9.1 5.5-8.3 2.8 0.9 132.7 66.1 132.7 66.1z"/>
								<g id="&lt;Group&gt;">
									<path id="&lt;Path&gt;" class="s4" d="m331.2 733.5c-7.3-5.4-17.6-9-26.4-6.3-0.4 0.1-0.2 0.6 0.1 0.6 9 1.4 17.1 3.4 25.7 6.7 0.6 0.2 1.1-0.7 0.6-1z"/>
									<path id="&lt;Path&gt;" class="s4" d="m335.2 739.7c-7.2-5.4-17.5-8.9-26.4-6.2-0.3 0.1-0.2 0.6 0.1 0.6 9.1 1.4 17.2 3.4 25.8 6.6 0.6 0.2 1-0.6 0.5-1z"/>
									<path id="&lt;Path&gt;" class="s4" d="m339.2 746c-7.2-5.4-17.5-8.9-26.3-6.3-0.4 0.2-0.2 0.6 0.1 0.7 9 1.4 17.1 3.4 25.7 6.6 0.6 0.2 1.1-0.6 0.5-1z"/>
								</g>
								<path id="&lt;Path&gt;" class="s4" d="m261 714.8c-6.6-8.6-20 1.5-13.4 10.2 6.5 8.6 19.9-1.6 13.4-10.2z"/>
							</g>
						</g>
						<g id="&lt;Group&gt;">
							<path id="&lt;Path&gt;" class="s3" d="m304.6 543.6c-0.8 23.2-45.4 123.1-45.4 123.1l78.2 36c0 0 63.1-111.1 57.3-162.3-5-43.5-114.3-123.8-131.9-146.4-2.6-3.4-1.7-16.9-1.7-16.9h-70.9v16.9c27.1 57.5 108.1 126.5 114.1 146.7q0.3 1.1 0.3 2.9z"/>
							<g id="&lt;Group&gt;">
								<g id="&lt;Group&gt;">
									<path id="&lt;Path&gt;" class="s2" d="m337 686c-12.9-6.2-9.1-4.6-22.1-10.6-6.3-3-38.1-17.9-44.5-19.5-0.2-0.1-0.3 0.2-0.1 0.2 5.4 3.8 37.6 17.9 44 20.7 13 5.8 9.4 4 22.5 9.6 0.2 0.1 0.4-0.3 0.2-0.4z"/>
								</g>
								<path id="&lt;Path&gt;" class="s2" d="m208.1 406.1c21.5 32.6 45.2 63.6 71.6 92.5 6.4 7 13.1 13.8 19.7 20.6 5.6 5.8 11.3 12.2 12.7 20.5 1.5 9.1-2 18.2-4.9 26.8-3.1 9.4-6.3 18.8-9.6 28.1-3.6 10.1-18.3 46.4-20.8 51.3-1.2 2.4 19.5-49.9 22.9-59.7 3.3-9.6 6.7-19.3 9.6-29.1 1.5-5 2.6-10.3 2.1-15.5-0.6-5.1-2.8-9.7-5.9-13.8-5.7-7.7-13.2-14.2-19.8-21.2-13.5-14.6-26.5-29.7-38.7-45.3-14-17.7-27.1-36-39.2-55.1-0.1-0.1 0.2-0.3 0.3-0.1z"/>
							</g>
						</g>
					</g>
					<g id="&lt;Group&gt;">
						<g id="&lt;Group&gt;">
							<path id="&lt;Path&gt;" class="s13" d="m165.9 786.2c0 0-3.4 87.3-3.5 87.3 0.4 16.7 1.1 31.3 2.1 38.8q0 0.1 0 0.2c0.4 2.8 0.9 4.6 1.4 5.1q0 0.1 0.1 0.1c5 3.2 138.4 4 143.1 2.5 4.7-1.6 0.6-15-4.5-19.2-5.2-4.1-56.1-27.2-56.1-27.2l2.6-87.2z"/>
							<path id="&lt;Path&gt;" class="s0" d="m163.1 856.3c0 0-0.6 17.2-0.7 17.2 0.4 16.7 1.1 31.3 2.1 38.8q0 0.1 0 0.2c0.6 2.8 1.1 4.6 1.4 5.1q0 0.1 0.1 0.1c5 3.2 138.4 4 143.1 2.5 4.7-1.6 0.6-15-4.5-19.2-5.2-4.1-56.1-27.2-56.1-27.2l0.5-17.7z"/>
							<g id="&lt;Group&gt;">
								<path id="&lt;Path&gt;" class="s2" d="m309 920c-4.7 1.6-138.1 0.9-143.1-2.3-2-1.2-3-20.6-3.6-44.2q0-0.3 0-0.7l86.1-0.6-0.1 1.5c0 0 51 23.1 56.2 27.2 5.1 4.2 9.2 17.6 4.5 19.1z"/>
								<path id="&lt;Path&gt;" class="s1" d="m311.1 915.2c2.3 1 1.8 9 0.1 9.6-1.8 0.7-147.2-0.7-149.7-1.2-2.4-0.6-1.5-9.5 1.4-9.9 2.9-0.4 148.2 1.5 148.2 1.5z"/>
								<g id="&lt;Group&gt;">
									<path id="&lt;Path&gt;" class="s4" d="m255.6 874c-8.9-1.7-19.7-0.4-26.5 5.9-0.3 0.2 0.1 0.6 0.4 0.5 8.7-2.7 16.9-4.5 26-5.3 0.7-0.1 0.7-1 0.1-1.1z"/>
									<path id="&lt;Path&gt;" class="s4" d="m261.9 877.9c-8.8-1.7-19.6-0.4-26.4 5.8-0.3 0.3 0.1 0.7 0.3 0.6 8.8-2.7 16.9-4.5 26.1-5.3 0.6-0.1 0.7-1 0-1.1z"/>
									<path id="&lt;Path&gt;" class="s4" d="m268.3 881.7c-8.8-1.7-19.7-0.4-26.5 5.9-0.2 0.3 0.1 0.6 0.4 0.5 8.7-2.7 16.9-4.4 26.1-5.2 0.6-0.1 0.6-1 0-1.2z"/>
								</g>
								<path id="&lt;Path&gt;" class="s4" d="m184.3 887.8c-9.7-4.9-17.3 10.1-7.6 15 9.6 4.9 17.2-10.1 7.6-15z"/>
							</g>
						</g>
						<g id="&lt;Group&gt;">
							<path id="&lt;Path&gt;" class="s3" d="m250.8 845.7l-87.2 0.7c0 0 14.5-356.1 4.8-367.7-23.1-27.7-19.4-64.6-3.9-101.6h79.5c0 0-3.8 56.2-3.4 57.9 24.4 106.6 10.2 410.7 10.2 410.7z"/>
							<g id="&lt;Group&gt;">
								<path id="&lt;Path&gt;" class="s2" d="m246 827.9c-19-1.5-69.1 0.1-75.4 1.1-0.2 0-0.2 0.2 0 0.3 6.2 1.2 63.7-0.6 75.4-1 0.2 0 0.3-0.4 0-0.4z"/>
								<path id="&lt;Path&gt;" class="s2" d="m245.9 398.9c-0.8 10.1-0.4 27.3-6.2 27.5-5.7 0.3-4.8-20.7-5-25.5-0.2-4.4-1.7-3.8-1.8 1.3-0.5 14.1-0.1 26.4 7.3 25.8 7.6-0.5 7.4-22.2 7.2-27.2-0.1-2.6-1.3-5-1.5-1.9z"/>
								<path id="&lt;Path&gt;" class="s2" d="m240 427.1c-0.3 2-0.2 9.1 0.3 10.6 0.1 0.3 1.2 0.1 1.3-0.2 0.7-1.4 0.1-8.3 0.3-10.2 0.2-1.2-1.6-1.4-1.9-0.2z"/>
								<path id="&lt;Path&gt;" class="s2" d="m242.5 439.5c2.5 8.8 5 25.6 4.4 30.1 0 0.4-0.6 0.5-0.7 0.1-0.8-4.7-4.3-27.4-4.7-29.8-0.4-2.5 0.3-2.9 1-0.4z"/>
								<path id="&lt;Path&gt;" class="s2" d="m227.2 446.4c1.1-1.1 2.5-2.1 3.7-3.1q2-1.5 4-3c2.7-1.9 5.6-3.7 8.5-5.4 2.8-1.7 5.7-3.2 8.7-4.7 3.1-1.6 6.3-2.8 9.4-4.3 0.2-0.1 0.4 0.1 0.2 0.2-2.9 1.7-5.7 3.7-8.5 5.5-2.9 1.7-5.7 3.6-8.5 5.4-2.8 1.7-5.6 3.5-8.4 5.2q-2.2 1.3-4.4 2.6c-1.4 0.8-2.8 1.8-4.2 2.4-0.5 0.2-0.8-0.5-0.5-0.8z"/>
								<path id="&lt;Path&gt;" class="s2" d="m176.7 660.4c1.3-28.5 3.4-60.3 3.8-88.9q0.3-21.4 0.3-42.9c0-14.1 0.1-33.1-0.6-47.2-0.4-7.2-13.1-12.8-15.7-33.8-1.6-13.1-0.9-24.1 2.8-35.6q1.4-4.2 3.2-8.2c0.1-0.2 0.3 0 0.2 0.2-5 11.7-7.1 24.6-6.1 37.3 0.5 6.4 1.5 12.8 3.9 18.9 3.4 8.4 11.8 15.3 12.2 19.8 0.7 6.7 0.8 12.5 0.9 19.2q0.1 10.5 0.2 21 0.1 21.5-0.1 42.9-0.5 42.6-2.3 85.3c-1.2 28.4-8.5 170.7-9 173.9-0.1 0.4-0.7 0.3-0.6-0.1 0.9-14.2 5.7-133.2 6.9-161.8z"/>
							</g>
						</g>
					</g>
				</g>
				<g id="&lt;Group&gt;">
					<g id="&lt;Group&gt;">
						<g id="&lt;Group&gt;">
							<path id="&lt;Path&gt;" class="s13" d="m223.8 311.4c19 39.1 43 81.4 65.5 88 21.4 6.3 62.8-46.2 75.9-60.1 4.6-5-33.4-33.6-39.3-29.2-11.1 8.2-31.1 30.4-34.4 29.7-3.5-0.9-31.4-27.4-56.6-49.8-15.4-13.6-24.2-5.6-11.1 21.4z"/>
							<g id="&lt;Group&gt;">
								<path id="&lt;Path&gt;" class="s13" d="m398.2 314.7c5.2-2.2 45.2-3.5 45.2-12.2 0-8.7-51-6.2-51-6.2z"/>
								<path id="&lt;Path&gt;" class="s13" d="m321.4 315.7c7-8.7 13.1-18.1 19.2-19.8 4.2-1.2 49.5 0.7 56.6 0.3 7.1-0.4 32.4 0.2 33 6.4 0.8 8.8-29.1 8.7-32.3 13.2-11 15.5-52.9 38.4-52.9 38.4z"/>
								<path id="&lt;Path&gt;" class="s2" d="m430.8 302.8c-0.3-1.6-1.5-3-2.9-3.9-3.1-2.2-7.1-2.4-10.8-2.7-5.5-0.4-11.1-0.6-16.6-0.1-0.1 0-0.1 0.2 0 0.2 4.2 0 8.3 0.1 12.4 0.4 3.8 0.3 7.7 0.6 11.3 1.7 1.6 0.6 3.2 1.3 4.3 2.6 0.7 0.9 1.2 2.2 0.8 3.4-1.2 3.8-8.7 4.9-12.2 5.7-4.5 1-9.3 1.9-13.8 2.9-0.2 0-0.1 0.3 0.1 0.3 4.7-1 9.7-1.3 14.5-2.2 3.8-0.7 8-1.5 11.1-4 1.3-1.1 2.2-2.6 1.8-4.3z"/>
							</g>
						</g>
						<g id="&lt;Group&gt;">
							<g id="&lt;Group&gt;">
								<path id="&lt;Path&gt;" class="s1" d="m442.6 295.7l-0.3 1.4c-0.3 1.5-1.7 2.4-3.2 2.1l-78.8-15.3 1.4-6.8 78.7 15.4c1.5 0.3 2.5 1.7 2.2 3.2z"/>
								<path id="&lt;Path&gt;" class="s8" d="m360.3 283.9l1.3-6.8 9.6 1.9-1.4 6.7z"/>
							</g>
							<path id="&lt;Compound Path&gt;" fill-rule="evenodd" class="s1" d="m349.8 256.2c4.3 0.8 7.8 3.3 10 6.6 2.2 3.3 3.2 7.5 2.4 11.7l-2.4 12c-1.6 8.4-9.8 13.9-18.3 12.3-4.2-0.8-7.7-3.3-9.9-6.6-2.2-3.3-3.2-7.5-2.4-11.7l2.3-12c1.7-8.4 9.9-13.9 18.3-12.3zm-0.9 4.8c-5.5-1.1-10.8 1.8-11.7 6.6-0.7 3.6 1.2 7.1 4.6 9.1-3.9 0.6-7 3.2-7.7 6.8-0.9 4.7 2.8 9.5 8.4 10.6 5.5 1 10.7-2 11.7-6.7 0.7-3.6-1.3-7.1-4.6-9.1 3.9-0.6 7-3.2 7.7-6.8 0.9-4.7-2.8-9.5-8.4-10.5z"/>
							<path id="&lt;Path&gt;" class="s1" d="m365.4 274.7l-2.6 12.8c-0.1 0.7-0.7 1.2-1.4 1l-0.7-0.1c-0.6-0.1-1.1-0.8-1-1.5l2.5-12.8c0.2-0.7 0.8-1.2 1.5-1l0.7 0.1c0.6 0.1 1.1 0.8 1 1.5z"/>
							<path id="&lt;Path&gt;" class="s1" d="m368.5 275.3l-2.5 12.8c-0.2 0.7-0.8 1.2-1.5 1l-0.7-0.1c-0.6-0.1-1.1-0.8-1-1.5l2.6-12.8c0.1-0.7 0.8-1.2 1.4-1l0.7 0.1c0.7 0.1 1.1 0.8 1 1.5z"/>
							<path id="&lt;Path&gt;" class="s1" d="m421.6 285.9l2.3 0.5 1.4-6.8 2 0.4-0.7 3.5 2.3 0.5 0.7-3.6 1.8 0.4-1.1 5.6 2.3 0.5 1.1-5.7 2.6 0.5-1.5 7.5 2.3 0.5 1.5-7.5 2.4 0.5-1.9 9.5-20.9-4 1.8-9.6 2.9 0.5z"/>
						</g>
					</g>
					<g id="&lt;Group&gt;">
						<path id="&lt;Path&gt;" class="s1" d="m153.1 389.1l111.7 1.9-8.8-33.5c0 0 9.6-12.2 5-29.1-2.6-9.9-15.3-24.6-23.1-34-19-22.8-35.5-12.5-40.7-6.6-20.1 22.4-44.1 101.3-44.1 101.3z"/>
						<path id="&lt;Compound Path&gt;" fill-rule="evenodd" class="s4" d="m208.1 300.7l0.1-6.3 4.2 4.7 4.6-1.4-2.3 4 2.2 2.3-3.3 0.3-0.1 4.3-3.6-3-3 2.5 0.3-3.7-4.3-2zm47.1 76.9l5.8 2.6-6 2-0.4 4.8-2.9-3.6-2.9 1.1 1-3.2-4-1.7 4.2-2.2-1.1-3.7 3.2 1.7 3.6-3.2zm-46.1-30.1l4.9-3.8-5.3-5.5 9 0.7 3.6-6.9 1.3 6.7 6.8-0.3-4.8 4.6 3.4 6.8-6.4-1.1-3.4 6.5-3.4-6.8zm33.3-36.1l-2.4-0.9-0.8 3.1-1.8-3.3-3.2 0.2 2-1.9-1.6-2.4 2.7 0.7 1.7-2.8 1 2.5 3.1-0.2-1.6 2.7zm-52.4 72.8l-2.4-0.9-0.8 3.1-1.8-3.3-3.2 0.3 2-2-1.6-2.4 2.7 0.7 1.6-2.8 1.1 2.6 3.1-0.3-1.7 2.7zm18.4-49.5l-2.5-0.9-0.7 3.1-1.8-3.4-3.3 0.3 2.1-2-1.6-2.3 2.7 0.7 1.6-2.8 1.1 2.5 3.1-0.2-1.7 2.7zm-19.5 5.6l-1.3 0.8 1.1 1.5-2.2-0.5-1.2 1.6v-1.7l-1.7-0.2 1.4-1-0.6-1.8 1.5 0.6 1.1-1.5 0.6 1.8zm51.8 42.9l-1.4 0.7 1.1 1.6-2.2-0.5-1.1 1.5-0.1-1.7-1.7-0.2 1.4-0.9-0.6-1.8 1.6 0.5 1-1.5 0.6 1.8zm14.3-51.2l-1.2-1-1 1.6-0.4-2.2-1.9-0.4 1.5-0.7-0.5-1.6 1.4 0.8 1.4-1.3 0.2 1.7 1.8 0.4-1.5 1.2zm-28 33.8l-1.2-0.9-1 1.6-0.4-2.2-1.9-0.4 1.5-0.8-0.5-1.6 1.4 0.9 1.4-1.3 0.2 1.6 1.8 0.4-1.4 1.3zm-57.7 10.5l-1.2-0.9-1 1.6-0.4-2.2-1.9-0.4 1.5-0.7-0.5-1.6 1.4 0.8 1.5-1.3 0.1 1.7 1.8 0.4-1.4 1.2z"/>
						<g id="&lt;Group&gt;">
							<g id="&lt;Group&gt;">
								<path id="&lt;Path&gt;" class="s2" d="m226.1 355.6c4.8-0.4 9.6-0.6 14.4-0.3 2.4 0.2 4.7 0.5 7.1 0.8q1.8 0.2 3.5 0.4c1.2 0.1 2.5 0.2 3.7 0 0.1 0 0.2 0.2 0.1 0.2-1.2 0.2-2.3 0.5-3.5 0.6-1.1 0-2.3 0-3.4-0.1-2.4-0.1-4.8-0.4-7.2-0.5-4.9-0.4-9.8-0.7-14.6-0.7-0.3 0-0.3-0.4-0.1-0.4z"/>
								<path id="&lt;Path&gt;" class="s2" d="m215.3 361.8c3.8-1.1 7.7-2 11.5-2.7 2-0.3 3.9-0.5 5.9-0.7q1.4-0.1 2.8-0.2c1.1 0 2.1 0.1 3.2 0 0.1 0 0.1 0.2 0 0.2-1 0.1-1.9 0.3-2.9 0.5q-1.5 0.2-2.9 0.4-3 0.5-5.9 1c-3.9 0.5-7.8 1.1-11.7 1.8-0.2 0.1-0.2-0.2 0-0.3z"/>
							</g>
						</g>
					</g>
					<g id="&lt;Group&gt;">
						<g id="&lt;Group&gt;">
							<path id="&lt;Path&gt;" class="s13" d="m208.1 286.5c0.5 2 10 14.9 19.1 14.4 2.9-0.1 2.9-16.3 2.9-16.3l0.2-1.2 3.8-16.8-19.8-12.6-2.8-1.7c0 0-0.7 4.7-1.6 10.5q0 0.4-0.1 0.8-0.1 0.5-0.1 1-0.2 1.3-0.4 2.6c-0.1 0.7-0.2 1.3-0.3 2q-0.1 1.1-0.2 2.1c-0.7 7.1-0.9 14.3-0.7 15.2z"/>
							<path id="&lt;Path&gt;" class="s2" d="m209.9 262.8c4.9 13.3 15.5 18.7 20.4 20.6l3.8-16.8-19.8-12.6-2.8-1.7c0 0-0.7 4.7-1.6 10.5z"/>
						</g>
						<g id="&lt;Group&gt;">
							<path id="&lt;Path&gt;" class="s13" d="m257.7 239.2c5.8 29.6-11.3 36.5-17.6 37.7-5.8 1.2-25.7 4.3-34.6-24.5-8.8-28.9 3.1-40.9 16.2-44.2 13.1-3.3 30.1 1.4 36 31z"/>
							<g id="&lt;Group&gt;">
								<path id="&lt;Path&gt;" class="s2" d="m249 234.7c-0.7 0.2-1.3 0.2-2 0.3-0.8 0.2-1.5 0.3-2.2 0-0.4-0.2-0.6-0.8-0.5-1.2 0.4-1 1.3-1.4 2.2-1.6 1.1-0.2 1.9-0.1 2.8 0.4 0.9 0.5 0.6 1.9-0.3 2.1z"/>
								<path id="&lt;Path&gt;" class="s2" d="m228 240.8c0.7-0.1 1.3-0.3 2-0.5 0.8-0.1 1.5-0.2 2-0.8 0.4-0.3 0.3-1 0-1.3-0.6-0.8-1.6-0.8-2.6-0.6-1 0.1-1.7 0.5-2.4 1.3-0.7 0.8 0.1 2 1 1.9z"/>
								<g id="&lt;Group&gt;">
									<g id="&lt;Group&gt;">
										<path id="&lt;Path&gt;" class="s2" d="m232.4 244.6c0-0.1-0.1 0.1-0.1 0.2 0.4 2 0.5 4.4-1.3 5.3 0 0 0 0.1 0.1 0.1 2.2-0.6 2-3.8 1.3-5.6z"/>
										<path id="&lt;Path&gt;" class="s2" d="m230.3 242.7c-3.3 0.2-2.6 6.8 0.5 6.6 3-0.2 2.3-6.8-0.5-6.6z"/>
									</g>
									<path id="&lt;Path&gt;" class="s2" d="m229.1 243.2c-0.6 0.4-1.1 1.1-1.8 1.3-0.7 0.2-1.4-0.5-2-1.1-0.1 0-0.1 0-0.1 0.1 0.1 1.3 0.7 2.5 2.1 2.6 1.2 0 2-1.2 2.2-2.5 0-0.3-0.2-0.6-0.4-0.4z"/>
								</g>
								<g id="&lt;Group&gt;">
									<g id="&lt;Group&gt;">
										<path id="&lt;Path&gt;" class="s2" d="m245 242.6c0 0 0.1 0.1 0.1 0.2 0.2 2.1 0.7 4.4 2.6 4.9 0.1 0 0.1 0.1 0 0.1-2.3-0.1-2.9-3.2-2.7-5.2z"/>
										<path id="&lt;Path&gt;" class="s2" d="m246.6 240.3c3.2-0.6 4.2 6 1.1 6.5-2.9 0.6-3.9-6-1.1-6.5z"/>
									</g>
									<path id="&lt;Path&gt;" class="s2" d="m248 240.6c0.6 0.2 1.2 0.8 1.8 0.7 0.7 0 1.2-0.8 1.5-1.5 0.1-0.1 0.1-0.1 0.1 0 0.2 1.3 0 2.6-1.2 3-1 0.4-2-0.5-2.5-1.8 0-0.2 0.1-0.6 0.3-0.4z"/>
								</g>
								<path id="&lt;Path&gt;" class="s2" d="m236.2 261.8c0.5 0.5 1 1.1 1.8 1.1 0.7 0 1.5-0.4 2.1-0.7 0.1 0 0.2 0.1 0.1 0.1-0.5 0.9-1.5 1.4-2.5 1.3-0.9-0.1-1.5-0.9-1.7-1.7-0.1-0.1 0.1-0.2 0.2-0.1z"/>
								<g id="&lt;Group&gt;">
									<path id="&lt;Path&gt;" class="s2" d="m243.8 253.4c0 0 0.8 3 1 4.4 0 0.2-0.4 0.3-0.9 0.4q0 0 0 0c-2.5 0.7-5.2 0.1-7-1.8-0.1-0.1 0.1-0.3 0.2-0.2 2.1 1.2 4.2 1.3 6.5 1 0-0.4-1.5-5.1-1.3-5.1 0.8-0.2 2.4 0.2 3.3 0.3-1.4-6.2-3.9-12.2-5.3-18.5 0-0.2 0.3-0.4 0.4-0.2 3 6.1 4.9 13.3 6.6 19.8 0.2 0.8-2.9 0.1-3.5-0.1z"/>
								</g>
								<g id="&lt;Group&gt;">
									<path id="&lt;Path&gt;" class="s2" d="m243.7 257.6c0 0-1 2.2-2.8 3.2-0.6 0.4-1.4 0.6-2.2 0.5-1.7-0.1-2-1.6-1.9-2.9 0-1.1 0.3-2.1 0.3-2.1 0 0 2.8 1.8 6.6 1.3z"/>
									<path id="&lt;Path&gt;" class="s14" d="m240.9 260.8c-0.6 0.4-1.4 0.6-2.2 0.5-1.7-0.1-2-1.6-1.9-2.9 1.7-0.1 3.7 0.7 4.1 2.4z"/>
								</g>
							</g>
							<g id="&lt;Group&gt;">
								<g id="&lt;Group&gt;">
									<path id="&lt;Path&gt;" class="s2" d="m208.8 255c5.7-0.1 5.3-13 5.3-13 0 0 23.1-7.4 22.4-27 0 0 5.8 11.7 19 15.5 0 0-3.8-21-21.2-22.7 0 0-21.8-4.6-31.2 13.5-9.4 18.2 1.9 33.7 5.7 33.7z"/>
								</g>
								<path id="&lt;Path&gt;" class="s2" d="m236.4 213.6c0.7 2.9 0.7 6 0.2 8.9-0.6 3-1.7 5.9-3.4 8.5-0.4 0.6-0.9 1.2-1.4 1.8l-0.7 0.9q-0.4 0.4-0.8 0.8c-0.5 0.5-1.1 1-1.6 1.5q-1 0.7-1.9 1.4-0.4 0.3-0.9 0.6l-1 0.6-2 1.1q-2 0.9-4.1 1.6c1.3-0.8 2.6-1.4 3.8-2.2l1.9-1.2 0.9-0.6q0.4-0.4 0.8-0.7 0.8-0.8 1.7-1.4c0.5-0.5 1-1.1 1.5-1.6l0.7-0.8 0.7-0.8c0.4-0.6 0.9-1.2 1.3-1.8 1.6-2.4 2.7-5.1 3.5-7.9q0.5-2.1 0.7-4.3 0.2-2.2 0.1-4.4z"/>
							</g>
							<g id="&lt;Group&gt;">
								<path id="&lt;Compound Path&gt;" fill-rule="evenodd" class="s1" d="m211 240.5l-3 6.4-9.4-6.9 1.4-2.8zm-2.5 1.2l-7.3-2.6-0.3 0.6 6.5 4.2z"/>
								<path id="&lt;Compound Path&gt;" fill-rule="evenodd" class="s1" d="m211.8 231.1l-0.4 7-11.2-2.8 0.2-3.1zm-1.9 2l-7.7 0.4-0.1 0.7 7.6 1.4z"/>
							</g>
							<g id="&lt;Group&gt;">
								<g id="&lt;Group&gt;">
									<path id="&lt;Path&gt;" class="s13" d="m213.2 252.4c0 0-7.6-8.6-11.6-5.8-4 2.8 2.4 15.8 7.6 17.1 5.2 1.3 6.5-3.5 6.5-3.5z"/>
									<path id="&lt;Path&gt;" class="s2" d="m203.5 250.3c-0.1 0-0.1 0.1 0 0.1 3.7 1 5.9 4.1 7.5 7.3-1.2-1.2-2.7-1.7-4.3-0.3 0 0.1 0.1 0.2 0.2 0.2 1.4-0.5 2.4-0.4 3.5 0.7 0.8 0.7 1.4 1.7 2 2.6 0.1 0.3 0.7 0 0.5-0.3q0-0.1 0-0.1c-0.4-4.5-4.5-10.3-9.4-10.2z"/>
								</g>
							</g>
						</g>
					</g>
					<g id="&lt;Group&gt;">
						<g id="&lt;Group&gt;">
							<path id="&lt;Path&gt;" class="s13" d="m190.5 294.4c-25.4 43.9-63.5 144.6-70.3 159-4.7 9.8 46.4 35.6 48.6 28.4 2.8-9.1 38.2-126.4 40.6-178.7 1-24.3-10.8-22.7-18.9-8.7z"/>
							<g id="&lt;Group&gt;">
								<g id="&lt;Group&gt;">
									<path id="&lt;Path&gt;" class="s13" d="m148 504.2c2.7-2.3 3.9-0.9 2.8 5.3-1.2 6.3-11.1 30-2.6 32.7 8.6 2.8 22.1-30.9 23.3-41.4 1.2-10.5-0.7-28-0.7-28-3.9 6-14.9 19.7-22.8 31.4z"/>
									<g id="&lt;Group&gt;">
										<g id="&lt;Group&gt;">
											<g id="&lt;Group&gt;">
												<path id="&lt;Path&gt;" class="s7" d="m163 540.9l-64.1-11.5c-1.9-0.2-3.2-1.5-2.9-3l5.9-26.1c0.3-1.5 2.1-2.5 4.1-2.4l64.1 11.6c1.9 0.1 3.2 1.5 2.8 2.9l-5.8 26.2c-0.3 1.4-2.2 2.5-4.1 2.3z"/>
												<path id="&lt;Path&gt;" class="s5" d="m163.7 537.8l-64.1-11.5c-1.9-0.2-3.2-1.5-2.9-2.9l5.9-26.2c0.3-1.5 2.2-2.5 4.1-2.3l64.1 11.5c1.9 0.1 3.2 1.5 2.9 2.9l-5.9 26.2c-0.3 1.5-2.1 2.5-4.1 2.3z"/>
												<path id="&lt;Path&gt;" class="s2" d="m162.5 529.5c-1.4-0.5-2.8 0-3.1 1.3-0.2 1.2 0.8 2.7 2.3 3.2 1.5 0.6 2.9 0.1 3.1-1.2 0.2-1.2-0.8-2.7-2.3-3.3z"/>
											</g>
										</g>
									</g>
									<path id="&lt;Path&gt;" class="s13" d="m123.6 448.8c-13.1 17.6-24.6 38.3-24.9 61.2-0.1 4.5 2.2 7.1 2.2 7.1-0.3 10.3 4.4 13.5 4.4 13.5 2.6 9.6 8 12.3 8 12.3 0 0 0.7 8.2 6.5 8.1 5.7-0.1 9.1-13.7 14.1-23.5 11.7-22.7 32.9-48.5 36.9-54.7z"/>
									<path id="&lt;Path&gt;" class="s2" d="m127.7 498.3c-3.2 6.8-6.7 13.3-9 20.5-2.6 7.8-3.8 15.8-5.2 23.9-0.1 0.2-0.4 0.2-0.4-0.1 0.2-15 6-31.9 14.3-44.4 0.2-0.3 0.5-0.2 0.3 0.1z"/>
									<path id="&lt;Path&gt;" class="s2" d="m115.1 489.3c-2.9 6.7-7.8 18.6-9.6 41.3 0 0.1-0.1 0.1-0.1 0-0.8-14.9 2.5-28.3 9.4-41.4 0.2-0.4 0.5-0.4 0.3 0.1z"/>
									<path id="&lt;Path&gt;" class="s2" d="m108.2 484.6c-4.4 11.6-5.7 19.5-7.3 32.5 0 0-0.1 0-0.1 0 0.2-14.9 2-20.3 7-32.7 0.2-0.5 0.6-0.3 0.4 0.2z"/>
								</g>
							</g>
						</g>
					</g>
				</g>
			</g>
		</g>
	</g>
</svg>