<svg version="1.2" xmlns="http://www.w3.org/2000/svg" viewBox="0 0 1000 1000" width="1000" height="1000">
	<title>5518831-ai</title>
	<style>
		.s0 { fill: #ebebeb } 
		.s1 { fill: #c7c7c7 } 
		.s2 { fill: #dbdbdb } 
		.s3 { fill: #ffffff } 
		.s4 { opacity: .5;fill: #ebebeb } 
		.s5 { fill: #a6a6a6 } 
		.s6 { fill: #263238 } 
		.s7 { fill: #ffc727 } 
		.s8 { opacity: .1;fill: #000000 } 
		.s9 { fill: #37474f } 
		.s10 { fill: #000000 } 
		.s11 { opacity: .6;fill: #ffffff } 
		.s12 { opacity: .4;fill: #ffffff } 
		.s13 { fill: none;stroke: #263238;stroke-width: 2 } 
		.s14 { fill: none;stroke: #263238;stroke-width: 2;stroke-dasharray: 4,4 } 
		.s15 { fill: #f7a9a0 } 
		.s16 { fill: #455a64 } 
		.s17 { fill: #ff9bbc } 
	</style>
	<g id="Background Complete">
		<g id="&lt;Group&gt;">
			<g id="&lt;Group&gt;">
				<path id="&lt;Compound Path&gt;" fill-rule="evenodd" class="s0" d="m171.1 614.3l-26.2 0.6-13.3 0.2c-4.5 0.1-9 0.1-13.4 0.1h-0.9v-0.9l-0.1-22.3v-1h1l26.5 0.1c8.8 0 17.6 0.2 26.4 0.3h0.6v0.6c0 3.8-0.2 7.5-0.3 11.3zm0 0l-0.3-11.3c0-3.6-0.2-7.1-0.2-10.6-8.7 0.1-17.3 0.4-26 0.4l-25.4 0.1-0.1 20.5c4 0 8.1 0 12.2 0.1l13.1 0.2zm-0.5-21.8q0.2 0 0.5 0l-0.5-0.6q0 0.3 0 0.6zm-51.5 0.4l0.1-1-1 1zm-0.1 20.5q-0.5 0-0.9 0l0.9 0.9z"/>
			</g>
			<path id="&lt;Path&gt;" class="s0" d="m141.6 642.6h-53v-22.4h53z"/>
			<g id="&lt;Group&gt;">
				<path id="&lt;Compound Path&gt;" fill-rule="evenodd" class="s0" d="m308.7 397.1l-26.3 0.6-13.3 0.2c-4.5 0.1-8.9 0.1-13.4 0.1h-0.9v-0.9l-0.1-22.3v-1h1l26.5 0.1c8.8 0 17.6 0.2 26.5 0.3h0.5v0.6c0 3.8-0.2 7.5-0.3 11.3zm0 0l-0.2-11.3c-0.1-3.6-0.2-7.1-0.3-10.6-8.6 0.1-17.3 0.3-25.9 0.4l-25.5 0.1-0.1 20.5c4 0 8.1 0 12.2 0.1l13.1 0.2zm-0.5-21.8q0.3 0 0.5 0l-0.5-0.6q0 0.3 0 0.6zm-51.4 0.4v-1l-1 1zm-0.1 20.5q-0.5 0-0.9 0l0.9 0.9z"/>
			</g>
			<path id="&lt;Path&gt;" class="s0" d="m279.1 425.4h-52.9v-22.4h52.9z"/>
			<g id="&lt;Group&gt;">
				<path id="&lt;Compound Path&gt;" fill-rule="evenodd" class="s0" d="m710.9 272.4l-26.3 0.5-13.3 0.3c-4.4 0.1-8.9 0-13.4 0.1h-0.9v-0.9l-0.1-22.4v-1h1l26.5 0.1c8.8 0 17.6 0.3 26.5 0.4h0.5v0.5c0 3.8-0.1 7.6-0.2 11.3zm0 0l-0.3-11.3c-0.1-3.5-0.2-7-0.3-10.5-8.6 0.1-17.3 0.3-25.9 0.3l-25.5 0.1-0.1 20.5c4.1 0.1 8.1 0 12.2 0.1l13.1 0.3zm-0.5-21.9q0.3 0 0.5 0l-0.5-0.5q0 0.2 0 0.5zm-51.4 0.5v-1l-1 1zm-0.1 20.5q-0.5 0-0.9 0l0.9 0.9z"/>
			</g>
			<g id="&lt;Group&gt;">
				<path id="&lt;Compound Path&gt;" fill-rule="evenodd" class="s0" d="m249.7 397.1l-26.3 0.6-13.3 0.2c-4.4 0.1-8.9 0.1-13.4 0.1h-0.9v-0.9l-0.1-22.3v-1h1l26.5 0.1c8.8 0 17.7 0.2 26.5 0.3h0.5v0.6c0 3.8-0.1 7.5-0.2 11.3zm0 0l-0.3-11.3c-0.1-3.6-0.2-7.1-0.3-10.6-8.6 0.1-17.3 0.3-25.9 0.4l-25.5 0.1-0.1 20.5c4.1 0 8.1 0 12.2 0.1l13.2 0.2zm-0.6-21.8q0.3 0 0.6 0l-0.6-0.6q0 0.3 0 0.6zm-51.4 0.4v-1l-1 1zm-0.1 20.5q-0.4 0-0.9 0l0.9 0.9z"/>
			</g>
			<g id="&lt;Group&gt;">
				<path id="&lt;Compound Path&gt;" fill-rule="evenodd" class="s0" d="m872.6 536.2l-26.2 0.5-13.3 0.2c-4.5 0.1-9 0.1-13.4 0.1l-0.9 0.1v-0.9l-0.1-22.4v-1h1l26.5 0.1c8.8 0 17.6 0.2 26.4 0.3h0.6v0.6c0 3.8-0.2 7.5-0.3 11.3zm0 0l-0.3-11.3c0-3.6-0.2-7.1-0.2-10.5-8.7 0.1-17.3 0.3-26 0.3l-25.4 0.1-0.1 20.5c4 0 8.1 0 12.2 0.1l13.1 0.2zm-0.5-21.8q0.2 0 0.5 0l-0.5-0.6q0 0.3 0 0.6zm-51.4 0.4v-1l-1 1zm-0.1 20.5q-0.5 0-0.9 0l0.9 0.9z"/>
			</g>
			<path id="&lt;Path&gt;" class="s0" d="m897.1 566.1h-52.9v-22.4h52.9z"/>
			<g id="&lt;Group&gt;">
				<path id="&lt;Compound Path&gt;" fill-rule="evenodd" class="s0" d="m881.8 133.8l-26.2 0.5-13.4 0.3c-4.4 0.1-8.9 0-13.3 0.1h-0.9v-0.9l-0.1-22.4v-1h1l26.4 0.1c8.9 0 17.7 0.2 26.5 0.4h0.6v0.5c-0.1 3.8-0.2 7.6-0.3 11.3zm0 0l-0.3-11.3c-0.1-3.5-0.2-7-0.2-10.5-8.7 0.1-17.3 0.3-26 0.3l-25.5 0.1-0.1 20.5c4.1 0 8.2 0 12.2 0.1l13.2 0.2zm-0.5-21.8q0.2 0 0.5 0l-0.6-0.5q0 0.2 0.1 0.5zm-51.5 0.5v-1l-1 1zm-0.1 20.5q-0.4 0-0.9 0l0.9 0.9z"/>
			</g>
			<path id="&lt;Path&gt;" class="s0" d="m911.4 162h-53v-22.4h53z"/>
			<path id="&lt;Path&gt;" class="s0" d="m141.6 133.8h-53v-22.4h53z"/>
		</g>
		<g id="&lt;Group&gt;">
			<path id="&lt;Path&gt;" class="s0" d="m279.9 716.3h-194.4l-7.8-154.6h210z"/>
			<g id="&lt;Group&gt;">
				<path id="&lt;Compound Path&gt;" fill-rule="evenodd" class="s1" d="m100.7 578.8h164l-3 53.7h-157.5zm161.9 1.9h-159.9l3.2 49.9h154z"/>
				<path id="&lt;Compound Path&gt;" fill-rule="evenodd" class="s1" d="m104 645.8h154l-2.5 48.4h-148.4zm151.9 2h-149.9l2.8 44.6h144.9z"/>
				<path id="&lt;Compound Path&gt;" fill-rule="evenodd" class="s1" d="m166.1 598.5h29.8l-1.7 13h-26.4zm27.6 1.9h-25.5l1.2 9.1h23.1z"/>
				<path id="&lt;Compound Path&gt;" fill-rule="evenodd" class="s1" d="m166.1 663.5h29.8l-1.7 13h-26.4zm27.6 1.9h-25.5l1.2 9.1h23.1z"/>
			</g>
			<g id="&lt;Group&gt;">
				<path id="&lt;Path&gt;" class="s0" d="m246.1 716.3l2.3 16.9 4.8 33.8h9.3v-50.7z"/>
				<path id="&lt;Path&gt;" class="s1" d="m246.1 716.3l2.3 16.9h14.1v-16.9z"/>
			</g>
			<g id="&lt;Group&gt;">
				<path id="&lt;Path&gt;" class="s0" d="m119.3 716.3l-2.4 16.9-4.7 33.8h-9.3v-50.7z"/>
				<path id="&lt;Path&gt;" class="s1" d="m119.3 716.3l-2.4 16.9h-14v-16.9z"/>
			</g>
		</g>
		<g id="&lt;Group&gt;">
			<g id="&lt;Group&gt;">
				<path id="&lt;Path&gt;" class="s0" d="m306 261.1l-72.9 55.6-71.3-93.6 54.1-41.2 18.8-14.3 13.6 17.8z"/>
				<g id="&lt;Group&gt;">
					<path id="&lt;Path&gt;" class="s2" d="m180.9 233.4l59.4-45.3 1.8 2.4-59.4 45.3z"/>
				</g>
				<g id="&lt;Group&gt;">
					<path id="&lt;Path&gt;" class="s2" d="m185.5 239.5l59.4-45.3 1.8 2.4-59.3 45.3z"/>
				</g>
				<g id="&lt;Group&gt;">
					<path id="&lt;Path&gt;" class="s2" d="m190.2 245.5l59.3-45.2 1.9 2.4-59.4 45.2z"/>
				</g>
				<g id="&lt;Group&gt;">
					<path id="&lt;Path&gt;" class="s2" d="m194.8 251.6l59.3-45.3 1.9 2.4-59.4 45.3z"/>
				</g>
				<g id="&lt;Group&gt;">
					<path id="&lt;Path&gt;" class="s2" d="m199.4 257.7l59.4-45.3 1.8 2.4-59.4 45.3z"/>
				</g>
				<g id="&lt;Group&gt;">
					<path id="&lt;Path&gt;" class="s2" d="m204 263.7l59.4-45.2 1.8 2.4-59.4 45.2z"/>
				</g>
				<g id="&lt;Group&gt;">
					<path id="&lt;Path&gt;" class="s2" d="m208.6 269.8l59.4-45.3 1.8 2.4-59.3 45.3z"/>
				</g>
				<g id="&lt;Group&gt;">
					<path id="&lt;Path&gt;" class="s2" d="m213.3 275.8l59.3-45.2 1.9 2.4-59.4 45.2z"/>
				</g>
				<g id="&lt;Group&gt;">
					<path id="&lt;Path&gt;" class="s2" d="m217.9 281.9l59.4-45.2 1.8 2.4-59.4 45.2z"/>
				</g>
				<g id="&lt;Group&gt;">
					<path id="&lt;Path&gt;" class="s2" d="m222.5 288l59.4-45.3 1.8 2.4-59.4 45.3z"/>
				</g>
				<g id="&lt;Group&gt;">
					<path id="&lt;Path&gt;" class="s2" d="m227.1 294l59.4-45.2 1.8 2.4-59.3 45.2z"/>
				</g>
				<g id="&lt;Group&gt;">
					<path id="&lt;Path&gt;" class="s2" d="m231.8 300.1l59.3-45.3 1.9 2.4-59.4 45.3z"/>
				</g>
			</g>
			<g id="&lt;Group&gt;">
				<path id="&lt;Path&gt;" class="s0" d="m345.6 290.2l-90.8 12.3-15.8-116.6 67.4-9.1 26.4 19z"/>
				<path id="&lt;Path&gt;" class="s2" d="m306.4 176.8l26.4 19-23.4 3.2z"/>
				<g id="&lt;Group&gt;">
					<path id="&lt;Path&gt;" class="s2" d="m250.5 204.3l50.5-6.9 0.4 3-50.5 6.9z"/>
				</g>
				<g id="&lt;Group&gt;">
					<path id="&lt;Path&gt;" class="s2" d="m251.5 211.8l50.5-6.8 0.4 3-50.4 6.8z"/>
				</g>
				<g id="&lt;Group&gt;">
					<path id="&lt;Path&gt;" class="s2" d="m252.6 219.4l50.5-6.9 0.4 3-50.5 6.9z"/>
				</g>
				<g id="&lt;Group&gt;">
					<path id="&lt;Path&gt;" class="s2" d="m253.6 226.9l74-10 0.4 3-74 10z"/>
				</g>
				<g id="&lt;Group&gt;">
					<path id="&lt;Path&gt;" class="s2" d="m254.6 234.5l74-10.1 0.4 3-74 10.1z"/>
				</g>
				<g id="&lt;Group&gt;">
					<path id="&lt;Path&gt;" class="s2" d="m255.7 242l73.9-10 0.4 3-73.9 10z"/>
				</g>
				<g id="&lt;Group&gt;">
					<path id="&lt;Path&gt;" class="s2" d="m256.7 249.6l73.9-10 0.5 3-74 10z"/>
				</g>
				<g id="&lt;Group&gt;">
					<path id="&lt;Path&gt;" class="s2" d="m257.7 257.2l74-10.1 0.4 3-74 10.1z"/>
				</g>
				<g id="&lt;Group&gt;">
					<path id="&lt;Path&gt;" class="s2" d="m258.7 264.7l74-10 0.4 3-74 10z"/>
				</g>
				<g id="&lt;Group&gt;">
					<path id="&lt;Path&gt;" class="s2" d="m259.8 272.3l73.9-10.1 0.4 3-73.9 10.1z"/>
				</g>
				<g id="&lt;Group&gt;">
					<path id="&lt;Path&gt;" class="s2" d="m260.8 279.8l74-10 0.4 3-74 10z"/>
				</g>
				<g id="&lt;Group&gt;">
					<path id="&lt;Path&gt;" class="s2" d="m261.8 287.4l74-10.1 0.4 3-74 10.1z"/>
				</g>
			</g>
		</g>
		<g id="&lt;Group&gt;">
			<path id="&lt;Path&gt;" class="s0" d="m841.9 182c0 41.5-33.7 75.3-75.3 75.3-41.6 0-75.3-33.8-75.3-75.3 0-41.6 33.7-75.3 75.3-75.3 41.6 0 75.3 33.7 75.3 75.3z"/>
			<path id="&lt;Path&gt;" class="s2" d="m841.9 183.7c0 39.6-32.2 71.8-71.8 71.8-39.7 0-71.9-32.2-71.9-71.8 0-39.7 32.2-71.9 71.9-71.9 39.6 0 71.8 32.2 71.8 71.9z"/>
			<path id="&lt;Path&gt;" class="s3" d="m837.4 183.7c0 37.1-30.2 67.2-67.3 67.2-37.2 0-67.3-30.1-67.3-67.2 0-37.2 30.1-67.3 67.3-67.3 37.1 0 67.3 30.1 67.3 67.3z"/>
			<path id="&lt;Path&gt;" class="s4" d="m835.8 169.4c-30.6 18.5-81 49-109.1 65.7-7.9-6.7-14.3-15.1-18.4-24.7l93.1-86.3c17.3 9.1 30.2 25.6 34.4 45.3z"/>
			<path id="&lt;Path&gt;" class="s4" d="m837.3 186c-0.2 7.7-1.8 15-4.4 21.9l-84 39.7q-5.5-1.9-10.6-4.6c25.4-14.6 71.7-41.3 99-57z"/>
			<g id="&lt;Group&gt;">
				<path id="&lt;Path&gt;" class="s1" d="m770.7 131.4h-1.3v-10.2h1.3z"/>
				<path id="&lt;Path&gt;" class="s1" d="m743.4 138.8l-5.1-8.9 1.1-0.6 5.1 8.8z"/>
				<path id="&lt;Path&gt;" class="s1" d="m724.5 158.1l-8.8-5.1 0.6-1.1 8.9 5.1z"/>
				<path id="&lt;Path&gt;" class="s1" d="m717.9 184.3h-10.2v-1.3h10.2z"/>
				<path id="&lt;Path&gt;" class="s1" d="m716.3 215.4l-0.6-1.1 8.8-5.1 0.7 1.1z"/>
				<path id="&lt;Path&gt;" class="s1" d="m739.4 238l-1.1-0.6 5.1-8.9 1.1 0.7z"/>
				<path id="&lt;Path&gt;" class="s1" d="m770.7 246.1h-1.3v-10.2h1.3z"/>
				<path id="&lt;Path&gt;" class="s1" d="m800.7 238l-5.1-8.8 1.1-0.7 5.1 8.9z"/>
				<path id="&lt;Path&gt;" class="s1" d="m823.8 215.4l-8.8-5.1 0.6-1.1 8.8 5.1z"/>
				<path id="&lt;Path&gt;" class="s1" d="m832.5 184.3h-10.2v-1.3h10.2z"/>
				<path id="&lt;Path&gt;" class="s1" d="m815.6 158.1l-0.6-1.1 8.8-5.1 0.6 1.1z"/>
				<path id="&lt;Path&gt;" class="s1" d="m796.7 138.8l-1.1-0.7 5.1-8.8 1.1 0.6z"/>
			</g>
			<g id="&lt;Group&gt;">
				<path id="&lt;Path&gt;" class="s1" d="m771 125.9l2.3 62.3-6.4-0.1 2.4-62.3z"/>
				<path id="&lt;Path&gt;" class="s5" d="m809.9 161.9l-42 26.8-3-5.6 44.1-22.7z"/>
				<path id="&lt;Path&gt;" class="s1" d="m772.2 183.7c0 1.2-0.9 2.1-2.1 2.1-1.2 0-2.2-0.9-2.2-2.1 0-1.2 1-2.2 2.2-2.2 1.2 0 2.1 1 2.1 2.2z"/>
			</g>
		</g>
	</g>
	<g id="Shadows">
		<g id="&lt;Group&gt;">
			<path id="&lt;Path&gt;" class="s0" d="m826.1 868.9c0 22.5-146 40.7-326.1 40.7-180.1 0-326.1-18.2-326.1-40.7 0-22.5 146-40.8 326.1-40.8 180.1 0 326.1 18.3 326.1 40.8z"/>
		</g>
	</g>
	<g id="Floor">
		<g id="&lt;Group&gt;">
			<path id="&lt;Path&gt;" class="s6" d="m81.6 767.6l104.6-0.5 104.6-0.2 209.2-0.3 209.2 0.3 104.6 0.2 104.6 0.5-104.6 0.5-104.6 0.1-209.2 0.4-209.2-0.4-104.6-0.1z"/>
		</g>
	</g>
	<g id="Plant">
		<g id="&lt;Group&gt;">
			<g id="&lt;Group&gt;">
				<g id="&lt;Group&gt;">
					<path id="&lt;Path&gt;" class="s7" d="m829.6 459.1c0 0-43.3-6.1-33.2-58.4 0 0 48.5 10.9 33.2 58.4z"/>
					<path id="&lt;Path&gt;" class="s8" d="m829.6 459.1c0 0-43.3-6.1-33.2-58.4 0 0 48.5 10.9 33.2 58.4z"/>
					<path id="&lt;Path&gt;" class="s6" d="m827.5 448.2q-1.3-4-3-7.8-0.1-0.5-0.1-1-0.1-1.1-0.2-2.2-0.2-2.3-0.3-4.6c-0.2-3.2-0.4-6.3-0.4-9.4 0-0.2-0.3-0.2-0.3 0 0 3.1-0.1 6.2 0 9.4q0.1 2.3 0.3 4.7 0 0.5 0.1 1c-2.4-5.2-5.4-10.2-8.7-14.9q-2.2-3.1-4.8-6c-1.7-1.9-3.5-3.8-5.3-5.8-0.1-0.1-0.3 0.1-0.1 0.2 3.1 3.3 5.8 7.3 8.3 11.1q2 3 3.8 6.1-0.2-0.1-0.4-0.1-0.8-0.4-1.6-0.7-1.8-0.6-3.5-1.3-3.5-1.3-7-2.6c-0.1 0-0.2 0.2-0.1 0.3q3.5 1.3 6.9 2.8 1.6 0.8 3.3 1.5 0.9 0.3 1.7 0.7c0.4 0.1 0.8 0.3 1.2 0.4 0.8 1.5 1.7 3.1 2.5 4.7 2 4.1 3.8 8.3 5.3 12.5q0.2 0.5 0.3 0.9c-1.1-0.7-2.4-1.2-3.5-1.7q-2.3-1-4.5-2c-3.1-1.4-6.1-2.9-9-4.5-0.1-0.1-0.3 0.1-0.1 0.2 3 1.7 5.9 3.4 8.9 5q2.2 1.2 4.5 2.3c1.2 0.6 2.6 1.5 4 1.7 1.4 4 2.5 8 2.9 12.3 0.5 5.9 0.4 11.8 0.6 17.8 0 0.1 0.1 0.1 0.1 0 0.4-5.4 0.7-10.8 0.7-16.2 0-5.2-1-9.9-2.5-14.8z"/>
					<path id="&lt;Path&gt;" class="s6" d="m820.8 417.4c-0.4 3.1-0.7 6.2-0.5 9.2 0.1 0.1 0.2 0.1 0.2 0 0.2-3 0.2-6.1 0.5-9.1 0.1-0.2-0.2-0.2-0.2-0.1z"/>
					<path id="&lt;Path&gt;" class="s6" d="m808.4 420c-1.9-0.8-3.8-1.5-5.6-2.7-0.1-0.1-0.3 0.1-0.1 0.2 1.7 1.1 3.6 2.2 5.6 2.7 0.1 0 0.2-0.1 0.1-0.2z"/>
				</g>
				<path id="&lt;Path&gt;" class="s6" d="m831 542.2c0-4.8-0.1-9.6-0.2-14.4 0-15.9-0.2-31.8-0.5-47.7q-0.3-18.9-0.8-37.9-0.1-0.1-0.2-0.1 0-5.2 0-10.4c0-0.1-0.1-0.1-0.2-0.1-0.1 0-0.2 0-0.2 0.1q-0.1 5.2-0.1 10.4-0.1 0-0.1 0.1c-0.6 22.5-1.2 45-1.3 67.5q-0.1 6.8-0.1 13.7-0.2 22-0.1 43.9-0.1 3.5-0.1 7c0 13.4 0.1 26.9 0.2 40.3 0 0.7 0.8 1 1.6 1.1 1 0 2-0.4 2-1.2 0-14.8 0.1-29.6 0.1-44.4 0.1-9.3 0.1-18.6 0-27.9z"/>
				<g id="&lt;Group&gt;">
					<path id="&lt;Path&gt;" class="s7" d="m812.9 527.6c0 0-20.8-15.4-40.6-5-19.8 10.5-22.9 50.7-22.9 50.7 0 0 29.1 4.1 47.4-13.3 17.6-16.8 16.1-32.4 16.1-32.4z"/>
					<path id="&lt;Path&gt;" class="s6" d="m818.6 528.6c-3.8-1.6-8-2-12.1-1.6-0.8-0.2-1.7-0.2-2.5-0.2q-1.5-0.1-3-0.3c-2-0.1-4-0.2-6-0.4-4.2-0.3-8.3-0.6-12.4-1-0.1 0-0.2 0.3 0 0.3 4 0.5 8.1 1.1 12.2 1.5 2.1 0.2 4.2 0.4 6.3 0.6q0.7 0 1.5 0.1-1 0.2-1.9 0.5c-3.2 0.9-6.4 2.2-9.4 3.8-1.7 0.3-3.3 0.8-4.9 1.2q-3.9 0.9-7.7 1.9c-5.1 1.3-10.1 2.8-15.1 4.3-0.2 0-0.1 0.3 0.1 0.2 5-1.2 10-2.3 15.1-3.5q3.6-0.9 7.3-1.8 0.9-0.2 1.9-0.4c-5.6 3.4-10.6 7.9-14.8 12.9-4.2 5-7.5 10.4-10.3 16.2-0.1 0.2 0.1 0.3 0.2 0.2 3.4-6 7.6-11.5 12.5-16.4q-0.2 0.4-0.3 0.8-0.6 1.9-1.1 3.7-1.2 3.7-2.3 7.4c-0.1 0.2 0.2 0.2 0.2 0.1q1.3-3.6 2.6-7.2 0.6-1.8 1.2-3.5 0.3-1 0.6-1.9 0.1-0.2 0.2-0.5c2.4-2.3 4.8-4.4 7.4-6.3 3.5-2.6 7.2-4.7 11.1-6.4q-0.1 0.6-0.2 1.1-0.3 1.4-0.6 2.8-0.6 3-1.2 6c-0.8 4-1.3 8.1-2 12.1-0.1 0.2 0.2 0.3 0.2 0.1 1-4.1 2.2-8.1 3.1-12.1q0.7-3.1 1.3-6.1 0.3-1.5 0.6-2.9c0.1-0.5 0.2-1 0.3-1.6q0.5-0.2 1.1-0.4c5.5-2.1 11.5-3.5 17.4-2.4 5.5 1 10.3 4.8 12.5 10 0.2 0.5 0.9 0.2 0.8-0.3-1.1-5-5.3-8.7-9.9-10.6z"/>
					<path id="&lt;Path&gt;" class="s6" d="m786.7 545.8q-0.9 3.9-1.8 7.9c-0.5 2.5-1.2 5.1-1.4 7.7 0 0.1 0.1 0.1 0.1 0 0.9-2.5 1.3-5.2 1.8-7.7q0.8-4 1.5-7.9c0.1-0.1-0.2-0.2-0.2 0z"/>
					<path id="&lt;Path&gt;" class="s6" d="m766.5 552.5c-2.6 1.3-5.2 2.9-8 4-0.1 0 0 0.3 0.1 0.2 2.7-1.3 5.5-2.5 8-4.1 0.1-0.1 0-0.2-0.1-0.1z"/>
				</g>
				<g id="&lt;Group&gt;">
					<path id="&lt;Path&gt;" class="s7" d="m817.6 499.3c0 0-25.5 1.6-37.3-15.2-11.9-16.8-9.2-40.8-9.2-40.8 0 0 26.8 3.2 37.4 15.3 10.6 12.1 9.1 40.7 9.1 40.7z"/>
					<path id="&lt;Path&gt;" class="s6" d="m829.6 524.4c-0.9-2.7-2-5.4-3-8.1q-1.5-3.9-3.2-7.6c-2.3-5.2-4.8-10.2-7.6-15-1.8-3.1-3.8-6.1-5.8-9.1 0-0.5-0.1-0.9-0.1-1.4q-0.2-1.1-0.4-2.3-0.4-2.4-0.8-4.9c-0.6-3.5-1.3-7-1.9-10.5 0-0.2-0.3-0.2-0.2 0 0.5 3.5 0.8 7 1.3 10.5q0.4 2.5 0.7 5.1 0.2 0.9 0.3 1.8-5.8-8.5-12.6-16.3-0.9-1.1-1.8-2.1-0.2-0.3-0.3-0.6-0.3-0.7-0.5-1.4-0.6-1.5-1.1-3.1-1.1-3-1.9-6c-0.1-0.2-0.3-0.1-0.3 0q0.8 3.2 1.7 6.3 0.4 1.5 1 3 0 0.2 0.1 0.4c-3.2-3.5-6.6-6.9-10.1-10.3-0.1-0.1-0.3 0.1-0.1 0.2 6.6 6.8 12.5 14.3 18 22.1q-0.9-0.3-1.9-0.5c-1.9-0.4-3.9-0.6-5.9-0.9-4.1-0.5-8.3-1-12.4-1.7-0.2 0-0.2 0.2-0.1 0.3 4 0.7 7.9 1.6 11.8 2.5 1.9 0.5 3.7 0.8 5.6 1.2 1.5 0.3 3 0.8 4.4 1.3q0.7 0.8 1.3 1.7 2.8 4.1 5.4 8.3-1.3-0.2-2.6-0.5-2.9-0.6-5.9-1c-3.9-0.7-7.8-1.4-11.6-2.2-0.2-0.1-0.3 0.2-0.1 0.2 3.9 0.9 7.8 2 11.6 3q2.8 0.8 5.7 1.4 1.4 0.3 2.8 0.6c0.4 0.1 0.8 0.2 1.1 0.2q5.6 9.1 10.5 18.5 2.1 4.2 4.1 8.4c1.4 2.9 2.5 5.9 3.8 8.8 0.2 0.6 1.2 0.3 1-0.3z"/>
					<path id="&lt;Path&gt;" class="s6" d="m803.5 465.8q-0.7-3.6-1.5-7.2c-0.1-0.2-0.3-0.1-0.3 0q0.7 3.6 1.4 7.2c0.4 2.4 0.8 4.8 1.4 7.2 0 0 0.1 0 0.1-0.1-0.1-2.3-0.6-4.7-1.1-7.1z"/>
					<path id="&lt;Path&gt;" class="s6" d="m788.6 465.1c-1.2-0.6-2.4-1-3.6-1.5q-1-0.4-2-0.8-0.5-0.2-1-0.4c-0.3-0.1-0.7-0.2-1-0.4-0.2-0.2-0.3 0.2-0.2 0.2 0.4 0.1 0.8 0.3 1.1 0.4q0.5 0.3 1 0.5 0.9 0.4 1.9 0.8c1.2 0.5 2.4 1.1 3.7 1.5 0.2 0 0.3-0.2 0.1-0.3z"/>
				</g>
				<g id="&lt;Group&gt;">
					<path id="&lt;Path&gt;" class="s7" d="m843.7 479.2c0 0 15.4-28.8 38.9-33.2 23.4-4.5 37.8 19.6 37.8 19.6 0 0-17.1 21.9-38.6 25.7-21.6 3.8-38.1-12.1-38.1-12.1z"/>
					<path id="&lt;Path&gt;" class="s6" d="m898.3 458.9c-6.1-0.9-12.3-0.8-18.4 0.2q0.5-0.3 1-0.6 2.7-1.3 5.3-2.7c3.6-1.8 7.2-3.8 11-5.3 0.1-0.1 0-0.4-0.1-0.3-3.7 1.7-7.5 3.2-11.2 4.9q-2.8 1.2-5.4 2.6c-1.2 0.7-2.5 1.2-3.6 2-5.2 1-10.2 2.7-14.9 4.9q1.4-1.6 2.9-3.2c2.2-2.4 4.3-4.9 6.7-7.1 0.2-0.1 0-0.3-0.1-0.1-2.5 2.2-5.1 4.3-7.5 6.6q-1.7 1.7-3.3 3.5-0.8 0.9-1.6 1.8c-10.2 5.6-18.9 13.9-24.6 24-3.3 5.8-5.5 12-6.9 18.5 0 0.1 0.2 0.2 0.3 0.1 3.2-10.9 9.3-21.1 17.2-29.2 8.7-8.8 19.5-15.1 31.5-18.2 7.1-1.8 14.4-2.4 21.7-2 0.3 0.1 0.3-0.4 0-0.4z"/>
					<path id="&lt;Path&gt;" class="s8" d="m920.4 465.6c0 0-17.1 21.9-38.7 25.7-16.4 2.9-29.9-5.6-35.4-9.9l-1.2-1.9c0 0 11.2-9.4 32.2-14.8 21-5.4 43.1 0.9 43.1 0.9z"/>
					<path id="&lt;Path&gt;" class="s6" d="m884.7 448.6c-1.8 1.1-3.6 2.2-5.2 3.4-1.7 1.3-3.2 2.7-4.6 4.2-0.1 0.1 0.1 0.3 0.2 0.2 1.6-1.4 3.2-2.7 4.8-4 1.6-1.3 3.2-2.5 4.9-3.6 0.2-0.1 0-0.3-0.1-0.2z"/>
					<path id="&lt;Path&gt;" class="s6" d="m897.5 453.5c-0.8 0.3-1.7 0.7-2.6 1q-1.3 0.6-2.6 1.1c-0.2 0.1-0.1 0.4 0.1 0.3q1.3-0.5 2.6-1.1c0.9-0.3 1.7-0.7 2.6-1.1 0.2 0 0.1-0.3-0.1-0.2z"/>
				</g>
				<g id="&lt;Group&gt;">
					<path id="&lt;Path&gt;" class="s7" d="m840.6 515.5c0 0 4.1 28.6 25.6 38.5 21.5 10 47.7 0 47.7 0 0 0-10.3-61.8-73.3-38.5z"/>
					<path id="&lt;Path&gt;" class="s6" d="m899.1 535.5c-2-0.3-4-0.6-5.9-1q-1.5-0.2-2.9-0.5-0.7-0.2-1.5-0.3-0.9-0.8-1.7-1.6c-4.1-3.6-8.5-6.8-13.2-9.5q-3.8-2.3-7.9-4.1 0.2 0 0.4 0 3.6 0.2 7.1 0.3c4.7 0.3 9.4 0.4 14.2 0.7 0.1 0 0.1-0.3-0.1-0.3-4.7-0.3-9.4-0.8-14.1-1.3q-3.4-0.2-6.9-0.6-1.8-0.1-3.5-0.3-0.5 0-0.9-0.1-1.9-0.7-3.7-1.2c-5.9-1.9-12.2-2.6-18.2-1-5.4 1.3-10.8 4.9-12.2 10.6-0.1 0.2 0.2 0.3 0.3 0.1 2-4.8 7.3-7.1 12.1-8.1 3.2-0.7 6.5-0.7 9.7-0.2 0.1 1.4 0.7 2.9 1.1 4.3q0.9 3 1.8 6c1.2 4 2.5 8 3.7 12 0.1 0.2 0.3 0.1 0.3 0-1-4.1-1.9-8.1-2.8-12.1q-0.7-3-1.5-5.9c-0.3-1.3-0.6-2.8-1.1-4.1q2.9 0.5 5.6 1.3 5 1.5 9.7 3.6c0.4 2 0.8 4 1.3 6.1 0.6 2.5 1.2 5 2 7.4 0.1 0.2 0.3 0.1 0.3 0q-0.1-0.3-0.1-0.5 0 0 0 0-0.8-3.5-1.5-7c-0.4-1.9-0.8-3.8-1.2-5.7q4 1.8 7.8 4c0.1 0.6 0.2 1.2 0.3 1.7q0.3 1.5 0.5 2.9 0.6 3.4 1.4 6.6c1 4.2 2.2 8.4 3.7 12.5q-0.1 0 0 0.1 0.1 0.1 0.1 0.2c0.1 0.1 0.3-0.1 0.2-0.2-1-4.2-2.1-8.4-3-12.7q-0.7-3.1-1.4-6.3-0.3-1.6-0.6-3.2-0.1-0.5-0.1-1 4.3 2.6 8.3 5.6c4.6 3.5 9 7.4 12.8 11.7 0.2 0.2 0.5-0.1 0.3-0.3-1.6-2.1-3.2-4.2-5.1-6.2q-1.6-1.7-3.3-3.4 0.2 0 0.3 0.1 1.5 0.2 3.1 0.4c2 0.3 3.9 0.5 5.9 0.7 0.2 0 0.3-0.2 0.1-0.2z"/>
					<path id="&lt;Path&gt;" class="s6" d="m884 545.1q0 0 0 0-0.1-0.3-0.1-0.7c-0.1-0.3-0.2-0.6-0.3-0.9q0 0 0 0-0.6-2.9-1.2-5.8c0-0.1-0.2-0.1-0.2 0 0.1 2.6 0.7 5.1 1.7 7.5 0 0.1 0.1 0.1 0.1 0q0 0 0-0.1z"/>
					<path id="&lt;Path&gt;" class="s6" d="m866 544.7q0-0.1-0.1-0.1-0.9-3.8-1.7-7.6-0.4-2-0.8-4.1-0.2-1-0.4-2.1c-0.1-0.7-0.2-1.3-0.5-1.9 0-0.1-0.2-0.1-0.2 0-0.2 1.2 0.3 2.7 0.5 3.9q0.4 2.1 0.8 4.2 1 4.2 2.2 8.4c0 0.1 0.3 0.1 0.3-0.1q-0.1-0.3-0.1-0.6z"/>
					<path id="&lt;Path&gt;" class="s6" d="m897.1 527.2c-3.9-0.5-7.8-1.1-11.7-1.6-0.2 0-0.3 0.3-0.1 0.3 3.9 0.6 7.9 1.1 11.8 1.6 0.1 0 0.2-0.2 0-0.3z"/>
				</g>
				<g id="&lt;Group&gt;">
					<path id="&lt;Path&gt;" class="s7" d="m829.6 448.5c0 0-13.1-57.7 48.8-81.1 0 0 17.2 76-48.8 81.1z"/>
					<path id="&lt;Path&gt;" class="s6" d="m843 415.7q0.3-0.2 0.7-0.4 1.7-0.9 3.5-1.9l7.1-4c4.8-2.7 9.4-5.4 14.2-8 0.2-0.1 0-0.3-0.1-0.2-4.8 2.5-9.7 5-14.5 7.5l-7.1 3.8q-1.4 0.7-2.9 1.5c2.1-3.9 4.3-7.8 6.7-11.5 3.3-4.9 6.8-9.6 10.5-14.2 0.2-0.2-0.1-0.5-0.3-0.3-5.5 5.2-10.2 11.2-14.3 17.6q0-0.3 0-0.6 0.1-2.2 0.1-4.3c0.1-2.9-0.1-5.7 0-8.5 0-0.2-0.2-0.2-0.2 0-0.2 2.8-0.5 5.5-0.6 8.3q-0.2 2.1-0.2 4.2c-0.1 0.7-0.1 1.6-0.1 2.4q-1.9 3-3.7 6.2c-2 3.7-3.9 7.6-5.5 11.6q-0.1-2.2-0.2-4.3c-0.2-3.2-0.6-6.3-0.7-9.5 0-0.2-0.3-0.2-0.3 0 0.1 3.2-0.1 6.3 0 9.5q0.1 2.4 0.2 4.7 0.1 0.9 0.1 1.8c-1.9 5.2-3.5 10.5-4.6 15.8-1.3 5.8-1.7 11.6-2.4 17.5 0 0 0.1 0 0.1 0 0.6-5.3 1.9-10.5 3.3-15.6q1.1-4.1 2.4-8.1c2.6-1.2 5.1-2.7 7.6-4.1q3.9-2.1 7.8-4.3c5.1-2.8 10.3-5.7 15.6-8.2 0.2-0.1 0-0.3-0.1-0.2-5.4 2.4-10.9 4.8-16.2 7.4q-3.9 2-7.8 4.2c-2.1 1.2-4.3 2.5-6.4 3.8q0.9-2.6 1.9-5.3 2.8-7.3 6.4-14.3z"/>
					<path id="&lt;Path&gt;" class="s6" d="m837.8 402.6c0-0.2-0.3-0.2-0.3 0 0.2 3.3 0.3 6.5 0.7 9.8 0 0.2 0.3 0.2 0.3 0-0.1-3.3-0.5-6.5-0.7-9.8z"/>
					<path id="&lt;Path&gt;" class="s6" d="m867.5 413.6c-3.9 1.5-7.8 3-11.7 4.6-0.1 0.1 0 0.3 0.1 0.2 3.9-1.5 7.8-3 11.7-4.6 0.1 0 0-0.3-0.1-0.2z"/>
					<path id="&lt;Path&gt;" class="s6" d="m873.4 387c-3.8 1.7-7.5 3.7-11.1 5.9-0.1 0.1 0 0.4 0.2 0.3 3.6-2.1 7.3-4.2 11-6 0.2-0.1 0-0.3-0.1-0.2z"/>
				</g>
			</g>
			<g id="&lt;Group&gt;">
				<path id="&lt;Path&gt;" class="s9" d="m872.4 667.4h-89.3v-94.2h89.3z"/>
				<g id="&lt;Group&gt;">
					<path id="&lt;Path&gt;" class="s6" d="m781.5 767.9h-4.6v-161.4h4.6z"/>
					<path id="&lt;Path&gt;" class="s6" d="m878.1 767.9h-4.6v-161.4h4.6z"/>
					<path id="&lt;Path&gt;" class="s6" d="m832.2 767.9h-4.6v-161.4h4.6z"/>
					<path id="&lt;Path&gt;" class="s6" d="m875.8 674.4h-96.6v-13h96.6z"/>
				</g>
			</g>
		</g>
	</g>
	<g id="Cloud">
		<g id="&lt;Group&gt;">
			<g id="&lt;Group&gt;">
				<g id="&lt;Group&gt;">
					<g id="&lt;Group&gt;">
						<path id="&lt;Path&gt;" class="s7" d="m207.5 757c0 41.6 32.1 75.6 72.9 78.7v0.2h446.5c51.2 0 92.6-41.5 92.6-92.7 0-48.2-36.8-87.9-83.9-92.2-2.7-83.9-71.5-151.1-156-151.1-67.3 0-124.7 42.6-146.6 102.2-12.5-6.3-26.5-9.8-41.4-9.8-49.3 0-89.6 38.5-92.5 87q-6.2-1.1-12.8-1.1c-43.5 0-78.8 35.3-78.8 78.8z"/>
					</g>
				</g>
				<g id="&lt;Group&gt;" style="opacity: .1">
					<g id="&lt;Group&gt;">
						<path id="&lt;Path&gt;" class="s10" d="m207.5 757c0 41.6 32.1 75.6 72.9 78.7v0.2h446.5c51.2 0 92.6-41.5 92.6-92.7 0-48.2-36.8-87.9-83.9-92.2-2.7-83.9-71.5-151.1-156-151.1-67.3 0-124.7 42.6-146.6 102.2-12.5-6.3-26.5-9.8-41.4-9.8-49.3 0-89.6 38.5-92.5 87q-6.2-1.1-12.8-1.1c-43.5 0-78.8 35.3-78.8 78.8z"/>
					</g>
				</g>
			</g>
			<g id="&lt;Group&gt;">
				<g id="&lt;Group&gt;">
					<path id="&lt;Path&gt;" class="s7" d="m180.5 757c0 41.6 32.1 75.6 72.9 78.7v0.2h446.5c51.2 0 92.6-41.5 92.6-92.7 0-48.2-36.8-87.9-84-92.2-2.6-83.9-71.4-151.1-155.9-151.1-67.3 0-124.7 42.6-146.6 102.2-12.5-6.3-26.5-9.8-41.4-9.8-49.3 0-89.6 38.5-92.5 87q-6.2-1.1-12.8-1.1c-43.5 0-78.8 35.3-78.8 78.8z"/>
				</g>
			</g>
			<g id="&lt;Group&gt;">
				<g id="&lt;Group&gt;">
					<path id="&lt;Path&gt;" class="s3" d="m540.2 500.4v207.8h-80.4v-177.7c22.8-16.9 50.4-27.8 80.4-30.1z"/>
					<path id="&lt;Path&gt;" class="s3" d="m581.6 708.2h-163.2l81.6 101.4z"/>
				</g>
			</g>
		</g>
	</g>
	<g id="Files">
		<g id="&lt;Group&gt;">
			<g id="&lt;Group&gt;">
				<g id="&lt;Group&gt;">
					<g id="&lt;Group&gt;">
						<g id="&lt;Group&gt;">
							<path id="&lt;Path&gt;" class="s7" d="m422.1 265h-152v-98.2h152z"/>
							<path id="&lt;Path&gt;" class="s7" d="m318 156.6h-47.9v10.2h50.6z"/>
						</g>
						<g id="&lt;Group&gt;" style="opacity: .1">
							<path id="&lt;Path&gt;" class="s10" d="m422.1 265h-152v-98.2h152z"/>
							<path id="&lt;Path&gt;" class="s10" d="m318 156.6h-47.9v10.2h50.6z"/>
						</g>
					</g>
				</g>
				<g id="&lt;Group&gt;">
					<g id="&lt;Group&gt;">
						<path id="&lt;Path&gt;" class="s7" d="m379.3 220.2h-98.9l0.1-126.9h73.4l25.4 24.2z"/>
						<path id="&lt;Path&gt;" class="s11" d="m379.3 220.2h-98.9l0.1-126.9h73.4l25.4 24.2z"/>
						<path id="&lt;Path&gt;" class="s7" d="m353.9 93.3l25.4 24.2h-25.4z"/>
						<path id="&lt;Path&gt;" class="s12" d="m353.9 93.3l25.4 24.2h-25.4z"/>
						<g id="&lt;Group&gt;">
							<g id="&lt;Group&gt;">
								<path id="&lt;Path&gt;" class="s3" d="m290.1 114.6h55v3.3l-55-0.1z"/>
							</g>
							<g id="&lt;Group&gt;">
								<path id="&lt;Path&gt;" class="s3" d="m290.1 122.8h55v3.3h-55z"/>
							</g>
							<g id="&lt;Group&gt;">
								<path id="&lt;Path&gt;" class="s3" d="m290.1 131h55v3.3h-55z"/>
							</g>
							<g id="&lt;Group&gt;">
								<path id="&lt;Path&gt;" class="s3" d="m290.1 139.2l80.5 0.1v3.2h-80.5z"/>
							</g>
							<g id="&lt;Group&gt;">
								<path id="&lt;Path&gt;" class="s3" d="m290.1 147.5h80.5v3.3l-80.5-0.1z"/>
							</g>
							<g id="&lt;Group&gt;">
								<path id="&lt;Path&gt;" class="s3" d="m290.1 155.7h80.5v3.3l-80.5-0.1z"/>
							</g>
							<g id="&lt;Group&gt;">
								<path id="&lt;Path&gt;" class="s3" d="m290.1 163.9l80.5 0.1v3.2h-80.5z"/>
							</g>
							<g id="&lt;Group&gt;">
								<path id="&lt;Path&gt;" class="s3" d="m290.1 172.1l80.5 0.1v3.2h-80.5z"/>
							</g>
							<g id="&lt;Group&gt;">
								<path id="&lt;Path&gt;" class="s3" d="m290.1 180.4h80.5v3.3l-80.5-0.1z"/>
							</g>
							<g id="&lt;Group&gt;">
								<path id="&lt;Path&gt;" class="s3" d="m290.1 188.6h80.5v3.3l-80.5-0.1z"/>
							</g>
							<g id="&lt;Group&gt;">
								<path id="&lt;Path&gt;" class="s3" d="m290.1 196.8h80.5v3.3h-80.5z"/>
							</g>
							<g id="&lt;Group&gt;">
								<path id="&lt;Path&gt;" class="s3" d="m290.1 205l80.5 0.1v3.2h-80.5z"/>
							</g>
						</g>
					</g>
				</g>
				<g id="&lt;Group&gt;">
					<g id="&lt;Group&gt;">
						<path id="&lt;Path&gt;" class="s0" d="m356 240.5l111-36.5-24.5-74.3-111 36.6z"/>
						<path id="&lt;Path&gt;" class="s3" d="m359.1 234.4l101.8-33.6-21.5-64.9-101.8 33.5z"/>
						<path id="&lt;Path&gt;" class="s2" d="m353.5 186.6c2 6.1 8.6 9.4 14.7 7.4 6.2-2 9.5-8.6 7.5-14.7-2-6.1-8.6-9.4-14.7-7.4-6.2 2-9.5 8.6-7.5 14.7z"/>
						<path id="&lt;Path&gt;" class="s2" d="m390.7 224.1l70.2-23.1-50.8-36z"/>
						<path id="&lt;Path&gt;" class="s0" d="m363.2 233.1l57.9-19-39.1-21.5z"/>
					</g>
				</g>
				<g id="&lt;Group&gt;">
					<g id="&lt;Group&gt;">
						<g id="&lt;Group&gt;">
							<path id="&lt;Path&gt;" class="s7" d="m421.7 265h-152l-10.4-90.1h152z"/>
							<path id="&lt;Path&gt;" class="s7" d="m306.1 165.6h-47.9l1.1 9.3h50.6z"/>
						</g>
					</g>
					<g id="&lt;Group&gt;">
						<g id="&lt;Group&gt;">
							<g id="&lt;Group&gt;">
								<path id="&lt;Path&gt;" class="s3" d="m296.9 227.8c0 5.9 4.6 10.7 10.3 11.1h62.7c7.2 0 13.1-5.8 13.1-13 0-6.8-5.2-12.4-11.8-13-0.4-11.8-10.1-21.2-22-21.2-9.4 0-17.5 6-20.6 14.4-1.7-0.9-3.7-1.4-5.8-1.4-6.9 0-12.6 5.4-13 12.2q-0.9-0.1-1.8-0.1c-6.1 0-11.1 4.9-11.1 11z"/>
							</g>
						</g>
						<g id="&lt;Group&gt;">
							<g id="&lt;Group&gt;">
								<path id="&lt;Path&gt;" class="s7" d="m347.5 191.8v29.2h-11.3v-25c3.2-2.4 7.1-3.9 11.3-4.2z"/>
								<path id="&lt;Path&gt;" class="s7" d="m353.3 221h-22.9l11.5 14.2z"/>
							</g>
						</g>
					</g>
				</g>
			</g>
			<g id="&lt;Group&gt;">
				<g id="&lt;Group&gt;">
					<path id="&lt;Path&gt;" class="s13" d="m320.4 271c0 0 0 0.7 0.2 2"/>
					<path id="&lt;Path&gt;" class="s14" d="m321.3 277.1c3 14.5 14.2 50.3 54.5 50.6"/>
					<path id="&lt;Path&gt;" class="s13" d="m377.9 327.7q1 0 2-0.1"/>
					<g id="&lt;Group&gt;">
						<path id="&lt;Path&gt;" class="s6" d="m368.2 333.9l-0.8-1.8 12.3-4.8-12.5-4.2 0.7-1.9 17.6 6z"/>
					</g>
				</g>
			</g>
		</g>
	</g>
	<g id="Character">
		<g id="&lt;Group&gt;">
			<g id="&lt;Group&gt;">
				<g id="&lt;Group&gt;">
					<g id="&lt;Group&gt;">
						<path id="&lt;Path&gt;" class="s15" d="m243.1 590.3c5.5 2.1 168.7 4.6 174.9 0.9 0.7-0.4 2.1-35.6 2.1-35.6 29.3-60.1 57.9-114.3 57.9-114.3l-114.6-4.5-46.6 98.6c0 0-65 30.4-67.5 32.2-6.3 4.8-11.7 20.7-6.2 22.7z"/>
						<path id="&lt;Path&gt;" class="s0" d="m243.1 590.3c5.5 2.1 168.7 4.6 174.9 0.9 0.7-0.4 2.1-35.6 2.1-35.6 3.6-7.4 7.3-14.8 10.8-21.9l-104.4-18.9-9.7 20.6c0 0-65 30.4-67.5 32.2-6.3 4.8-11.7 20.7-6.2 22.7z"/>
						<g id="&lt;Group&gt;">
							<path id="&lt;Path&gt;" class="s5" d="m241.6 591.5c5.7 2 169.8 4.9 176.1 1.1 2.4-1.5 3.6-13 5-41.9l-104.6-17.9c0 0-63.9 30.4-70.4 35.3-6.4 5-11.8 21.4-6.1 23.4z"/>
							<g id="&lt;Group&gt;">
								<g id="&lt;Group&gt;">
									<path id="&lt;Path&gt;" class="s6" d="m244.1 585c27.5-0.2 138.5 1.6 165.7 3.5 0.2 0 0.2 0.2 0 0.2-27.3 0.8-138.3-1.9-165.7-3.3-0.6 0-0.6-0.4 0-0.4z"/>
									<path id="&lt;Path&gt;" class="s6" d="m258.4 562.4c6.5-0.1 12.8 3.1 16.3 7 3.4 3.8 6.2 9.1 5.9 14.8 0 0.2-0.3 0.2-0.3 0-1.4-10.8-11-20.4-21.9-21.4-0.3-0.1-0.3-0.4 0-0.4z"/>
									<path id="&lt;Path&gt;" class="s6" d="m306.8 538.7c11 0.1 23.7 4.2 30.4 13.3 0.2 0.3-0.3 0.7-0.6 0.5-9.8-5.3-19.2-9.3-30-12.4-0.8-0.2-0.6-1.4 0.2-1.4z"/>
									<path id="&lt;Path&gt;" class="s6" d="m298.2 541.9c11.1 0 23.7 4.1 30.4 13.3 0.3 0.3-0.2 0.7-0.5 0.5-9.9-5.3-19.3-9.3-30.1-12.5-0.7-0.2-0.5-1.3 0.2-1.3z"/>
									<path id="&lt;Path&gt;" class="s6" d="m289.7 545.1c11 0 23.7 4.1 30.4 13.2 0.2 0.4-0.3 0.7-0.6 0.6-9.9-5.3-19.3-9.3-30-12.5-0.8-0.2-0.6-1.4 0.2-1.3z"/>
									<path id="&lt;Path&gt;" class="s6" d="m281.1 548.2c11 0.1 23.7 4.2 30.4 13.3 0.3 0.3-0.2 0.7-0.6 0.5-9.8-5.3-19.2-9.3-30-12.4-0.7-0.3-0.6-1.4 0.2-1.4z"/>
									<path id="&lt;Path&gt;" class="s3" d="m403.3 562.3c12.3 0.2 11.9 19.4-0.4 19.2-12.4-0.3-12-19.5 0.4-19.2z"/>
								</g>
								<path id="&lt;Compound Path&gt;" fill-rule="evenodd" class="s6" d="m295.4 509.1c5.7-4.5 12.6 0.2 16 5 5.4 7.9 9 18.8 9.5 28.3 0 0.3-0.2 0.4-0.4 0.3-0.2 0.8-1.2 1.5-2 0.9-7.7-5.6-16.7-10.5-22.5-18.3-3.4-4.5-5.9-11.9-0.6-16.2zm13.1 23.7c3.8 2.8 7.6 5.4 11.2 8.4-1.8-5.5-3.4-11.1-5.9-16.4-1.1-2.6-2.4-5.2-3.9-7.5-2.3-3.7-12.9-13.1-14.2-1.1-0.8 6.6 8.4 13.2 12.8 16.6z"/>
								<path id="&lt;Compound Path&gt;" fill-rule="evenodd" class="s6" d="m348.2 547c-9.7 1.3-19.5-1.6-28.9-3.2-1-0.2-1.2-1.3-0.8-2-0.1-0.2-0.2-0.4 0-0.5 7.1-6.4 17.4-11.4 26.9-13.1 5.8-1 14 0.7 14.7 7.9 0.7 6.8-6.3 10.1-11.9 10.9zm6.7-6.2c7.6-9.3-6.5-10.3-10.8-9.4-2.7 0.6-5.4 1.6-8.1 2.5-5.5 2-10.6 4.8-15.8 7.3 4.6 0.5 9.2 1.4 13.9 2.1 5.5 0.8 16.6 2.7 20.8-2.5z"/>
							</g>
						</g>
					</g>
					<g id="&lt;Group&gt;">
						<path id="&lt;Path&gt;" class="s9" d="m439.3 522.4l-114-17.3c0 0 64.5-126.2 88.7-168.6 18.9-33 70.6-34.6 95.7 4.9 33.5 52.8 59.6 102.3 74.5 129.7l25.9 2.2-5.6 42.3-86 19.3c-33 3.9-56.1-54.7-56.6-53.8-2 3.6-22.6 41.3-22.6 41.3z"/>
						<g id="&lt;Group&gt;">
							<path id="&lt;Path&gt;" class="s6" d="m461.3 481.4c3.2-6.6 5.7-13.7 8.6-20.5q4.2-9.9 8.4-19.8c5.6-13.3 11.4-26.6 16.8-40 3-7.5 5.8-15.1 8.7-22.7 0.1-0.2 0.3-0.1 0.3 0.1q-3.3 10.8-6.9 21.5 0.9-1.9 1.9-3.7c1.9-3.3 3.7-6.5 5.6-9.7 0.1-0.2 0.3-0.1 0.2 0.1-1.7 3.2-3.5 6.5-5.3 9.7-0.9 1.6-1.9 3.2-2.8 4.8-6.8 19.9-14.5 39.5-23.7 58.4-3.6 7.5-7.9 14.6-11.5 22-0.1 0.3-0.5 0-0.3-0.2z"/>
							<path id="&lt;Path&gt;" class="s6" d="m436.8 502.1c5.5-8.5 18.6-34.1 23.3-43 9.5-18 18.2-36.3 26.4-54.9 4.6-10.5 9-21.1 13.2-31.7 0.1-0.1 0.2-0.1 0.2 0-6.5 19.2-14.2 38-22.5 56.4-8.4 18.4-35.4 68.1-40.3 73.5-0.1 0.1-0.4 0-0.3-0.3z"/>
							<path id="&lt;Path&gt;" class="s6" d="m507.6 386.7c9.9 17.5 19.9 34.9 29.8 52.5q7.5 13.3 14.9 26.6c2.3 4.2 4.6 8.4 7 12.5 2.2 3.9 5 7.2 9 9.4 4.4 2.4 9.5 3.6 14.3 5 5.5 1.6 11.1 3.4 16.6 4.9 0.3 0.1 0.2 0.4-0.1 0.4-5-1.4-10-2.5-15-3.7-4.5-1.1-9.2-2.1-13.6-3.7-4-1.5-7.4-3.6-10.1-7-2.8-3.5-4.8-7.8-7-11.7q-14.8-27.1-29.3-54.3c-5.5-10.3-11-20.6-16.6-30.9 0 0 0.1-0.1 0.1 0z"/>
							<path id="&lt;Path&gt;" class="s6" d="m441.9 506.4c-6.8-1.2-13.8-1.8-20.7-2.7q-10.4-1.3-20.7-2.7c-13.8-1.8-60.7-9.3-64.3-10.5-0.2 0-0.1-0.4 0.1-0.4 3.4-0.1 34.1 4 41 5 13.8 2 27.5 4.5 41.2 6.8 3.9 0.7 7.8 1.4 11.7 2.1 4 0.7 7.9 1.5 11.8 2 0.2 0.1 0.2 0.5-0.1 0.4z"/>
						</g>
					</g>
				</g>
				<g id="&lt;Group&gt;">
					<g id="&lt;Group&gt;">
						<path id="&lt;Path&gt;" class="s15" d="m178 896.1c5.5 1.9 168.7 1.5 174.9-2.3 0.7-0.4 1.5-35.6 1.5-35.6 28.1-60.7 55.8-115.4 55.8-115.4l-114.7-2.4-44.8 99.4c0 0-64.5 31.6-66.9 33.5-6.2 4.8-11.4 20.8-5.8 22.8z"/>
						<path id="&lt;Path&gt;" class="s0" d="m178 896.1c5.6 1.9 168.7 1.5 174.9-2.3 0.7-0.4 1.5-35.6 1.5-35.6 3.4-7.5 6.9-14.9 10.3-22.2l-104.7-17-9.3 20.8c0 0-64.5 31.6-66.9 33.4-6.2 4.9-11.4 20.9-5.8 22.9z"/>
						<g id="&lt;Group&gt;">
							<path id="&lt;Path&gt;" class="s5" d="m176.5 897.3c5.7 1.9 169.9 1.8 176.1-2.2 2.4-1.4 3.4-13 4.2-41.9l-104.8-16c0 0-63.4 31.5-69.8 36.6-6.4 5.1-11.4 21.6-5.7 23.5z"/>
							<g id="&lt;Group&gt;">
								<g id="&lt;Group&gt;">
									<path id="&lt;Path&gt;" class="s6" d="m178.9 890.7c27.5-0.7 138.5-0.9 165.7 0.5 0.3 0.1 0.3 0.2 0 0.2-27.2 1.3-138.2 0.6-165.7-0.2-0.6 0-0.6-0.5 0-0.5z"/>
									<path id="&lt;Path&gt;" class="s6" d="m192.8 867.9c6.5-0.3 12.9 2.8 16.4 6.7 3.4 3.7 6.4 9 6.2 14.7 0 0.2-0.3 0.2-0.4 0-1.5-10.8-11.3-20.2-22.2-21.1-0.3 0-0.3-0.3 0-0.3z"/>
									<path id="&lt;Path&gt;" class="s6" d="m240.7 843.3c11.1-0.1 23.8 3.7 30.7 12.7 0.2 0.4-0.3 0.8-0.6 0.6-9.9-5.1-19.4-8.9-30.2-11.9-0.8-0.2-0.6-1.4 0.1-1.4z"/>
									<path id="&lt;Path&gt;" class="s6" d="m232.2 846.7c11.1-0.2 23.8 3.7 30.7 12.7 0.2 0.3-0.3 0.7-0.6 0.5-9.9-5.1-19.4-8.9-30.2-11.9-0.8-0.2-0.6-1.3 0.1-1.3z"/>
									<path id="&lt;Path&gt;" class="s6" d="m223.7 850c11.1-0.2 23.8 3.7 30.7 12.7 0.2 0.3-0.3 0.7-0.6 0.5-9.9-5.1-19.4-8.9-30.2-11.9-0.8-0.2-0.6-1.3 0.1-1.3z"/>
									<path id="&lt;Path&gt;" class="s6" d="m215.2 853.3c11.1-0.2 23.8 3.7 30.7 12.7 0.2 0.4-0.3 0.7-0.6 0.6-9.9-5.2-19.4-9-30.2-12-0.8-0.2-0.6-1.3 0.1-1.3z"/>
									<path id="&lt;Path&gt;" class="s3" d="m337.6 865.1c12.4 0 12.3 19.2 0 19.2-12.4 0-12.4-19.2 0-19.2z"/>
								</g>
								<path id="&lt;Compound Path&gt;" fill-rule="evenodd" class="s6" d="m228.8 814c5.6-4.7 12.6-0.2 16.1 4.6 5.5 7.8 9.4 18.7 10 28.2 0 0.2-0.2 0.3-0.4 0.3-0.2 0.8-1.1 1.5-1.9 0.9-7.9-5.4-16.9-10.2-22.9-17.9-3.5-4.5-6.1-11.8-0.9-16.1zm13.5 23.4c3.8 2.7 7.7 5.3 11.4 8.2-1.9-5.5-3.7-11.1-6.2-16.3-1.2-2.6-2.5-5.1-4-7.5-2.4-3.6-13.2-12.8-14.3-0.8-0.6 6.6 8.6 13.1 13.1 16.4z"/>
								<path id="&lt;Compound Path&gt;" fill-rule="evenodd" class="s6" d="m282.2 850.9c-9.5 1.4-19.4-1.3-28.9-2.7-0.9-0.2-1.2-1.3-0.8-2.1-0.1-0.1-0.2-0.3 0-0.4 7-6.5 17.2-11.8 26.6-13.6 5.8-1.1 14 0.5 14.9 7.6 0.8 6.8-6.2 10.3-11.8 11.2zm6.7-6.3c7.4-9.5-6.7-10.2-11-9.2-2.7 0.6-5.4 1.6-8 2.6-5.5 2.1-10.5 4.9-15.7 7.6 4.6 0.4 9.2 1.2 13.9 1.8 5.5 0.8 16.7 2.4 20.8-2.8z"/>
							</g>
						</g>
					</g>
					<g id="&lt;Group&gt;">
						<g id="&lt;Group&gt;">
							<path id="&lt;Path&gt;" class="s9" d="m258.4 819.3l124-0.9c0 0 64.8-163.3 72.4-171.3 5-5.5 39.2-11.6 79.9-20.5h0.2c15.1-3.3 31-7 46.7-11.3 40.9-10.9 80.2-25.2 98.1-45 37.5-41.4 0-116.3 0-116.3h-105.5c0 0-2.6 32.6 5.5 52.5 0 0-77.7 11.4-143.1 32.7-37 12-70.1 27.2-82.9 45.2-18.8 26.5-95.3 234.9-95.3 234.9z"/>
							<g id="&lt;Group&gt;">
								<path id="&lt;Path&gt;" class="s6" d="m272.4 800.7c14.4-1.1 28.7-1.4 43.1-1.8 14.4-0.3 28.8-0.5 43.2-0.3 8.1 0.1 16.2 0.5 24.3 0.6 0.3 0 0.3 0.4 0 0.4-7.2 0.2-14.4 0.7-21.7 0.9q-10.7 0.3-21.4 0.5c-14.4 0.3-28.8 0.3-43.2 0.5-8.1 0.1-16.2-0.1-24.3-0.3-0.3 0-0.3-0.5 0-0.5z"/>
								<path id="&lt;Path&gt;" class="s6" d="m626 469.4q0.2 0.8 0.6 1.4c0 0.1 0 0.2-0.1 0.3 1.4 4.3 2 8.9 3.3 13.2 1.5 4.7 4 8.6 8.1 11.5 8.1 5.6 18 8.2 27.5 10.6 0.3 0.1 0.2 0.5-0.1 0.5-5.4 0.2-11.1-0.9-16.2-2.5-4.8-1.4-9.8-3.5-13.7-6.5-4-3.1-6.6-7-7.9-11.9-0.6-2.5-1-5-1.4-7.6-0.4-2.9-0.9-6-0.9-8.9 0-0.5 0.7-0.5 0.8-0.1z"/>
								<path id="&lt;Path&gt;" class="s6" d="m564.2 499.5c6.5 1.6 12.8 4.6 18.9 7.3q0.2 0 0.3 0.1c-0.1-0.4-0.2-0.8-0.3-1.2q-0.1-0.7-0.2-1.3-0.1-0.8-0.1-1.5-0.1-0.3-0.1-0.7 0 0 0-0.1c-1.5-0.1-3-0.7-4.1-2.1-1.4-1.7-2-3.9-2.5-5.9q-1.1-4.1-2-8.2-1-4.5-1.7-9.1c-0.5-3-1-6.1-1-9.1 0-0.5 0.7-0.6 0.8-0.1 0.7 2.8 1 5.7 1.6 8.5q0.8 4.3 1.8 8.5 0.9 4.2 2.1 8.4c0.7 2.5 1.4 6.1 4.3 6.9 5.9 1.7 3.2-11.6 3-14.2-0.6-6-1-12.2-2.1-18.1 0-0.3 0.4-0.4 0.4-0.1 1.3 5.5 2.8 10.8 3.8 16.4 0.4 2.7 0.8 5.5 1.1 8.2 0.2 2.3 0.5 4.9-0.6 7.1-0.8 1.7-2.3 2.6-3.9 2.9q0.1 0.3 0.2 0.6 0.2 0.7 0.4 1.3 0.1 0.7 0.3 1.4c0.1 0.5 0.4 1.1 0.2 1.6q-0.1 0.2-0.3 0.4c2.5 1.1 5.1 2.2 7.6 3.3 3 1.4 6.3 2.6 9.1 4.4 0.3 0.2 0 0.7-0.3 0.6-3.2-0.7-6.4-2.3-9.5-3.4-3.2-1.3-6.3-2.6-9.5-3.9-6-2.5-12.4-4.9-18-8.4-0.3-0.1-0.1-0.6 0.3-0.5z"/>
								<path id="&lt;Path&gt;" class="s6" d="m391.7 740.7c6.5-16.1 13.4-32.2 20.7-48q11-23.8 23.2-47.1c3.5-6.7 6.7-13.5 13.7-17.2 3.2-1.6 6.7-2.6 10.2-3.6q6.1-1.6 12.3-3.2c33.6-8.5 67.6-15.5 101-24.8 16.7-4.7 33.2-10 49.4-16.3 13.1-5.1 26.2-11.1 37.1-20.1 5.2-4.3 9.8-9.4 13.3-15.2 4.1-6.9 13.8-25.7-0.5-82.8-0.1-0.3 0.3-0.4 0.3-0.2 11.5 40.6 9 62.8 7 70.8-1.8 6.9-5 13.4-9.4 19-8.5 10.8-20.4 18.2-32.6 24.1-14.5 6.9-29.9 12.1-45.3 16.9-33.2 10.5-67.4 17.8-101.3 25.8q-12.6 3-25.1 6.2c-7.5 1.9-16.3 3.4-21.6 9.5-2.7 3-4.4 6.8-6.3 10.3q-3 5.9-6 11.7-6 12-11.8 24.1c-15.3 31.9-29.2 64.4-41.6 97.4q-2.3 6.2-4.7 12.3c-0.1 0.3-0.6 0.2-0.5-0.2 5.5-16.7 11.9-33.1 18.5-49.4z"/>
								<path id="&lt;Path&gt;" class="s6" d="m386.1 558.8c5.1-3.1 26.6-14.1 37.9-18 11.8-4 23.9-7.4 36-10.7 24.9-6.8 50-12.4 75.4-16.9q10.8-2 21.7-3.7c7-1.1 14.2-2.3 21.3-2.6 0.3-0.1 0.3 0.3 0.1 0.4-6.3 1.5-12.8 2.5-19.1 3.6q-9.5 1.6-18.9 3.4-18.8 3.6-37.5 7.8c-24.6 5.6-49.3 11.8-73.4 19.4-12.9 4-32.2 13.4-43 18.2-0.6 0.3-1.1-0.6-0.5-0.9z"/>
							</g>
							<g id="&lt;Group&gt;">
								<path id="&lt;Path&gt;" class="s15" d="m466.8 600.5c-5.3-3.3-10.5-6.8-16-9.8-2.7-1.4-5.5-2.7-8-4.4-2.6-1.7-5.2-3.6-7.7-5.4-5-3.5-10.2-6.9-14.7-11.1-4.7-4.2-9.4-8.5-14.6-12.2-0.2-0.1 0-0.5 0.2-0.3 5.1 3.6 10.7 6.6 16.3 9.4 3.8 2 7.5 4.4 11 6.9-2.2-1.6-4.3-3.3-6.2-5.2-3.3-3.1-6.5-6.3-10-9.1-0.2-0.2 0-0.5 0.2-0.3 3.6 2.3 7.5 4.4 11.3 6.3q0.9 0.5 1.7 0.9-1.9-1.3-3.7-2.8c-1.7-1.4-3.3-2.9-5-4.4q-1.2-1-2.4-1.9-0.2-0.1-0.4-0.3 0 0 0 0c-0.9-0.3-1.6-0.8-2-1.7 0-0.2 0.1-0.3 0.2-0.2 3.8 1.9 7.7 3.7 11.5 5.7 3.9 1.9 7.5 4.4 11.2 6.7 7.2 4.4 14.2 9.3 20.3 15.2 0.5 0.5-0.1 1.5-0.8 1.3-3.4-1.5-6.6-3.1-9.8-4.9q0.3 0.2 0.5 0.4c3.3 2.7 6.4 5.7 9.5 8.6 0.1 0.2-0.1 0.5-0.3 0.4-3.8-1.6-7.8-3.1-11.4-5q-1.8-1-3.5-2.1 0.7 0.5 1.3 1c2.4 1.7 4.6 3.8 6.8 5.9 4.7 4.2 10 7.9 15 11.8 0.3 0.3 0 0.9-0.5 0.6z"/>
								<path id="&lt;Path&gt;" class="s15" d="m444.6 556.1c3.7 2 7.2 4.4 11 6.4 3.7 1.9 7.3 3.9 10.5 6.6 6.5 5.3 12 11.8 18.5 17.1 0.2 0.1 0 0.5-0.2 0.3-6.6-5.3-14.1-8.9-21.1-13.6-3.5-2.3-6.4-5.2-9.4-8.1-3.1-2.9-6.5-5.5-9.7-8.2-0.3-0.3 0-0.7 0.4-0.5z"/>
								<path id="&lt;Path&gt;" class="s15" d="m394.8 564.7c7.2 3.3 14.7 5.8 21.8 9.1 3.4 1.6 6.6 3.8 9.5 6.1 3.2 2.5 6.1 5.4 9.5 7.8 0.2 0.1 0 0.4-0.2 0.3-3.5-2-7.3-3.3-10.9-4.8-3.6-1.5-7.1-3.3-10.3-5.4-6.5-4.3-12.7-9-19.6-12.7-0.3-0.1 0-0.5 0.2-0.4z"/>
							</g>
						</g>
					</g>
				</g>
			</g>
			<g id="&lt;Group&gt;">
				<g id="&lt;Group&gt;">
					<g id="&lt;Group&gt;">
						<path id="&lt;Path&gt;" class="s15" d="m616.7 342.8c-9.3 37.9-31.8 96.7-51.8 96.4-18.2-0.3-58.7-32.6-75.7-43.1-17.1-10.7 21.1-52.3 30.8-45.5 15.1 10.4 37.8 29.1 41.6 27.8 4.7-1.5 10.8-13.2 37.9-47.7 11.1-14.1 21.2-4 17.2 12.1z"/>
						<g id="&lt;Group&gt;">
							<path id="&lt;Path&gt;" class="s15" d="m501.8 334.5c-8-2.8-17-6.7-25.9-6.5-8.9 0.1-16.3 11.9-16.3 15.3 0 3.3 3.3 24.3 12.2 24.3 9 0 3.6-16.1 3.9-18 0.3-1.8 0.7-4.2 2.4-4 1.6 0.2 31.1 14.1 31.1 14.1z"/>
							<g id="&lt;Group&gt;">
								<path id="&lt;Path&gt;" class="s15" d="m501.2 335.8c-0.5 0-24.4-9.5-33.3-9.3-8.9 0.2-16.3 11.9-16.3 15.3 0 3.4 3.4 24.4 12.3 24.4 8.9 0 3.5-16.2 3.9-18 0.3-1.9 0.6-4.2 2.3-4 1.7 0.1 31.1 14.1 31.1 14.1z"/>
								<path id="&lt;Path&gt;" class="s6" d="m466.9 365c1.1-1.4 1.3-3.5 1.5-5.2 0.2-1.9 0.1-3.8-0.3-5.7-0.4-1.6-1-3.2-1.1-4.9-0.1-1.5 0.5-3.4 1.2-4.7 0.7-1.3 2-0.8 3.2-0.4 1.6 0.5 3.2 1.4 4.8 2.1q2.5 1.3 5.1 2.6c1.7 0.9 3.5 1.8 5.1 2.9 0.2 0.1 0.1 0.3-0.1 0.2-1.5-0.5-3-1.3-4.5-2q-2.5-1.2-5.1-2.3c-1.6-0.7-3.1-1.5-4.7-2.2-0.6-0.3-1.7-0.9-2.4-0.7-0.7 0.1-1 1.8-1.2 2.3-0.4 1.8-0.1 3.2 0.4 4.9 0.4 1.6 0.7 3.2 0.9 4.8 0.1 1.6 0 3.2-0.4 4.7-0.4 1.4-1.4 2.5-2.1 3.8-0.1 0.2-0.4 0-0.3-0.2z"/>
							</g>
							<g id="&lt;Group&gt;">
								<path id="&lt;Path&gt;" class="s15" d="m529.4 359.1c0 0-24.6-22.5-29.8-26.9-10.3-9-53.7-26.7-59.7-27.4-6.1-0.6-8.3 11.8 21.2 24.7 15.5 6.8 18.3 15.7 18 20.6-0.3 4.9-5 14.1-13.3 13.9-8.3-0.2-13.7-12.3-21.3-13.7-7.6-1.3-2.6 12.6 2.8 20.7 5.4 8.1 15.1 14.7 22.3 17.4 7.2 2.7 29.4 12.3 29.4 12.3z"/>
								<path id="&lt;Path&gt;" class="s6" d="m455.5 358.2c3.1 2.4 6.7 5.5 10.8 5.7 4.2 0.1 7-2.6 9-6.1 1.9-3.5 3.1-7.5 2.1-11.5-0.8-3.6-3-6.7-5.6-9.3-3.3-3.1-7.3-5.4-11.3-7.4-0.2-0.1 0-0.4 0.2-0.3 3.8 1.7 15.7 6.6 18 17 1 4.3-0.3 8.1-2.3 11.7-1.8 3.3-4.5 6.5-8.5 6.8-4.9 0.4-9.1-3.6-12.6-6.5-0.2-0.2 0-0.3 0.2-0.1z"/>
							</g>
						</g>
					</g>
					<g id="&lt;Group&gt;">
						<path id="&lt;Path&gt;" class="s7" d="m529.4 356l-36.9 57.3c0 0 58.6 32.8 75.2 27.5 16.5-5.3 41.6-52.8 51.9-94.5 10.3-41.6-15.3-25.7-25.2-12.8-10 12.9-31.5 42.7-32.7 42.3-1.2-0.4-32.3-19.8-32.3-19.8z"/>
						<path id="&lt;Compound Path&gt;" fill-rule="evenodd" class="s3" d="m513.4 380.8c2.4 0.9 4.8 1.8 7 2.9 4.9 2.5 9.5 5.6 13.7 9.1q1.7 1.4 3.4 2.9-0.9 0.2-1.7 0.4-1.3-1.2-2.6-2.2c-4.2-3.5-8.6-6.5-13.4-8.9-2.3-1.2-4.7-2.2-7.1-3zm43.5 35.1c6.1 6.8 12.2 13.6 18.9 19.6-0.3 0.3-0.7 0.6-1 0.9-6.8-6.1-12.9-12.8-19-19.5-6.3-7-12.6-14.2-19.6-20.4q0.8-0.2 1.6-0.5c6.9 6.2 13 13.1 19.1 19.9zm-56.9-14.3q0.3 0.3 0.5 0.6-0.5 0.1-0.9 0.1zm9.3 10.2c5.7 6.5 11.6 12.9 17.9 18.7q-1.8-0.8-3.6-1.7c-5.4-5.1-10.4-10.5-15.4-16-3-3.4-6-6.7-9.1-10h0.1q0.9 0 1.8-0.1c2.8 3 5.5 6.1 8.3 9.1zm-8.3-9.1q-0.2-0.3-0.5-0.5 4.9-0.2 9.7-0.9c8.6-1 17.1-3 25.5-5.3q0.3 0.2 0.5 0.4c-8.6 2.2-17.2 4.3-25.9 5.5-3.1 0.4-6.2 0.7-9.3 0.8zm36.8-6.7q-0.2-0.2-0.4-0.4c1.5-0.4 3-0.8 4.5-1.2 10.4-2.9 20.9-6 31.7-7.5 5.4-0.7 10.8-1.1 16.3-0.7 5 0.3 10 1.2 14.9 2.7q-0.2 0.5-0.4 1c-4.8-1.6-9.7-2.5-14.6-2.8-5.4-0.4-10.8-0.1-16.1 0.6-10.7 1.4-21.2 4.4-31.7 7.2q-2.1 0.5-4.2 1.1zm25.4-21.8q3.1-0.9 6.1-2.1c5-2 9.8-4.6 14.3-7.6 9-6 17-13.3 25.2-20.4 1.1-1 2.2-1.9 3.3-2.9q0.3 0.2 0.6 0.2-1.8 1.6-3.5 3.1c-8.2 7.2-16.2 14.5-25.2 20.6-4.5 3.1-9.3 5.8-14.3 7.8q-3.9 1.7-8 2.7c0.3 0 0.8-0.6 1.5-1.4zm58.6-41q0 0.2-0.1 0.5-3.9 3.3-7.8 6.6c-0.1 0-0.3-0.1-0.5-0.1 2.8-2.4 5.5-4.8 8.4-7zm-27.5 0.2c6.3 2.5 12.6 4.9 19.1 6.8-0.4 0.3-0.9 0.7-1.3 1-6.4-1.8-12.6-4.1-18.7-6.6q0.4-0.6 0.9-1.2zm18.4 8q0.6-0.5 1.2-1.1c1.2 0.4 2.3 0.6 3.4 0.9q1.6 0.4 3.2 0.7c-0.1 0.4-0.2 0.9-0.3 1.3q-1.6-0.2-3.2-0.6-2.2-0.6-4.3-1.2zm-94 31q1.6 0.5 3.1 0.9c10.4 3 21.3 4.1 32 2.9q3.3-0.4 6.6-1.2 1 0.6 1.2 0.7-3.8 1-7.7 1.5c-10.8 1.4-21.9 0.3-32.4-2.6q-1.8-0.5-3.5-1.1z"/>
						<path id="&lt;Path&gt;" class="s8" d="m533.8 433.3c13.3 5.4 26.4 9.4 33.3 7.7q0.3-0.1 0.6-0.2c16.5-5.3 41.6-52.8 51.9-94.5 1.8-7.4 2.5-13 2.4-17.1 0-0.2-0.1-0.4-0.1-0.6q0-0.5-0.1-1 0-0.2 0-0.4 0-0.5-0.1-0.9z"/>
						<path id="&lt;Path&gt;" class="s6" d="m513.1 407.7q1.8-3.1 3.6-6.1c2.4-4.1 16.7-28.1 22.3-35.4 0.2-0.2 0.5 0.1 0.4 0.3-4 8.4-18.8 31.9-21.3 35.8q-1.9 3-3.8 6c-1.3 1.9-2.8 3.8-4.1 5.7-0.1 0.2-0.4 0.1-0.3-0.1 1.2-2 2.1-4.2 3.2-6.2z"/>
					</g>
				</g>
				<g id="&lt;Group&gt;">
					<g id="&lt;Group&gt;">
						<path id="&lt;Path&gt;" class="s7" d="m700.5 505.6c-0.3 0.4-129-40-130.3-41.5-1.9-2.2 19.4-122 34.9-141.7 3.3-4.3 24.8-12.1 35.7 0.1 42.4 47.3 60.9 181.7 59.7 183.1z"/>
					</g>
					<path id="&lt;Compound Path&gt;" fill-rule="evenodd" class="s3" d="m574.4 434.2q2.6 2.4 5.4 4.7c5.8 4.9 12.2 9.2 19.1 12.4q-0.9 0.3-1.8 0.5c-6.5-3.2-12.6-7.3-18.2-11.9q-2.4-2-4.8-4.2 0.1-0.8 0.3-1.5zm24.5 17.1c8.1-2 16.1-4.8 24-7.6 10.3-3.5 20.6-6.9 31.3-8.9 1-0.2 2-0.3 3-0.5q-1.3-1.6-2.6-3.2c-6.7-8.5-13.5-17-21.5-24.2-8-7.2-17.3-13-27.5-16.6-5-1.7-10.4-2.8-15.7-3.2q-3-0.2-5.9-0.1 0.1-0.4 0.2-0.8 2.8-0.1 5.7 0c5.5 0.4 10.9 1.4 16.1 3.2 10.3 3.5 19.8 9.3 27.9 16.6 8.2 7.2 15.1 15.7 21.8 24.2q1.6 2 3.1 3.9c9.2-1.2 18.6-1.2 27.8 0.4q0.6 0.1 1.2 0.2 0.2 0.4 0.2 0.8-0.7-0.1-1.5-0.2c-9-1.7-18.2-1.8-27.3-0.7 3.6 4.5 7.2 9 11.1 13.2q-0.7 0.3-1.5 0.5c-4-4.3-7.6-8.9-11.2-13.5q-1.7 0.2-3.3 0.5c-10.7 1.8-21 5.3-31.2 8.9-7.7 2.7-15.3 5.5-23.2 7.6q-0.5-0.2-1-0.5zm1 0.5q3.7 1.8 7.7 3.1c5.1 1.7 10.4 2.8 15.8 3.1 5.3 0.3 10.7-0.1 16-1.1 10.1-1.8 19.8-5.2 29.4-8.6q0.2 0.3 0.5 0.5c-9.8 3.4-19.5 7-29.7 8.8-5.4 1-10.8 1.5-16.3 1.3-5.4-0.3-10.9-1.3-16-3-3.2-1-6.2-2.3-9.2-3.7q0.9-0.2 1.8-0.4zm70.6-4c6.3-2.2 12.6-4.3 19-6.1q0.1 0.3 0.1 0.5c-6.4 1.7-12.7 3.9-18.9 6.1q-0.2-0.2-0.4-0.5 0.1 0 0.2 0zm-99.3 5.7c1.5 0.2 3 0.3 4.6 0.4 5.3 0.3 10.7-0.1 16.1-1q2.6-0.5 5.2-1.1 0.5 0.2 1 0.4c-2 0.5-4.1 1-6.1 1.4-5.4 1-10.8 1.5-16.3 1.2q-2.3-0.1-4.7-0.4 0.1-0.5 0.2-0.9zm98.1-4.7q0.7-0.3 1.4-0.5 3 3.2 6.3 6.2c4.1 3.5 8.4 6.8 13.2 9.1q2.1 1.1 4.3 2 0.2 0.8 0.3 1.6c-1.8-0.7-3.5-1.5-5.2-2.3-4.9-2.5-9.4-5.7-13.5-9.3q-3.6-3.3-6.8-6.8zm-70.7-113.6c4.9 1.9 9.8 3.7 14.9 5.1-0.5 0.3-0.9 0.7-1.3 1-4.8-1.3-9.5-3-14.1-4.8q0.3-0.7 0.5-1.3zm18.8 6.1c5.2 1.2 10.6 2 15.9 2.1 2.7 0 5.4-0.2 8-0.5 2.7-0.5 5.3-0.9 8-1.5q2.1-0.4 4.3-1 0.3 0.5 0.6 1.1-2.3 0.6-4.7 1.2c-1.3 0.4-2.6 0.5-4 0.8-1.3 0.3-2.7 0.5-4 0.7-2.7 0.4-5.5 0.6-8.2 0.5-5.5 0-10.9-0.8-16.2-2.1q-2.2-0.5-4.3-1.1 0.6-0.6 1.2-1.1c1.2 0.3 2.3 0.6 3.4 0.9zm-26.8 19.1c6.5-4.9 12.5-10.4 18.6-15.8q1.8-1.6 3.6-3.1-0.3-0.1-0.6-0.2c-1.1 1-2.2 1.9-3.3 2.9-5.9 5.2-11.8 10.4-18 15.2q-0.1 0.5-0.3 1zm44-36q2.5-1.6 5.1-3.1-0.2-0.2-0.5-0.4-2.4 1.5-4.8 3.1c-7.4 4.9-14.2 10.5-20.9 16.3 0.1 0 0.3 0.1 0.5 0.1 6.6-5.7 13.3-11.3 20.6-16z"/>
				</g>
				<g id="&lt;Group&gt;">
					<g id="&lt;Group&gt;">
						<path id="&lt;Path&gt;" class="s15" d="m651.7 360.7c-6.6 38.6-39 110.8-60.1 117.6-24.4 7.9-109.3-19.3-125.9-31.5-6.7-4.8 28.7-47.6 36.9-44.5 34.6 12.7 65.2 19.2 69.6 16.2 6.9-4.7 34.8-44.6 52.9-69.4 22.7-31.1 29.6-5.7 26.6 11.6z"/>
						<g id="&lt;Group&gt;">
							<g id="&lt;Group&gt;">
								<g id="&lt;Group&gt;">
									<path id="&lt;Path&gt;" class="s15" d="m467.9 448c-3.8-1.4-29.8-20.2-37.5-29.1-4.9-5.6-13.3-15.4-20-31-7.7-17.9-11.3-31.1-9.4-36.9 2.1-6.9 2.7-8 20.7 21.8 10.2 16.9 19.9 18.8 28.3 18.6 34.4-0.6 59.7 13.4 59.7 13.4 0 0-27.3 48.4-41.8 43.2z"/>
								</g>
							</g>
							<g id="&lt;Group&gt;">
								<path id="&lt;Path&gt;" class="s6" d="m424.8 321.4l43.5 56c1.2 1.5 0.7 3.2-1 3.8l-30.8 9.9c-1.7 0.5-4-0.3-5.2-1.8l-43.5-56c-1.2-1.5-0.8-3.2 1-3.8l30.7-9.9c1.8-0.5 4.1 0.3 5.3 1.8z"/>
								<g id="&lt;Group&gt;">
									<path id="&lt;Compound Path&gt;" fill-rule="evenodd" class="s16" d="m427.5 320.5l43.4 56c1.2 1.6 0.8 3.3-0.9 3.8l-30.8 9.9c-1.7 0.6-4.1-0.3-5.3-1.8l-43.4-56c-1.2-1.5-0.8-3.2 0.9-3.8l30.8-9.9c1.7-0.5 4.1 0.3 5.3 1.8zm-0.3 2.8c-2.1-2.8-3.7-2.8-5.2-2.3l-5.5 1.8c-0.4 0.1-0.4 0.5-0.1 0.9l0.2 0.2c0.7 0.9 0.1 1.1-0.6 1.3l-12.8 4.1c-0.7 0.3-1.3 0.5-2-0.5l-0.1-0.1c-0.3-0.4-0.8-0.7-1.2-0.6l-5.5 1.8c-1.5 0.5-2.6 1-0.3 4l40.4 52.1c1.2 1.5 3.3 2.3 4.9 1.8l27.5-8.8c1.6-0.5 1.9-2.1 0.8-3.6z"/>
									<path id="&lt;Path&gt;" class="s6" d="m410.5 325.6l-3.5 1.1c-0.1 0-0.3 0-0.4-0.1-0.1-0.1 0-0.3 0.1-0.3l3.5-1.1c0.1 0 0.2 0 0.3 0.1 0.1 0.1 0.1 0.2 0 0.3z"/>
									<g id="&lt;Group&gt;">
										<path id="&lt;Path&gt;" class="s3" d="m427.2 323.3l40.5 52.1c1.1 1.5 0.8 3.1-0.8 3.6l-27.5 8.8c-1.6 0.5-3.7-0.3-4.9-1.8l-40.4-52.1c-2.3-3-1.2-3.5 0.3-4l5.5-1.8c0.4-0.1 0.9 0.2 1.2 0.6l0.1 0.1c0.7 1 1.3 0.8 2 0.5l12.8-4.1c0.7-0.2 1.3-0.4 0.6-1.3l-0.2-0.2c-0.3-0.4-0.3-0.8 0.1-0.9l5.5-1.8c1.5-0.5 3.1-0.5 5.2 2.3z"/>
										<path id="&lt;Path&gt;" class="s7" d="m427.2 323.3l3 3.9-33.1 10.6-3-3.9c-2.3-3-1.2-3.5 0.3-4l5.6-1.8c0.3-0.1 0.8 0.2 1.1 0.6l0.1 0.1c0.8 1 1.3 0.8 2 0.5l12.8-4.1c0.7-0.2 1.3-0.4 0.6-1.3l-0.2-0.2c-0.3-0.4-0.3-0.8 0.1-0.9l5.5-1.8c1.5-0.5 3.1-0.5 5.2 2.3z"/>
										<g id="&lt;Group&gt;">
											<g id="u5Zjqx 2 ">
												<g id="&lt;Group&gt;">
													<path id="&lt;Path&gt;" class="s3" d="m399.9 329.6q0 0 0 0.1 0 0 0 0-0.4-0.1-0.7 0-0.3 0.1-0.3 0.3-0.1 0-0.1 0 0 0-0.1 0 0 0 0 0 0 0 0 0 0 0 0 0 0-0.1 0-0.1 0.1-0.1 0.1-0.1 0.1-0.1 0.2-0.2 0 0 0.1 0c0 0 0.1 0 0.1 0q0-0.1 0-0.1 0.1 0 0.3 0 0 0 0.1 0 0.1 0 0.2 0.1 0.1 0 0.1 0 0 0 0 0z"/>
													<path id="&lt;Path&gt;" class="s3" d="m399.1 330.1q0 0-0.1 0 0-0.2 0.2-0.3 0.3-0.1 0.7 0-0.1 0-0.1 0.1-0.2-0.1-0.4 0-0.2 0-0.3 0.2z"/>
													<path id="&lt;Path&gt;" class="s3" d="m399.8 330q0 0 0 0.1-0.2 0-0.3 0-0.1 0-0.1 0.1-0.1 0-0.1 0c0-0.2 0.2-0.3 0.5-0.2z"/>
												</g>
												<path id="&lt;Path&gt;" class="s3" d="m399.7 330.2q0.1 0.1 0 0.1-0.1 0-0.1-0.1-0.1 0 0 0 0.1-0.1 0.1 0z"/>
											</g>
											<g id="&lt;Group&gt;">
												<path id="&lt;Path&gt;" class="s3" d="m394.8 331.4c-0.1-0.1 0-0.2 0.1-0.3 0.1 0 0.3 0.1 0.4 0.2 0 0.1 0 0.2-0.1 0.2-0.1 0.1-0.3 0-0.4-0.1z"/>
												<path id="&lt;Path&gt;" class="s3" d="m395.5 331.2c-0.1-0.1 0-0.2 0.1-0.3 0.1 0 0.3 0 0.3 0.1 0.1 0.2 0.1 0.3 0 0.3-0.1 0-0.3 0-0.4-0.1z"/>
												<path id="&lt;Path&gt;" class="s3" d="m396.2 331c-0.1-0.1-0.1-0.3 0.1-0.3 0.1 0 0.3 0 0.3 0.1 0.1 0.1 0.1 0.2 0 0.3-0.2 0-0.3 0-0.4-0.1z"/>
												<path id="&lt;Path&gt;" class="s3" d="m396.9 330.7c-0.1-0.1-0.1-0.2 0.1-0.2 0.1-0.1 0.2 0 0.3 0.1 0.1 0.1 0.1 0.2 0 0.3-0.2 0-0.3-0.1-0.4-0.2z"/>
												<path id="&lt;Path&gt;" class="s3" d="m397.6 330.5c-0.1-0.1-0.1-0.2 0.1-0.2 0.1-0.1 0.2 0 0.3 0.1 0.1 0.1 0.1 0.2 0 0.2-0.2 0.1-0.3 0-0.4-0.1z"/>
											</g>
											<g id="&lt;Group&gt;">
												<path id="&lt;Compound Path&gt;" fill-rule="evenodd" class="s3" d="m423.6 322.7l-1.8 0.6-0.5-0.8 1.8-0.6zm-1.8 0.5l1.6-0.5-0.4-0.6-1.6 0.5z"/>
												<path id="&lt;Path&gt;" class="s3" d="m422.7 322.2l-1.2 0.4 0.4 0.5 1.1-0.4z"/>
												<path id="&lt;Path&gt;" class="s3" d="m423.7 322.5h-0.2l-0.3-0.4h0.2z"/>
											</g>
										</g>
										<g id="&lt;Group&gt;">
											<g id="&lt;Group&gt;">
												<g id="&lt;Group&gt;">
													<g id="&lt;Group&gt;">
														<path id="&lt;Path&gt;" class="s7" d="m420.6 358.4c1.1 1.3 3.1 2 4.7 1.5l16.2-5.7c1.8-0.7 2.3-2.5 0.9-4.1-1.2-1.6-3.6-2.3-5.4-1.9-2.3-2.6-6.6-3.8-9.6-2.7-2.5 0.8-3.4 2.9-2.7 5.1q-0.9-0.1-1.7 0.2c-1.8 0.6-2.3 2.4-1.1 3.9q-0.3 0.1-0.5 0.2c-1.6 0.5-2 2.1-0.8 3.5z"/>
													</g>
												</g>
												<g id="&lt;Group&gt;" style="opacity: .1">
													<g id="&lt;Group&gt;">
														<path id="&lt;Path&gt;" class="s10" d="m420.6 358.4c1.1 1.3 3.1 2 4.7 1.5l16.2-5.7c1.8-0.7 2.3-2.5 0.9-4.1-1.2-1.6-3.6-2.3-5.4-1.9-2.3-2.6-6.6-3.8-9.6-2.7-2.5 0.8-3.4 2.9-2.7 5.1q-0.9-0.1-1.7 0.2c-1.8 0.6-2.3 2.4-1.1 3.9q-0.3 0.1-0.5 0.2c-1.6 0.5-2 2.1-0.8 3.5z"/>
													</g>
												</g>
											</g>
											<g id="&lt;Group&gt;">
												<g id="&lt;Group&gt;">
													<path id="&lt;Path&gt;" class="s7" d="m419.6 358.7c1.1 1.3 3.1 2 4.7 1.6l16.2-5.8c1.9-0.6 2.3-2.5 1-4.1-1.3-1.5-3.7-2.3-5.5-1.8-2.3-2.6-6.5-3.9-9.6-2.8-2.4 0.9-3.4 3-2.7 5.1q-0.9 0-1.7 0.2c-1.8 0.7-2.3 2.4-1.1 4q-0.3 0-0.5 0.1c-1.6 0.6-1.9 2.1-0.8 3.5z"/>
												</g>
											</g>
											<g id="&lt;Group&gt;">
												<g id="&lt;Group&gt;">
													<path id="&lt;Path&gt;" class="s7" d="m435.5 357.4l-3.1 1.1-3.3-4.1 3-1.1z"/>
													<path id="&lt;Path&gt;" class="s7" d="m436.6 357.1l-5.2 1.8 4.4 1.4z"/>
												</g>
												<g id="&lt;Group&gt;" style="opacity: .2">
													<path id="&lt;Path&gt;" class="s10" d="m435.5 357.4l-3.1 1.1-3.3-4.1 3-1.1z"/>
													<path id="&lt;Path&gt;" class="s10" d="m436.6 357.1l-5.2 1.8 4.4 1.4z"/>
												</g>
											</g>
										</g>
									</g>
								</g>
							</g>
							<path id="&lt;Path&gt;" class="s15" d="m445.8 391.3c8.7 0.1-19.6-17.5-20-27.4-0.4-9.9 9.2-6.8 16.8-1.2 26.4 19.4 46.2 18.4 59.6 36.9 13.4 18.5-56.4-8.3-56.4-8.3z"/>
							<path id="&lt;Path&gt;" class="s6" d="m472 379.2c5.7 1.6 11.2 3.4 16.3 6.4 4.7 2.7 8.4 6.7 11.7 11 0.1 0.2-0.1 0.4-0.3 0.2-7.1-8.7-17.6-13.1-27.7-17.3-0.2-0.1-0.1-0.3 0-0.3z"/>
						</g>
					</g>
					<g id="&lt;Group&gt;">
						<path id="&lt;Path&gt;" class="s7" d="m570.4 416.1c-6.8 1.8-53.8-11.1-53.8-11.1l-26.4 63.9c0 0 81.9 19.1 101 12.5 19.1-6.6 48.9-71.6 58.5-109.3 9.1-35.5-3-58.7-28.3-21.9 0 0-47.5 64.9-51 65.9z"/>
						<path id="&lt;Compound Path&gt;" fill-rule="evenodd" class="s3" d="m555.6 414.5q0.7 0.7 1.3 1.5c7.3 8 14.5 16 22.9 22.9 5.8 4.9 12.2 9.2 19.1 12.4q-0.9 0.3-1.8 0.5c-6.5-3.2-12.6-7.3-18.2-11.9-8.4-6.9-15.8-15-23-23q-1.3-1.4-2.7-2.9 1.2 0.2 2.4 0.5zm44.3 37.3q3.7 1.8 7.7 3.1 3.1 1.1 6.3 1.8-0.3 0.4-0.6 0.9-3.1-0.7-6-1.7c-3.2-1-6.2-2.3-9.2-3.7q0.9-0.2 1.8-0.4c7-1.8 13.8-4.3 20.6-6.7q0.2-0.3 0.4-0.7c-7.3 2.5-14.6 5.1-22.1 6.9q0.6 0.3 1.1 0.5zm-87.5-36.5c6.2 6.9 12.6 13.6 19.8 19.5 8.3 6.9 17.6 12.6 27.8 16 5.1 1.8 10.4 2.8 15.8 3.1 5.3 0.3 10.7-0.1 16.1-1q2.6-0.5 5.2-1.1 0.5 0.2 1 0.4c-2 0.5-4.1 1-6.1 1.4-5.4 1-10.8 1.5-16.3 1.2-5.4-0.2-10.8-1.3-16-3-10.4-3.4-20-9-28.3-16-7.1-5.8-13.5-12.4-19.6-19.1zm81.9-28.6q6 0.8 11.7 2.7c10.3 3.5 19.8 9.3 28 16.6q1.6 1.5 3.3 3.1c-0.2 0.4-0.4 0.8-0.6 1.3q-1.7-1.8-3.6-3.5c-8-7.2-17.3-13-27.5-16.5-3.8-1.4-7.8-2.3-11.9-2.9q0.3-0.4 0.6-0.8zm32.5-43.7q3.2 0.4 6.5 0.4c2.7 0 5.4-0.2 8-0.5 2.7-0.5 5.3-0.9 8-1.4q1.2-0.3 2.4-0.6 0.1 0.6 0.2 1.2-1.1 0.3-2.3 0.6c-1.4 0.4-2.7 0.5-4.1 0.8-1.3 0.3-2.6 0.5-4 0.7-2.7 0.4-5.5 0.6-8.2 0.6q-3.8-0.1-7.6-0.6 0.6-0.6 1.1-1.2z"/>
						<g id="&lt;Group&gt;">
							<path id="&lt;Path&gt;" class="s0" d="m530.7 477.1q3 0.6 6 1.1"/>
							<path id="&lt;Path&gt;" class="s0" d="m560.7 415.4q-2.7-0.5-5.8-1.1"/>
						</g>
						<g id="&lt;Group&gt;">
							<path id="&lt;Path&gt;" class="s6" d="m592.2 479.4c16-8.2 35.8-51.1 39.6-59.5 2.4-5.4 4.6-10.9 6.8-16.4 4.4-11 8.4-22.2 12.2-33.4 0.1-0.2 0.4-0.1 0.3 0.1-2.1 8.7-4.6 17.2-7.5 25.7 1.9-3.2 3.6-6.5 5.2-9.8 0.1-0.2 0.3 0 0.3 0.1-1.6 4-3.7 7.8-6.1 11.3-3 8.5-6.4 16.8-10.2 24.9-1.1 2.4-23.9 55-41.8 59.9-6.3 1.7-27.6 0.1-32.1-0.9-0.2 0-0.2-0.3 0-0.3 6.1-0.1 27.6 1.3 33.3-1.7z"/>
							<path id="&lt;Path&gt;" class="s6" d="m507.9 461.2q1.1-3.3 2.4-6.6c1.6-4.4 11.5-30.5 15.7-38.7 0.2-0.2 0.5-0.1 0.4 0.2-2.4 8.9-12.8 34.7-14.6 39q-1.3 3.2-2.7 6.5c-0.9 2.2-2.1 4.2-3 6.4-0.1 0.2-0.4 0.1-0.4-0.1 0.8-2.2 1.4-4.5 2.2-6.7z"/>
							<path id="&lt;Path&gt;" class="s6" d="m516.6 405.1c3.9 0.2 39.1 8.4 46.9 10.1 1.8 0.4 3.8 1.1 5.7 0.8 2-0.3 3.4-2 4.6-3.4 2.5-2.9 30.1-39.3 32.1-41.1 0.7-0.7 1.3-0.8 0.6 0.3-1.2 2-28 38-30.4 40.8-2.3 2.6-4.4 5.4-8.2 5.2-1.7-0.1-49.1-10.7-51.5-11.7-0.5-0.2-0.4-1 0.2-1z"/>
						</g>
					</g>
				</g>
				<g id="&lt;Group&gt;">
					<g id="&lt;Group&gt;">
						<g id="&lt;Group&gt;">
							<g id="&lt;Group&gt;">
								<path id="&lt;Path&gt;" class="s15" d="m608.9 344.2c7.1-0.1 23.1-11.9 25.4-22.7 0.2-0.8-2.8-7.3-6.1-15.3-2-4.8-4.1-10.3-5.6-15.4-0.3-1.1-29.8 17.4-29.8 17.4 0 0 6.4 9.8 9 18.8q0.3 1.1 0.4 2.2 0 0.1 0 0.3c0.6 4.2-1 14.9 6.7 14.7z"/>
							</g>
							<path id="&lt;Path&gt;" class="s6" d="m602.2 329.2q0 0.1 0 0.3 1.6-0.2 3.4-0.8c18.8-6.1 16.7-31.3 15.9-37.6-5.5 2.5-28.7 17.1-28.7 17.1 0 0 6.4 9.8 9 18.8q0.3 1.1 0.4 2.2z"/>
						</g>
						<g id="&lt;Group&gt;">
							<g id="&lt;Group&gt;">
								<path id="&lt;Path&gt;" class="s15" d="m616.6 249c6.6 10.6 9.3 45.5 3.1 55.1-9 13.9-28.2 20-41.1 8.2-12.5-11.5-15.3-57-7.9-66.2 10.8-13.5 36.2-12.7 45.9 2.9z"/>
							</g>
							<g id="&lt;Group&gt;">
								<g id="&lt;Group&gt;">
									<path id="&lt;Path&gt;" class="s6" d="m588.9 278.1c0-0.1 0.2 0.1 0.2 0.1 0.1 2.4 0.6 5.1 2.8 5.7 0.1 0 0.1 0.1 0 0.1-2.6-0.1-3.3-3.7-3-5.9z"/>
									<path id="&lt;Path&gt;" class="s6" d="m590.8 275.4c3.7-0.6 4.7 7 1.2 7.5-3.4 0.6-4.4-7-1.2-7.5z"/>
								</g>
								<g id="&lt;Group&gt;">
									<path id="&lt;Path&gt;" class="s6" d="m576 279.6c-0.1-0.1-0.2 0.1-0.2 0.2 0.4 2.3 0.4 5.1-1.6 6.1-0.1 0-0.1 0.2 0 0.1 2.5-0.6 2.5-4.3 1.8-6.4z"/>
									<path id="&lt;Path&gt;" class="s6" d="m573.6 277.4c-3.8 0.2-3.2 7.8 0.3 7.6 3.5-0.2 2.9-7.8-0.3-7.6z"/>
								</g>
								<path id="&lt;Path&gt;" class="s6" d="m593.3 271.6c-1-0.1-2-0.4-3-0.7-1.2-0.2-2.2-0.3-3-1.2-0.5-0.5-0.4-1.5 0-2 1-1.1 2.5-1.2 4-0.9 1.5 0.3 2.6 0.9 3.6 2.1 1 1.2-0.2 2.9-1.6 2.7z"/>
								<path id="&lt;Path&gt;" class="s6" d="m570.2 274c1-0.3 1.9-0.8 2.9-1.2 1.1-0.4 2-0.7 2.7-1.7 0.4-0.6 0.2-1.6-0.3-2-1.2-0.9-2.7-0.7-4-0.2-1.5 0.5-2.5 1.3-3.3 2.6-0.8 1.3 0.6 2.8 2 2.5z"/>
								<path id="&lt;Path&gt;" class="s6" d="m594.3 299c-0.5 0.6-1 1.4-1.8 1.6-0.8 0.2-1.8-0.1-2.6-0.3-0.1 0-0.1 0.1-0.1 0.1 0.7 0.9 2.1 1.3 3.1 0.9 1.1-0.3 1.5-1.2 1.6-2.2 0-0.2-0.1-0.2-0.2-0.1z"/>
								<g id="&lt;Group&gt;">
									<g id="&lt;Group&gt;">
										<path id="&lt;Path&gt;" class="s6" d="m591 292.3c-1.1 2.2-2.9 3.5-4.9 4.2-0.9 0.3-1.9 0.4-2.9 0.5q-0.3 0-0.5 0-0.3 0-0.5-0.1c-0.3 0-0.5-0.2-0.6-0.4q0-0.2 0-0.3 0 0 0 0v-0.2c-0.3-1.8-0.4-4.6-0.4-4.6-0.7 0.5-3.8 2.4-3.9 1.4-0.5-7.8-1-16.5 0.1-24.5 0.1-0.2 0.5-0.2 0.5 0.1 0.7 7.5 0.2 15.1 0.8 22.6 1.1-0.5 2.7-1.5 3.7-1.6 0.2 0.1 0.2 5.4 0.4 6.2q0 0 0 0.1c3.1 0 5.2-1.2 7.9-3.6 0.2-0.2 0.4 0 0.3 0.2z"/>
									</g>
								</g>
								<g id="&lt;Group&gt;">
									<path id="&lt;Path&gt;" class="s6" d="m584.2 295.9c0 0 1.8 2 4.1 2.5 0.9 0.2 1.7 0.2 2.6-0.2 1.8-0.7 1.7-2.4 1.1-3.8-0.4-1.2-1.1-2.2-1.1-2.2 0 0-2.4 2.9-6.7 3.7z"/>
									<path id="&lt;Path&gt;" class="s17" d="m588.3 298.4c0.9 0.2 1.8 0.2 2.6-0.2 1.8-0.7 1.7-2.4 1.1-3.8-1.9 0.4-3.7 2-3.7 4z"/>
								</g>
							</g>
							<g id="&lt;Group&gt;">
								<path id="&lt;Path&gt;" class="s6" d="m622.3 280.2c-6.4 0.7-10.3-15.1-10.3-15.1 0 0-8.5-1-14.4-14.8 0 0-1.9 15.4-28.5 18.5 0 0-3-5.8-1.4-13.9 0 0-1.9 5.8-3.2 15.5 0 0-11.3-20.1 5.2-32 6.6-4.8 17.9-6.9 36.7-2.6 0 0 0.9-10.8 3.1-10 2.3 0.9 0.8 11.2 0.8 11.2 0 0 6.9-4.1 8.5-2.8 1.4 1.1-5.3 4.7-5.3 4.7 0 0 12.2 0.9 13.4 14.4 1.2 12.4-1.4 26.6-4.6 26.9z"/>
								<path id="&lt;Path&gt;" class="s6" d="m611.4 239.2c6.6-1.9 13.8 1.6 16.4 8 1.4 3.6 1.5 7.8 1.1 11.6-0.4 4.1-1.6 7.9-2.9 11.8-0.1 0.3-0.4 0.1-0.4-0.1 1.3-3.5 1.9-7.3 2.1-11 0.1-3.5 0.1-7.3-0.9-10.7-1.9-6.7-8.6-10.5-15.3-9.2-0.2 0-0.3-0.4-0.1-0.4z"/>
								<path id="&lt;Path&gt;" class="s6" d="m583.7 231.2c4.6-0.1 9.3 0.6 13.7 1.7 4.3 1 8.6 2.4 12.3 4.8 0.2 0.1 0.1 0.4-0.2 0.3-7.6-3.3-16.3-4.6-24.6-5-7.8-0.3-16.4 1.8-20.6 9-0.1 0.2-0.2 0.1-0.2-0.1 3.5-7.4 11.8-10.5 19.6-10.7z"/>
							</g>
							<g id="&lt;Group&gt;">
								<path id="&lt;Compound Path&gt;" fill-rule="evenodd" class="s16" d="m594.4 289.6c-6.1 0.1-11.1-4.8-11.2-10.9-0.1-6.2 4.8-11.2 11-11.3 6.1 0 11.1 4.9 11.2 11 0.1 5.2-3.5 9.6-8.2 10.9q-1.4 0.3-2.8 0.3zm-9.7-11c0 5.4 4.4 9.6 9.7 9.6 5.3-0.1 9.6-4.5 9.5-9.8-0.1-5.3-4.4-9.6-9.7-9.5q-1.3 0-2.4 0.3c-4.1 1.1-7.2 5-7.1 9.4z"/>
								<path id="&lt;Compound Path&gt;" fill-rule="evenodd" class="s16" d="m571.2 292.9c-4.5 0.7-8.9-3.7-9.8-9.8-0.4-2.9 0-5.7 1.2-8 1.3-2.3 3.2-3.8 5.4-4.1 2.2-0.4 4.5 0.5 6.4 2.4 1.8 1.9 3 4.5 3.4 7.4 0.8 5.7-1.8 10.9-5.9 12q-0.3 0.1-0.7 0.1zm-7.3-17.1c-1 2-1.4 4.5-1 7.1 0.8 5.3 4.4 9.1 8.1 8.6 3.7-0.6 6.1-5.3 5.3-10.5-0.4-2.6-1.4-4.9-3-6.5-1.5-1.6-3.3-2.3-5.1-2.1q-0.3 0.1-0.5 0.1c-1.5 0.4-2.9 1.6-3.8 3.3z"/>
								<path id="&lt;Path&gt;" class="s16" d="m583.7 279.9l0.8-1.3c-1.8-1.1-6-2.5-8.2 0.8l1.2 0.8c2-2.9 6.1-0.4 6.2-0.3z"/>
								<path id="&lt;Path&gt;" class="s16" d="m633.1 275.6l1.2-0.9c-0.4-0.5-4-5.5-7.4-5.5-3.1-0.1-22.5 4.6-23.4 4.8l0.4 1.5c5.6-1.4 20.6-4.9 23-4.8 2.2 0 5.2 3.5 6.2 4.9z"/>
							</g>
							<g id="&lt;Group&gt;">
								<path id="&lt;Path&gt;" class="s15" d="m615.5 278.7c0 0 4.9-12.6 10.5-11.1 5.5 1.5 3.7 18.5-1.6 22.1-5.2 3.5-8.6-1.3-8.6-1.3z"/>
								<path id="&lt;Path&gt;" class="s6" d="m625.3 272.5c0.1-0.1 0.2 0 0.1 0.1-3.6 2.6-4.9 6.9-5.4 11.1 0.8-1.8 2.3-3 4.6-2 0.1 0 0.1 0.2 0 0.2-1.8 0.1-2.9 0.6-3.7 2.2-0.6 1.2-0.8 2.5-1.1 3.7-0.1 0.4-0.8 0.4-0.8-0.1q0 0 0-0.1c-1.3-5.1 0.9-13.3 6.3-15.1z"/>
							</g>
						</g>
					</g>
					<path id="&lt;Path&gt;" class="s6" d="m599.7 328.8c0-0.1 0.1 0 0.1 0-0.9 6.8-2.5 22.4 7.8 22.1 4.1-0.1 8.1-2.5 11.4-4.9 3.4-2.5 6.5-5.4 9.3-8.6 3.1-3.5 6.3-7.1 8.9-11.1 0.1-0.2 0.3 0 0.2 0.2-2.7 3.9-5 8.1-8.1 11.8-3 3.6-6.3 6.8-10.1 9.5-3.5 2.4-7.7 4.8-12.1 4.7-4.1-0.1-7-2.9-7.9-7-1.2-5.3-0.7-11.4 0.5-16.7z"/>
				</g>
			</g>
		</g>
	</g>
</svg>