<svg version="1.2" xmlns="http://www.w3.org/2000/svg" viewBox="0 0 1000 1000" width="1000" height="1000">
	<title>5844917-ai</title>
	<style>
		.s0 { fill: #ebebeb } 
		.s1 { fill: #dbdbdb } 
		.s2 { fill: none;stroke: #c7c7c7;stroke-width: .5 } 
		.s3 { fill: #c7c7c7 } 
		.s4 { fill: #263238 } 
		.s5 { fill: #ffffff;stroke: #c7c7c7 } 
		.s6 { fill: #37474f } 
		.s7 { fill: #ffffff } 
		.s8 { fill: #ffc727 } 
		.s9 { fill: #000000 } 
		.s10 { fill: #455a64 } 
		.s11 { opacity: .9;fill: #ffffff } 
		.s12 { fill: #a6a6a6 } 
		.s13 { fill: #d3766a } 
		.s14 { opacity: .1;fill: #000000 } 
	</style>
	<g id="Background Complete">
		<g id="&lt;Group&gt;">
			<g id="&lt;Group&gt;">
				<path id="&lt;Path&gt;" class="s0" d="m860.4 437.4h-38.4v-159.8h38.4z"/>
				<path id="&lt;Path&gt;" class="s0" d="m810 284.4h62.4l-31.2-36.7z"/>
			</g>
			<g id="&lt;Group&gt;">
				<path id="&lt;Path&gt;" class="s0" d="m178 245.8h-38.4v-65h38.4z"/>
				<path id="&lt;Path&gt;" class="s0" d="m127.6 187.6h62.4l-31.2-36.7z"/>
			</g>
			<g id="&lt;Group&gt;">
				<path id="&lt;Path&gt;" class="s0" d="m796.5 281.3h-38.4v-64.9h38.4z"/>
				<path id="&lt;Path&gt;" class="s0" d="m746.1 223.1h62.4l-31.2-36.7z"/>
			</g>
		</g>
		<g id="&lt;Group&gt;">
			<path id="&lt;Compound Path&gt;" fill-rule="evenodd" class="s0" d="m175.2 565l-26.3 0.6-13.3 0.2c-4.4 0.1-8.9 0.1-13.4 0.1h-0.9v-0.9l-0.1-22.4v-1h1l26.5 0.2c8.8 0 17.7 0.2 26.5 0.3h0.5v0.5c0 3.8-0.1 7.6-0.2 11.4zm0 0l-0.3-11.4c-0.1-3.5-0.2-7-0.3-10.5-8.6 0.1-17.3 0.3-25.9 0.3l-25.5 0.2-0.1 20.5c4.1 0 8.1 0 12.2 0.1l13.2 0.2zm-0.6-21.8q0.3 0 0.6 0l-0.6-0.6q0 0.3 0 0.6zm-51.4 0.4v-1l-1 1zm-0.1 20.5q-0.4 0-0.9 0l0.9 0.9z"/>
			<path id="&lt;Compound Path&gt;" fill-rule="evenodd" class="s0" d="m145.6 593.2l-26.2 0.6-13.3 0.2c-4.5 0.1-9 0.1-13.4 0.1h-0.9v-0.9l-0.1-22.3v-1h1l26.5 0.1c8.8 0 17.6 0.2 26.4 0.3h0.6v0.6c0 3.8-0.2 7.5-0.3 11.3zm0 0l-0.3-11.3c0-3.6-0.2-7.1-0.2-10.6-8.7 0.1-17.3 0.4-26 0.4l-25.4 0.1-0.1 20.5c4 0 8.1 0 12.2 0.1l13.1 0.2zm-0.5-21.8q0.2 0 0.5 0l-0.5-0.6q0 0.3 0 0.6zm-51.5 0.4l0.1-1-1 1zm-0.1 20.5q-0.5 0-0.9 0l0.9 0.9z"/>
			<path id="&lt;Compound Path&gt;" fill-rule="evenodd" class="s0" d="m907.3 593.2l-26.2 0.6-13.4 0.2c-4.4 0.1-8.9 0.1-13.3 0.1h-0.9v-0.9l-0.1-22.3v-1h1l26.4 0.1c8.9 0 17.7 0.2 26.5 0.3h0.6v0.6c-0.1 3.8-0.2 7.5-0.3 11.3zm0 0l-0.3-11.3c-0.1-3.6-0.2-7.1-0.2-10.6-8.7 0.1-17.3 0.4-26 0.4l-25.5 0.1-0.1 20.5c4.1 0 8.2 0 12.2 0.1l13.2 0.2zm-0.5-21.8q0.2 0 0.5 0l-0.6-0.6q0 0.3 0.1 0.6zm-51.5 0.4v-1l-1 1zm-0.1 20.5q-0.4 0-0.9 0l0.9 0.9z"/>
			<path id="&lt;Compound Path&gt;" fill-rule="evenodd" class="s0" d="m877.8 111.6l-26.3 0.5-13.3 0.3c-4.4 0.1-8.9 0-13.4 0.1h-0.9v-0.9l-0.1-22.4v-1h1l26.5 0.1c8.8 0 17.6 0.3 26.5 0.4h0.5v0.5c0 3.8-0.2 7.6-0.2 11.3zm0 0l-0.3-11.3c-0.1-3.5-0.2-7-0.3-10.5-8.6 0.1-17.3 0.3-25.9 0.3l-25.5 0.1-0.1 20.5c4.1 0.1 8.1 0 12.2 0.1l13.1 0.3zm-0.5-21.9q0.3 0 0.5 0l-0.5-0.5q0 0.3 0 0.5zm-51.4 0.5v-1l-1 1zm-0.1 20.5q-0.5 0-0.9 0l0.9 0.9z"/>
			<path id="&lt;Compound Path&gt;" fill-rule="evenodd" class="s0" d="m907.3 139.8l-26.2 0.6-13.4 0.2c-4.4 0.1-8.9 0.1-13.3 0.1h-0.9v-0.9l-0.1-22.4v-1h1l26.4 0.2c8.9 0 17.7 0.2 26.5 0.3h0.6v0.5c-0.1 3.8-0.2 7.6-0.3 11.3zm0 0l-0.3-11.3c-0.1-3.5-0.2-7-0.2-10.5-8.7 0.1-17.3 0.3-26 0.3l-25.5 0.1-0.1 20.5c4.1 0.1 8.2 0.1 12.2 0.2l13.2 0.2zm-0.5-21.9q0.2 0 0.5 0l-0.6-0.5q0 0.3 0.1 0.5zm-51.5 0.5v-1l-1 1zm-0.1 20.5q-0.4 0-0.9 0l0.9 0.9z"/>
			<path id="&lt;Compound Path&gt;" fill-rule="evenodd" class="s0" d="m559.4 680.4l-26.2 0.6-13.3 0.2c-4.5 0.1-9 0.1-13.4 0.1h-0.9v-0.9l-0.1-22.4v-1h1l26.4 0.2c8.9 0 17.7 0.2 26.5 0.3h0.6v0.5c-0.1 3.8-0.2 7.6-0.3 11.3zm0 0l-0.3-11.3c-0.1-3.5-0.2-7-0.2-10.5-8.7 0.1-17.3 0.3-26 0.3l-25.5 0.2-0.1 20.5c4.1 0 8.2 0 12.2 0.1l13.2 0.2zm-0.5-21.8q0.2-0.1 0.5-0.1l-0.5-0.5q0 0.3 0 0.6zm-51.5 0.4v-1l-1 1zm-0.1 20.5q-0.4 0-0.9 0l0.9 0.9z"/>
			<path id="&lt;Compound Path&gt;" fill-rule="evenodd" class="s0" d="m589.7 708.6l-26.2 0.6-13.4 0.2c-4.4 0.1-8.9 0.1-13.4 0.1h-0.8v-0.9l-0.2-22.4v-1l1 0.1 26.5 0.1c8.8 0 17.7 0.2 26.5 0.3h0.6l-0.1 0.5c0 3.8-0.1 7.6-0.2 11.4zm0 0l-0.3-11.4c-0.1-3.5-0.2-7-0.3-10.5-8.6 0.1-17.2 0.3-25.9 0.4l-25.5 0.1-0.1 20.5c4.1 0 8.1 0 12.2 0.1l13.2 0.2zm-0.6-21.8q0.3 0 0.6 0l-0.6-0.6q0 0.3 0 0.6zm-51.4 0.4v-1l-1 1zm-0.1 20.5q-0.4 0-0.9 0l0.9 0.9z"/>
			<path id="&lt;Compound Path&gt;" fill-rule="evenodd" class="s0" d="m529.6 708.6l-26.2 0.6-13.4 0.2c-4.4 0.1-8.9 0.1-13.4 0.1h-0.8v-0.9l-0.2-22.4v-1l1 0.1 26.5 0.1c8.9 0 17.7 0.2 26.5 0.3h0.6v0.5c-0.1 3.8-0.2 7.6-0.3 11.4zm0 0l-0.3-11.4c-0.1-3.5-0.2-7-0.2-10.5-8.7 0.1-17.3 0.3-26 0.4l-25.5 0.1-0.1 20.5c4.1 0 8.1 0 12.2 0.1l13.2 0.2zm-0.6-21.8q0.3 0 0.6 0l-0.6-0.6q0 0.3 0 0.6zm-51.4 0.4v-1l-1 1zm-0.1 20.5q-0.4 0-0.9 0l0.9 0.9z"/>
			<path id="&lt;Compound Path&gt;" fill-rule="evenodd" class="s0" d="m175.2 111.6l-26.3 0.5-13.3 0.3c-4.4 0.1-8.9 0-13.4 0.1h-0.9v-0.9l-0.1-22.4v-1h1l26.5 0.1c8.8 0 17.7 0.3 26.5 0.4h0.5v0.5c0 3.8-0.1 7.6-0.2 11.3zm0 0l-0.3-11.3c-0.1-3.5-0.2-7-0.3-10.5-8.6 0.1-17.3 0.3-25.9 0.3l-25.5 0.1-0.1 20.5c4.1 0.1 8.1 0 12.2 0.1l13.2 0.3zm-0.6-21.9q0.3 0 0.6 0l-0.6-0.5q0 0.3 0 0.5zm-51.4 0.5v-1l-1 1zm-0.1 20.5q-0.4 0-0.9 0l0.9 0.9z"/>
		</g>
		<g id="&lt;Group&gt;">
			<g id="&lt;Group&gt;">
				<path id="&lt;Path&gt;" class="s0" d="m814.2 912.1h-208.1v-287.9h208.1z"/>
				<path id="&lt;Path&gt;" class="s1" d="m824.3 624.2h-228.2v-10.7h228.2z"/>
				<path id="&lt;Path&gt;" class="s0" d="m896.1 624.2h-71.8v-10.7h71.8z"/>
				<path id="&lt;Path&gt;" class="s1" d="m884.7 912.1h-70.5v-287.9h70.5z"/>
				<g id="&lt;Group&gt;">
					<path id="&lt;Path&gt;" class="s2" d="m791.6 757.2h-162.8v-91.8h162.8z"/>
					<g id="&lt;Group&gt;">
						<path id="&lt;Path&gt;" class="s3" d="m719.2 710.4h-31.8v-18.3h31.8z"/>
						<path id="&lt;Path&gt;" class="s2" d="m728.6 709h-31.8v-15.5h31.8z"/>
					</g>
				</g>
				<g id="&lt;Group&gt;">
					<path id="&lt;Path&gt;" class="s2" d="m791.6 873.1h-162.8v-91.8h162.8z"/>
					<g id="&lt;Group&gt;">
						<path id="&lt;Path&gt;" class="s3" d="m719.2 826.3h-31.8v-18.2h31.8z"/>
						<path id="&lt;Path&gt;" class="s2" d="m728.6 824.9h-31.8v-15.5h31.8z"/>
					</g>
				</g>
			</g>
		</g>
	</g>
	<g id="Floor">
		<g id="&lt;Group&gt;">
			<path id="&lt;Path&gt;" class="s4" d="m72.2 912.1l107-0.5 106.9-0.2 213.9-0.3 213.9 0.3 106.9 0.2 107 0.5-107 0.5-106.9 0.2-213.9 0.3-213.9-0.3-106.9-0.2z"/>
		</g>
	</g>
	<g id="Window">
		<g id="&lt;Group&gt;">
			<g id="&lt;Group&gt;">
				<g id="&lt;Group&gt;">
					<path id="&lt;Path&gt;" class="s5" d="m772.2 501.7h-544.4v-392.1h544.4z"/>
				</g>
				<g id="&lt;Group&gt;">
					<path id="&lt;Path&gt;" class="s6" d="m772.2 127.5h-544.4v-17.9h544.4z"/>
					<g id="&lt;Group&gt;">
						<path id="&lt;Path&gt;" class="s3" d="m242.1 118.5c0 2.5-2 4.5-4.5 4.5-2.4 0-4.4-2-4.4-4.5 0-2.4 2-4.4 4.4-4.4 2.5 0 4.5 2 4.5 4.4z"/>
						<path id="&lt;Path&gt;" class="s7" d="m260.2 118.5c0 2.5-2 4.5-4.4 4.5-2.5 0-4.5-2-4.5-4.5 0-2.4 2-4.4 4.5-4.4 2.4 0 4.4 2 4.4 4.4z"/>
						<path id="&lt;Path&gt;" class="s8" d="m278.3 118.5c0 2.5-1.9 4.5-4.4 4.5-2.4 0-4.4-2-4.4-4.5 0-2.4 2-4.4 4.4-4.4 2.5 0 4.4 2 4.4 4.4z"/>
					</g>
				</g>
			</g>
		</g>
	</g>
	<g id="Files">
		<g id="&lt;Group&gt;">
			<g id="&lt;Group&gt;">
				<g id="&lt;Group&gt;">
					<g id="&lt;Group&gt;">
						<path id="&lt;Path&gt;" class="s8" d="m861.4 563.4h-184.1v-133.5h184.1z"/>
						<path id="&lt;Path&gt;" class="s8" d="m742.3 416.1h-65v13.8h68.8z"/>
					</g>
				</g>
				<g id="&lt;Group&gt;" style="opacity: .2">
					<g id="&lt;Group&gt;">
						<path id="&lt;Path&gt;" class="s9" d="m861.4 563.4h-184.1v-133.5h184.1z"/>
						<path id="&lt;Path&gt;" class="s9" d="m742.3 416.1h-65v13.8h68.8z"/>
					</g>
				</g>
				<path id="&lt;Path&gt;" class="s7" d="m736.9 428.3h-53.2v-8h53.2z"/>
			</g>
			<g id="&lt;Group&gt;">
				<g id="&lt;Group&gt;">
					<path id="&lt;Path&gt;" class="s10" d="m840.4 476.7l28.1-106.5-106.5-28-28.1 106.5z"/>
					<g id="&lt;Group&gt;">
						<path id="&lt;Path&gt;" class="s7" d="m783.8 435.3c-1.4 5.1-6.7 8-11.8 6.6-5.1-1.5-8.1-6.8-6.6-11.9 1.4-5.1 6.7-8 11.8-6.6 5.1 1.5 8.1 6.8 6.6 11.9z"/>
						<path id="&lt;Path&gt;" class="s7" d="m790.1 386.8l7 2-13.2 46.4-7.1-2z"/>
						<path id="&lt;Path&gt;" class="s7" d="m817.5 430.4c-1.5 5.1-6.8 8-11.9 6.6-5-1.5-8-6.8-6.5-11.9 1.4-5.1 6.7-8 11.8-6.6 5.1 1.5 8.1 6.8 6.6 11.9z"/>
						<path id="&lt;Path&gt;" class="s7" d="m823.7 381.9l7.1 2-13.3 46.4-7-2z"/>
						<path id="&lt;Path&gt;" class="s7" d="m830.8 384l-42.5 9 1.8-6.2 42.4-9z"/>
						<path id="&lt;Path&gt;" class="s7" d="m827.4 395.7l-42.5 9 1.8-6.2 42.5-9z"/>
					</g>
				</g>
			</g>
			<g id="&lt;Group&gt;">
				<g id="&lt;Group&gt;">
					<g id="&lt;Group&gt;">
						<path id="&lt;Path&gt;" class="s8" d="m860.9 563.4h-184.1l-14.2-122.4h184.1z"/>
						<path id="&lt;Path&gt;" class="s8" d="m726.2 428.3h-65.1l1.5 12.7h68.8z"/>
					</g>
				</g>
			</g>
		</g>
		<g id="&lt;Group&gt;">
			<g id="&lt;Group&gt;">
				<path id="&lt;Path&gt;" class="s0" d="m693 290.6l-100.3 31-39.8-128.7 74.4-23 33.4 16.5z"/>
				<path id="&lt;Path&gt;" class="s1" d="m627.3 169.9l33.4 16.5-25.8 8z"/>
				<g id="&lt;Group&gt;">
					<path id="&lt;Path&gt;" class="s1" d="m569.3 211.5l55.8-17.3 1 3.3-55.7 17.3z"/>
				</g>
				<g id="&lt;Group&gt;">
					<path id="&lt;Path&gt;" class="s1" d="m571.9 219.8l55.8-17.2 1 3.3-55.7 17.2z"/>
				</g>
				<g id="&lt;Group&gt;">
					<path id="&lt;Path&gt;" class="s1" d="m574.5 228.2l55.8-17.3 1 3.3-55.8 17.3z"/>
				</g>
				<g id="&lt;Group&gt;">
					<path id="&lt;Path&gt;" class="s1" d="m577.1 236.5l81.7-25.3 1 3.3-81.7 25.3z"/>
				</g>
				<g id="&lt;Group&gt;">
					<path id="&lt;Path&gt;" class="s1" d="m579.7 244.9l81.7-25.3 1 3.3-81.7 25.3z"/>
				</g>
				<g id="&lt;Group&gt;">
					<path id="&lt;Path&gt;" class="s1" d="m582.3 253.2l81.7-25.3 1 3.3-81.7 25.3z"/>
				</g>
				<g id="&lt;Group&gt;">
					<path id="&lt;Path&gt;" class="s1" d="m584.8 261.5l81.7-25.2 1.1 3.3-81.7 25.2z"/>
				</g>
				<g id="&lt;Group&gt;">
					<path id="&lt;Path&gt;" class="s1" d="m587.4 269.9l81.7-25.3 1 3.3-81.6 25.3z"/>
				</g>
				<g id="&lt;Group&gt;">
					<path id="&lt;Path&gt;" class="s1" d="m590 278.2l81.7-25.3 1 3.3-81.7 25.3z"/>
				</g>
				<g id="&lt;Group&gt;">
					<path id="&lt;Path&gt;" class="s1" d="m592.6 286.6l81.7-25.3 1 3.3-81.7 25.3z"/>
				</g>
				<g id="&lt;Group&gt;">
					<path id="&lt;Path&gt;" class="s1" d="m595.2 294.9l81.7-25.3 1 3.3-81.7 25.3z"/>
				</g>
				<g id="&lt;Group&gt;">
					<path id="&lt;Path&gt;" class="s1" d="m597.8 303.3l81.7-25.3 1 3.3-81.7 25.3z"/>
				</g>
			</g>
			<g id="&lt;Group&gt;">
				<g id="&lt;Group&gt;">
					<path id="&lt;Path&gt;" class="s8" d="m811.2 349.5l-20.2-93.4-110 23.8 20.1 93.4z"/>
					<g id="&lt;Group&gt;">
						<g id="&lt;Group&gt;">
							<path id="&lt;Path&gt;" class="s8" d="m742.9 336.8l62.6-13.5-39.6-31.8z"/>
						</g>
						<g id="&lt;Group&gt;" style="opacity: .3">
							<path id="&lt;Path&gt;" class="s7" d="m742.9 336.8l62.6-13.5-39.6-31.8z"/>
						</g>
					</g>
					<g id="&lt;Group&gt;">
						<g id="&lt;Group&gt;">
							<path id="&lt;Path&gt;" class="s8" d="m712.1 343.5l55.5-12-33.1-19.1z"/>
						</g>
						<g id="&lt;Group&gt;" style="opacity: .5">
							<path id="&lt;Path&gt;" class="s7" d="m712.1 343.5l55.5-12-33.1-19.1z"/>
						</g>
					</g>
					<g id="&lt;Group&gt;">
						<g id="&lt;Group&gt;">
							<path id="&lt;Path&gt;" class="s8" d="m811.2 349.5l-110.1 23.8-5.7-26.3 110.1-23.7z"/>
						</g>
						<g id="&lt;Group&gt;" style="opacity: .5">
							<path id="&lt;Path&gt;" class="s7" d="m811.2 349.5l-110.1 23.8-5.7-26.3 110.1-23.7z"/>
						</g>
					</g>
					<path id="&lt;Path&gt;" class="s11" d="m708.7 314.2c6.3-0.2 10.3-6.4 7.9-12.1-1.4-3.2-4.7-5.3-8.1-5.2-6.3 0.1-10.3 6.4-7.9 12.1 1.4 3.2 4.7 5.3 8.1 5.2z"/>
				</g>
			</g>
		</g>
	</g>
	<g id="Cloud">
		<g id="&lt;Group&gt;">
			<g id="&lt;Group&gt;">
				<g id="&lt;Group&gt;">
					<g id="&lt;Group&gt;">
						<path id="&lt;Path&gt;" class="s8" d="m377.4 306.1c0 16.7 12.9 30.3 29.2 31.5v0.1h178.9c20.5 0 37.1-16.6 37.1-37.1 0-19.4-14.8-35.3-33.6-37-1.1-33.6-28.7-60.5-62.5-60.5-27 0-50 17-58.8 40.9-4.9-2.5-10.6-3.9-16.5-3.9-19.8 0-35.9 15.4-37.1 34.8q-2.5-0.4-5.1-0.4c-17.5 0-31.6 14.2-31.6 31.6z"/>
					</g>
				</g>
				<g id="&lt;Group&gt;">
					<path id="&lt;Path&gt;" class="s7" d="m519.2 337.7h-38.4v-46h38.4z"/>
					<path id="&lt;Path&gt;" class="s7" d="m468.8 298.5h62.4l-31.2-36.7z"/>
				</g>
			</g>
			<g id="&lt;Group&gt;">
				<path id="&lt;Path&gt;" class="s0" d="m604.3 400.1h-208.6v-15.4h208.6z"/>
				<path id="&lt;Path&gt;" class="s8" d="m403.4 398.1h-5.8v-11.4h5.8z"/>
				<path id="&lt;Path&gt;" class="s8" d="m410.7 398.1h-5.7v-11.4h5.7z"/>
				<path id="&lt;Path&gt;" class="s8" d="m418 398.1h-5.7v-11.4h5.7z"/>
				<path id="&lt;Path&gt;" class="s8" d="m425.3 398.1h-5.7v-11.4h5.7z"/>
				<path id="&lt;Path&gt;" class="s8" d="m432.7 398.1h-5.8v-11.4h5.8z"/>
				<path id="&lt;Path&gt;" class="s8" d="m440 398.1h-5.8v-11.4h5.8z"/>
				<path id="&lt;Path&gt;" class="s8" d="m447.3 398.1h-5.8v-11.4h5.8z"/>
				<path id="&lt;Path&gt;" class="s8" d="m454.6 398.1h-5.7v-11.4h5.7z"/>
				<path id="&lt;Path&gt;" class="s8" d="m461.9 398.1h-5.7v-11.4h5.7z"/>
				<path id="&lt;Path&gt;" class="s8" d="m469.2 398.1h-5.7v-11.4h5.7z"/>
				<path id="&lt;Path&gt;" class="s8" d="m476.5 398.1h-5.7v-11.4h5.7z"/>
				<path id="&lt;Path&gt;" class="s8" d="m483.9 398.1h-5.8v-11.4h5.8z"/>
				<path id="&lt;Path&gt;" class="s8" d="m491.2 398.1h-5.8v-11.4h5.8z"/>
				<path id="&lt;Path&gt;" class="s8" d="m498.5 398.1h-5.7v-11.4h5.7z"/>
				<path id="&lt;Path&gt;" class="s8" d="m505.8 398.1h-5.7v-11.4h5.7z"/>
			</g>
			<g id="&lt;Group&gt;">
				<path id="&lt;Compound Path&gt;" class="s4" d="m474.5 374.1c-2 0-3.6-1.6-3.6-3.6v-4.4c0-0.4 0.3-0.7 0.7-0.7 0.3 0 0.7 0.3 0.7 0.7v4.4c0 1.2 1 2.3 2.2 2.3 1.2 0 2.2-1.1 2.2-2.3v-4.4c0-0.4 0.3-0.7 0.7-0.7 0.4 0 0.7 0.3 0.7 0.7v4.4c0 2-1.6 3.6-3.6 3.6z"/>
				<path id="&lt;Compound Path&gt;" fill-rule="evenodd" class="s4" d="m484 370.7h-1.5v2.8c0 0.3-0.3 0.6-0.7 0.6-0.4 0-0.7-0.3-0.7-0.6v-7.4c0-0.4 0.3-0.7 0.7-0.7h2.2c1.5 0 2.7 1.2 2.7 2.7 0 1.4-1.2 2.6-2.7 2.6zm-1.5-1.4h1.5c0.7 0 1.3-0.5 1.3-1.2 0-0.8-0.6-1.3-1.3-1.3h-1.5z"/>
				<path id="&lt;Compound Path&gt;" class="s4" d="m488.4 373.5v-7.4c0-0.4 0.3-0.7 0.7-0.7 0.4 0 0.7 0.3 0.7 0.7v6.7h3.4c0.4 0 0.7 0.3 0.7 0.7 0 0.3-0.3 0.6-0.7 0.6h-4.1q0 0 0 0 0 0 0 0c-0.4 0-0.7-0.3-0.7-0.6z"/>
				<path id="&lt;Compound Path&gt;" fill-rule="evenodd" class="s4" d="m501.9 366.5c0.8 0.8 1.3 1.9 1.3 3.1 0 1.3-0.5 2.4-1.3 3.2-0.8 0.8-1.9 1.3-3 1.3-1.2 0-2.3-0.5-3.1-1.3-0.8-0.8-1.2-1.9-1.2-3.2 0-1.2 0.4-2.3 1.2-3.1 0.8-0.9 1.9-1.4 3.1-1.4 1.1 0 2.2 0.5 3 1.4zm-0.2 3.1c0-0.8-0.3-1.6-0.8-2.2-0.6-0.5-1.3-0.9-2-0.9-0.8 0-1.5 0.4-2 0.9-0.6 0.6-0.9 1.4-0.9 2.2 0 0.9 0.3 1.7 0.9 2.2 0.5 0.6 1.2 0.9 2 0.9 0.7 0 1.4-0.3 2-0.9 0.5-0.5 0.8-1.3 0.8-2.2z"/>
				<path id="&lt;Compound Path&gt;" fill-rule="evenodd" class="s4" d="m509.6 372.1h-3l-0.7 1.6c-0.1 0.3-0.3 0.4-0.6 0.4q-0.1 0-0.2 0c-0.4-0.1-0.6-0.5-0.5-0.9l2.8-7.4c0.1-0.3 0.4-0.4 0.7-0.4 0.3 0 0.5 0.1 0.6 0.4l2.8 7.4c0.1 0.4 0 0.8-0.4 0.9q-0.1 0-0.2 0c-0.3 0-0.6-0.1-0.7-0.4zm-0.5-1.4l-1-2.7-1 2.7z"/>
				<path id="&lt;Compound Path&gt;" fill-rule="evenodd" class="s4" d="m513.2 373.5v-7.4c0-0.4 0.3-0.7 0.7-0.7h1.5c2.4 0 4.4 1.9 4.4 4.3 0 2.5-2 4.4-4.4 4.4h-1.5c-0.4 0-0.7-0.3-0.7-0.6zm1.4-0.7h0.8c1.7-0.1 3-1.4 3-3.1 0-1.6-1.3-2.9-3-2.9h-0.8z"/>
				<path id="&lt;Compound Path&gt;" class="s4" d="m522.4 372.4c0.5 0 0.9 0.4 0.9 0.9 0 0.5-0.4 0.9-0.9 0.9-0.5 0-0.9-0.4-0.9-0.9 0-0.5 0.4-0.9 0.9-0.9z"/>
				<path id="&lt;Compound Path&gt;" class="s4" d="m525.3 372.4c0.5 0 0.9 0.4 0.9 0.9 0 0.5-0.4 0.9-0.9 0.9-0.5 0-0.9-0.4-0.9-0.9 0-0.5 0.4-0.9 0.9-0.9z"/>
				<path id="&lt;Compound Path&gt;" class="s4" d="m528.2 372.4c0.5 0 0.9 0.4 0.9 0.9 0 0.5-0.4 0.9-0.9 0.9-0.5 0-0.9-0.4-0.9-0.9 0-0.5 0.4-0.9 0.9-0.9z"/>
			</g>
		</g>
	</g>
	<g id="Character">
		<g id="&lt;Group&gt;">
			<g id="&lt;Group&gt;">
				<g id="&lt;Group&gt;">
					<g id="&lt;Group&gt;">
						<g id="&lt;Group&gt;">
							<path id="&lt;Path&gt;" class="s1" d="m313.4 650.7l5.6 33.5 37.8 227.9h6.1l-27.5-227.9-4.1-33.5z"/>
						</g>
					</g>
					<path id="&lt;Path&gt;" class="s12" d="m331.3 650.7h-17.9l5.6 33.5h16.4z"/>
				</g>
				<g id="&lt;Group&gt;">
					<g id="&lt;Group&gt;">
						<g id="&lt;Group&gt;">
							<path id="&lt;Path&gt;" class="s1" d="m194.5 912.1h6.1l37.9-227.9 5.6-33.5h-18l-4 33.5z"/>
						</g>
					</g>
					<path id="&lt;Path&gt;" class="s12" d="m226.1 650.7l-4 33.5h16.4l5.6-33.5z"/>
				</g>
				<g id="&lt;Group&gt;">
					<g id="&lt;Group&gt;">
						<g id="&lt;Group&gt;">
							<path id="&lt;Path&gt;" class="s1" d="m81 912.1h6.1l37.9-227.9 5.6-33.5h-18l-4.1 33.5z"/>
						</g>
					</g>
					<path id="&lt;Path&gt;" class="s12" d="m108.5 684.2h16.5l5.6-33.5h-18z"/>
				</g>
				<path id="&lt;Path&gt;" class="s1" d="m90.7 666.4h277.3v-29.2h-103.8l-34.9-203h-128z"/>
				<path id="&lt;Path&gt;" class="s12" d="m90.7 666.4h15.1l9.9-232.2h-14.4z"/>
			</g>
			<g id="&lt;Group&gt;">
				<g id="&lt;Group&gt;">
					<g id="&lt;Group&gt;">
						<g id="&lt;Group&gt;">
							<path id="&lt;Path&gt;" class="s13" d="m367.4 915.4c-5 0.5-141.6-32.2-145.9-36.6-0.5-0.5 2.2-12.9 6.1-29.8l0.1-0.4c2.5-10.7 42.3-97.5 42.3-97.5l88.6 24.8-40.3 80.5c0 0 16.6 12.1 30.9 23.5q0 0 0 0c8.8 7.1 16.4 13.4 18 15.4 4.2 5.3 5.2 19.7 0.2 20.1z"/>
							<path id="&lt;Path&gt;" class="s7" d="m367.4 915.4c-5 0.5-141.6-32.2-145.9-36.6-0.5-0.5 2.2-12.9 6.1-29.8l0.1-0.4c0.9-4 7-18.6 14.4-35.3 14.5 4 66.7 18.1 85.7 24l-9.5 19.1c0 0 16.6 12.1 30.9 23.5q0 0 0 0c8.8 7.1 16.4 13.4 18 15.4 4.2 5.4 5.2 19.7 0.2 20.1z"/>
							<g id="&lt;Group&gt;">
								<path id="&lt;Path&gt;" class="s8" d="m367.8 916.1c-5.1 0.4-141.8-32.6-146.2-37.2-1.7-1.7 1.3-23.3 8.8-46.1l88.1 21.4c0 0 45 35.7 49.3 41.2 4.3 5.5 5.2 20.2 0 20.7z"/>
								<g id="&lt;Group&gt;">
									<g id="&lt;Group&gt;">
										<path id="&lt;Path&gt;" class="s4" d="m367.2 910.1c-22.8-6.1-115.2-28.5-138.2-32.8-0.2-0.1-0.2 0.1 0 0.1 22.4 6.6 115 28.3 138.1 33.1 0.5 0.1 0.6-0.2 0.1-0.4z"/>
										<path id="&lt;Path&gt;" class="s4" d="m360.2 888.3c-5.4-1.5-11.3-0.2-15.1 2.3-3.6 2.4-7.1 6.2-8 11-0.1 0.1 0.2 0.2 0.2 0.1 3.5-8.7 13.6-14.6 22.8-13.1 0.2 0.1 0.3-0.2 0.1-0.3z"/>
										<path id="&lt;Path&gt;" class="s4" d="m325.2 858.2c-9.2-2.3-20.6-1.7-28.1 4.5-0.3 0.2 0 0.6 0.4 0.5 9.3-2.2 17.9-3.5 27.5-3.8 0.7 0 0.8-1 0.2-1.2z"/>
										<path id="&lt;Path&gt;" class="s4" d="m331.6 862.7c-9.2-2.3-20.6-1.7-28.1 4.4-0.3 0.3 0.1 0.7 0.4 0.6 9.3-2.3 17.9-3.5 27.6-3.8 0.6-0.1 0.7-1 0.1-1.2z"/>
										<path id="&lt;Path&gt;" class="s4" d="m338 867.2c-9.2-2.4-20.6-1.7-28.1 4.4-0.3 0.3 0.1 0.7 0.4 0.6 9.3-2.3 17.9-3.6 27.6-3.9 0.6 0 0.7-1 0.1-1.1z"/>
										<path id="&lt;Path&gt;" class="s4" d="m344.4 871.6c-9.1-2.3-20.6-1.6-28.1 4.5-0.3 0.2 0.1 0.6 0.4 0.6 9.3-2.3 18-3.6 27.6-3.9 0.7 0 0.7-1 0.1-1.2z"/>
										<path id="&lt;Path&gt;" class="s4" d="m240.1 856.9c-10.3-2.4-14.1 13.6-3.8 16 10.3 2.5 14.1-13.5 3.8-16z"/>
									</g>
									<path id="&lt;Compound Path&gt;" fill-rule="evenodd" class="s4" d="m337 849.4c-6.5 5.2-15 7.4-22.6 10.3-0.8 0.3-1.5-0.4-1.5-1.1-0.1 0-0.3-0.1-0.2-0.3 2.4-7.8 7.8-16.1 14-21.5 3.8-3.3 10.6-5.6 14.3-0.6 3.5 4.7-0.2 10.2-4 13.2zm2.3-7.5c1.5-10.2-9.4-4.7-12.1-2.1-1.8 1.6-3.3 3.5-4.9 5.3-3.1 3.9-5.7 8.2-8.4 12.4 3.6-1.7 7.4-3 11.1-4.6 4.4-1.8 13.4-5.4 14.3-11z"/>
									<path id="&lt;Compound Path&gt;" fill-rule="evenodd" class="s4" d="m281.5 844.5c2.2-5.8 9.4-5.4 14-3.3 7.4 3.4 14.9 9.8 19.4 16.6 0.1 0.2 0 0.3-0.1 0.4 0.1 0.7-0.3 1.6-1.1 1.5-8.1-0.7-16.9-0.4-24.6-3.5-4.5-1.9-9.6-6.2-7.6-11.7zm20.1 11.7c4 0.4 8 0.6 11.9 1.2-3.8-3.2-7.4-6.6-11.5-9.5-2-1.3-4.1-2.7-6.2-3.8-3.3-1.6-15.3-3.9-11 5.5 2.4 5.2 12 6 16.8 6.6z"/>
								</g>
							</g>
						</g>
						<g id="&lt;Group&gt;">
							<path id="&lt;Path&gt;" class="s4" d="m328.3 849l-94.9-28.4c0 0 78.2-162.9 75.7-171.2-1.6-5.5-118.8-5.9-153.1-36.7-35.6-32-7.9-94.7-7.9-94.7l98.5-0.5c0 0-1.7 20.6 2.1 23.8 2.5 2.1 137.2 14 163 63.5 23.4 45-83.4 244.2-83.4 244.2z"/>
							<path id="&lt;Path&gt;" class="s4" d="m309.2 649.4c0.4 1.4-1.5 7.3-5 16l70.8 87c25.3-57.5 49-123.9 36.7-147.6-25.8-49.5-160.5-61.4-163-63.5-3.8-3.2-2.1-23.8-2.1-23.8l-62.5 0.3 103.9 127.7c12.5 1.4 20.7 2.5 21.2 3.9z"/>
							<g id="&lt;Group&gt;">
								<g id="&lt;Group&gt;">
									<path id="&lt;Path&gt;" class="s10" d="m330.6 829c-2.4-1.3-5.1-2-7.7-2.9-2.7-0.9-5.5-1.9-8.2-2.8q-8.1-2.6-16.3-4.9c-11-3.1-22.1-6.2-33.2-9-5.8-1.5-18.1-4.7-18.9-4.5-0.4 0-0.5 0.6-0.1 0.7 10.7 3.9 21.6 7.2 32.5 10.5 10.8 3.3 21.7 6.6 32.7 9.4 3.1 0.7 6.1 1.4 9.2 2.1 3.2 0.8 6.4 1.8 9.8 2.1 0.3 0.1 0.6-0.5 0.2-0.7z"/>
								</g>
								<path id="&lt;Path&gt;" class="s10" d="m153.4 536.8q0.4-4.9 1-9.9c0.1-0.3 0.7-0.3 0.6 0-1.3 13.4-2.6 27-0.2 40.3 2.3 12.4 8.4 23.3 17.6 31.9 19.6 18.2 46.9 23.6 72.4 27.9 14.6 2.5 29.2 4.4 44 5.9q10.8 1 21.6 1.7c7.2 0.4 14.4 0.5 21.5 0.9 2.3 0.1 4.3 1.2 4 3.8-0.2 1.5-1.1 3-1.7 4.5q-1.2 2.6-2.4 5.2-4.3 9.8-8.6 19.5-9 20.1-18.3 40-18.4 39.6-38.1 78.6-2.4 4.8-4.9 9.7c-0.1 0.2-0.4 0-0.3-0.2 12.6-26.3 25-52.7 37.2-79.2 6.1-13.1 12.2-26.2 18.2-39.4q4.5-9.8 9-19.7 2.2-5 4.4-9.9 1.1-2.5 2.2-5c0.6-1.4 2.9-4.7 1.3-5.9-1-0.9-3.1-0.6-4.4-0.6q-2.8-0.1-5.7-0.2-5.4-0.2-10.8-0.5-11-0.5-22-1.5c-14.3-1.2-28.6-3-42.8-5.3-25.3-4.1-52.8-8.7-73.1-25.7-8.9-7.5-15.9-17.1-19.4-28.3-3.9-12.5-3.5-25.8-2.3-38.6z"/>
							</g>
						</g>
					</g>
					<g id="&lt;Group&gt;">
						<g id="&lt;Group&gt;">
							<path id="&lt;Path&gt;" class="s13" d="m575.7 790.6c-3.5 3.5-129.6 65.5-135.7 64.8-0.7-0.1-6.6-11.3-14.3-26.9l-0.2-0.3c-4.9-9.9-49.7-92.7-49.7-92.7l78.4-39.7 46.1 80.6c0 0 20.5-1.3 38.8-1.6q0 0 0 0c11.3-0.2 21.2-0.2 23.7 0.4 6.6 1.4 16.5 11.8 12.9 15.4z"/>
							<path id="&lt;Path&gt;" class="s7" d="m575.7 790.6c-3.5 3.5-129.6 65.5-135.7 64.8-0.7-0.1-6.6-11.3-14.3-26.9l-0.2-0.3q-0.5-1-1-2.1-0.4-0.7-0.8-1.5-0.6-1.1-1.2-2.2c-3.4-6.5-9-16.9-15.2-28.4l80-40.3 13 22.7c0 0 20.5-1.3 38.8-1.6q0 0 0 0c11.3-0.2 21.2-0.2 23.7 0.4 6.6 1.4 16.5 11.8 12.9 15.4z"/>
							<g id="&lt;Group&gt;">
								<path id="&lt;Path&gt;" class="s8" d="m576.5 790.8c-3.7 3.6-130 65.3-136.4 64.6-2.3-0.2-13.8-18.8-22.5-41.2l81.5-39.7c0 0 57.3-1.2 64.2 0.4 6.8 1.5 16.9 12.3 13.2 15.9z"/>
								<g id="&lt;Group&gt;">
									<g id="&lt;Group&gt;">
										<path id="&lt;Path&gt;" class="s4" d="m572.2 786.6c-21.4 9.8-106.9 51.5-127.4 62.8-0.1 0.1-0.1 0.2 0.1 0.1 21.4-9.2 106.6-51.6 127.5-62.5 0.4-0.3 0.3-0.6-0.2-0.4z"/>
										<path id="&lt;Path&gt;" class="s4" d="m552.9 774.3c-5.1 2.2-8.8 7-10.1 11.3-1.2 4.2-1.5 9.3 0.8 13.7 0 0.1 0.3 0 0.2-0.2-2.8-8.9 1.2-19.8 9.3-24.6 0.1-0.1 0-0.3-0.2-0.2z"/>
										<path id="&lt;Path&gt;" class="s4" d="m506.7 773.4c-8.5 4.1-16.9 11.8-18.7 21.3-0.1 0.4 0.4 0.5 0.6 0.3 5.7-7.7 11.6-14.2 18.8-20.6 0.5-0.4 0-1.3-0.7-1z"/>
										<path id="&lt;Path&gt;" class="s4" d="m514.5 772.8c-8.5 4-16.9 11.8-18.7 21.3-0.1 0.4 0.4 0.5 0.6 0.2 5.7-7.7 11.6-14.2 18.8-20.5 0.5-0.5-0.1-1.3-0.7-1z"/>
										<path id="&lt;Path&gt;" class="s4" d="m522.3 772.1c-8.5 4.1-16.9 11.9-18.8 21.4 0 0.3 0.5 0.4 0.7 0.2 5.7-7.7 11.6-14.2 18.8-20.6 0.5-0.4-0.1-1.2-0.7-1z"/>
										<path id="&lt;Path&gt;" class="s4" d="m530.1 771.5c-8.5 4-16.9 11.8-18.8 21.3 0 0.4 0.5 0.5 0.7 0.2 5.7-7.7 11.6-14.2 18.8-20.5 0.5-0.5-0.1-1.3-0.7-1z"/>
										<path id="&lt;Path&gt;" class="s4" d="m440.4 826.7c-9.5 4.6-2.3 19.4 7.3 14.7 9.4-4.6 2.2-19.4-7.3-14.7z"/>
									</g>
									<path id="&lt;Compound Path&gt;" fill-rule="evenodd" class="s4" d="m510.3 759.1c-1.7 8.1-6.9 15.2-10.9 22.4-0.4 0.7-1.4 0.5-1.9 0-0.1 0.1-0.3 0.1-0.3-0.1-3.1-7.5-4.3-17.3-2.9-25.4 0.8-5 4.5-11.1 10.6-9.7 5.7 1.4 6.3 8 5.4 12.8zm-3.1-7.2c-5.3-8.8-10.2 2.3-10.7 6-0.3 2.4-0.3 4.8-0.3 7.2 0.1 5.1 0.8 10 1.4 14.9 1.7-3.6 3.8-7 5.7-10.6 2.2-4.2 6.9-12.7 3.9-17.5z"/>
									<path id="&lt;Compound Path&gt;" fill-rule="evenodd" class="s4" d="m464.4 790.7c-2-5.9 3.7-10.1 8.6-11.5 7.9-2.1 17.8-1.9 25.6 0.5 0.2 0 0.2 0.2 0.1 0.3 0.6 0.5 0.9 1.4 0.2 1.9-6.7 4.7-13.3 10.5-21.3 12.9-4.6 1.5-11.3 1.4-13.2-4.1zm22.9-3.8c3.3-2.2 6.5-4.6 10-6.7-5-0.1-10-0.3-15 0.1-2.4 0.2-4.8 0.5-7.2 1-3.6 0.8-14.2 6.7-4.9 11.2 5.1 2.5 13.1-3 17.1-5.6z"/>
								</g>
							</g>
						</g>
						<g id="&lt;Group&gt;">
							<path id="&lt;Path&gt;" class="s4" d="m499.9 763.4l-94.6 47.2c0 0-73.8-150-81.9-159.7-10.8-12.9-151.4 5.3-184.5-36.3-34.3-43-4.9-96.5-4.9-96.5l107-0.1c0 0 0.3 11.9-5.9 29.3 0 0 122.4-7.3 157 26.3 26.6 25.9 107.8 189.8 107.8 189.8z"/>
							<g id="&lt;Group&gt;">
								<path id="&lt;Path&gt;" class="s10" d="m215.6 558.1c5.5-3.8 11.2-7.3 17.1-10.4 2.9-1.6 9-4.3 12.8-5.3 3.2-0.7 4.5-0.9 1.6 0.4-1.7 0.8-4.9 2.4-7.9 3.8q0.9 0 1.7-0.1 3.1-0.1 6.3-0.2c4.1-0.1 8.2-0.1 12.4-0.1 8.3-0.1 16.6 0.7 24.9 1.1 0.2 0.1 0.2 0.4 0 0.4-8.3-0.3-16.7 0.2-25 0.1-4.1 0-8.2 0.1-12.3 0.2q-3.1 0.1-6.1 0.1c-1.6 0-3.4 0.2-5.1 0-0.9 0.4-1.7 0.8-2.3 1.1-6 2.9-12.1 5.8-17.9 9.1-0.2 0.1-0.3-0.1-0.2-0.2z"/>
								<path id="&lt;Path&gt;" class="s10" d="m243.5 514c-1.1 5.1-2 10.2-3.3 15.2-0.6 2.3-1.1 4.6-1.9 6.8-0.7 1.9-1.7 4.1-3.8 4.6-2.5 0.6-3.3-1.6-3.2-3.6 0.2-2.3 0.7-4.6 1.1-6.9q0.6-3.9 1.2-7.9 0.3-1.9 0.6-3.9c0-0.3 0.2-2.8 0.4-3.6 0 0.1 0 0.2 0.1 0.1q0 0 0.1 0c0.1 0 0.1 0 0.1-0.1 0.1-0.2 0.1-0.2-0.1-0.4q-0.1-0.1-0.2 0c-0.5 0.3-0.5 0.9-0.6 1.4q-0.6 1.9-1.1 3.9-0.9 3.6-1.7 7.2-0.8 3.7-1.6 7.3c-0.4 1.9-0.8 3.8-0.3 5.6 0.6 2 2.3 3 4.1 3.1q-0.2 0.2-0.3 0.5c-0.2 0.5-0.3 1-0.5 1.5q-0.3 0.8-0.5 1.6-0.1 0.4-0.1 0.8c0 0.3 0.1 0.6 0 0.9 0 0.4 0.6 0.7 0.8 0.2 0.1-0.3 0.3-0.5 0.5-0.7 0.1-0.3 0.2-0.6 0.3-0.9q0.2-0.7 0.4-1.5c0.1-0.5 0.2-1 0.3-1.5q0.1-0.5 0.1-0.9c1-0.2 2-0.6 2.8-1.2 1.5-1.2 2.3-3 2.9-4.7 0.6-2.1 1.2-4.3 1.7-6.5 1.2-5.3 2.3-10.7 2.6-16.2 0.1-0.6-0.8-0.8-0.9-0.2z"/>
								<path id="&lt;Path&gt;" class="s10" d="m191.9 528.4c-0.4 2.5-0.6 5-1 7.5-0.5 2.4-1.1 4.9-1.8 7.2-0.7 2.3-1.6 4.6-2.9 6.6-1.2 1.9-2.9 3.6-4.6 5.1-3.5 2.9-7.4 5.3-11.6 7q-3.2 1.2-6.5 2.1-1.7 0.4-3.4 0.7c-1 0.2-2 0.2-2.8 0.8-0.4 0.2-0.3 0.8 0.1 0.9 1.5 0.7 3.6 0.2 5.2 0q2.8-0.4 5.5-1.1c3.6-1.1 7.2-2.8 10.4-4.8 3.1-2 6.2-4.5 8.5-7.5 2.3-3.1 3.6-6.7 4.3-10.4 0.9-4.6 1.5-9.5 1.1-14.1 0-0.2-0.4-0.3-0.5 0z"/>
								<g id="&lt;Group&gt;">
									<path id="&lt;Path&gt;" class="s10" d="m480.7 746.2c-2.7 0.8-5.1 2.1-7.6 3.2-2.6 1.2-5.3 2.4-7.9 3.6q-7.7 3.7-15.2 7.6c-10.2 5.3-20.3 10.7-30.3 16.3-5.2 2.9-16.4 9-16.9 9.6-0.2 0.3 0.1 0.8 0.5 0.7 10.4-4.6 20.5-9.6 30.7-14.7 10.2-5.1 20.4-10.1 30.3-15.7 2.7-1.5 5.4-3.1 8.2-4.7 2.8-1.6 5.9-3.1 8.5-5.2 0.2-0.2 0.1-0.8-0.3-0.7z"/>
								</g>
								<path id="&lt;Path&gt;" class="s10" d="m134 543c0.1-0.5 0.8-0.5 0.8 0-0.2 23.2 3.3 49.2 21.2 65.9 19.6 18.3 47.9 20.4 73.4 20.2 14.6-0.1 29.2-0.5 43.8 0 14.7 0.5 29.5 1.2 44.1 3 5.9 0.8 10.8 2.9 15 7.2 4 4.2 6.9 9.3 9.9 14.3q11 18.2 21.3 36.9c13.7 24.7 26.4 50 38.1 75.8q2.1 4.8 4.3 9.6c0.1 0.2-0.3 0.4-0.4 0.2-11.8-25.9-24.6-51.3-38.2-76.3q-10.2-18.7-21.1-37.1c-3.4-5.7-6.7-11.6-10.5-17.1-3.3-4.9-7.5-9.5-13.4-11.2-3.5-1.1-7.2-1.3-10.8-1.6q-5.6-0.5-11.3-0.9-10.9-0.8-21.8-1.2c-14.8-0.6-29.5-0.4-44.2-0.1-25.6 0.4-53.5-0.4-74.8-16.7-9.1-7.1-15.7-16.7-19.7-27.5-4-11.1-5.4-23-5.7-34.6q-0.1-4.4 0-8.8z"/>
								<path id="&lt;Path&gt;" class="s10" d="m287.2 644.8c5.2 0 10.4 0.3 15.6 0.4 4.4 0.2 8.8 0.1 13 1.2 4 1 7.1 1.5 10.3 5.9 4.1 5.5 26 47.9 35.2 66.7q3.9 7.8 7.6 15.7c2.6 5.4 4.8 11 7.4 16.4 0.1 0.2-0.2 0.4-0.3 0.2-2.3-4.6-4.8-9-7.1-13.5-2.4-4.5-4.6-9-6.9-13.6q-6.8-13.7-13.7-27.4c-4.6-9.1-10.2-17.9-14.8-27-3.9-7.6-9.2-17.9-12.9-19.5-4.4-1.8-11.5-3.6-16.2-3.9-5.7-0.4-11.5-0.7-17.2-1.2-0.3-0.1-0.3-0.4 0-0.4z"/>
							</g>
						</g>
					</g>
				</g>
				<g id="&lt;Group&gt;">
					<path id="&lt;Path&gt;" class="s4" d="m199.9 312.5c-19.3 16.5-13.9 40.7-22 53.8-4.9 8-21 16.4-24.2 25.6-5.2 15.2 7.6 20.6 4.8 28.9-4.1 11.6-19.7 10.7-22.5 29.8-2.9 19.1 18.1 39.4 68 44.9 49.8 5.5 77.2-12.7 79-28.9 1.8-16.2-14.8-21.6-15.9-33.7-0.7-7.7 9.5-13.1 10-27.3 0.5-14.3-13.3-18.9-15.3-31-2-12.1 4.4-41.4-13.3-56.4-17.8-15-39.1-13.9-48.6-5.7z"/>
					<path id="&lt;Path&gt;" class="s4" d="m202.1 312.9c-5.5 3.9-9.7 8.9-12.8 14.8-3.2 6.2-5.4 12.9-7.1 19.6-1 4-2 8.1-3.9 11.7-1.6 3.2-4 5.9-6.7 8.3-5.4 4.9-11.8 8.6-16.6 14.1-4.6 5.2-8.2 12.1-6.4 19.2 1 3.8 3.6 7 5.1 10.5 1.5 3.4 2.1 7.7-0.8 10.5-2.5 2.4-6.1 3.5-8.9 5.5-2.8 1.9-5.3 4.3-7.3 7.1-4.1 5.5-5.9 12.3-4.6 19.1 3 15.5 17.5 24.4 30.9 29.9q2.8 1.2 5.7 2.3c0.3 0.1 0.5-0.3 0.2-0.4-13.5-6.1-29.1-13.2-34.3-28.2-2.3-6.8-1.6-14 2.3-20 1.9-2.9 4.4-5.5 7.2-7.5 2.7-2 5.8-3.3 8.6-5.2 2.7-1.9 4.4-4.7 4.2-8.2-0.2-3.6-2-6.8-3.7-9.9-1.9-3.2-3.5-6.6-3.2-10.4 0.2-3.6 1.9-7.1 4-10 4.2-5.9 10.4-9.8 16-14.3 5.6-4.5 10.1-9.8 12.1-16.8 1-3.6 1.7-7.2 2.6-10.8 0.8-3.3 1.8-6.6 2.9-9.9 2.4-6.3 5.7-12.5 10.6-17.3 1.3-1.3 2.6-2.4 4.1-3.4 0.2-0.1 0-0.4-0.2-0.3z"/>
					<path id="&lt;Path&gt;" class="s4" d="m285.2 454.7c-0.6-2.6-1.7-5.1-3.4-7.3-1.7-2.2-3.8-4-5.8-6-1.8-2-3.5-4.1-4-6.8-0.7-3.2 0.7-6.2 2.2-9 1.5-2.8 3.3-5.6 4.4-8.6 1.1-3 1.7-6.2 1.9-9.3 0.4-6.7-1.6-13-5-18.6-1.7-2.8-3.6-5.4-5.3-8.2-1.9-3-3.4-6.2-4.5-9.7-2.2-7.5-2.7-15.4-4.5-23-1.9-7.8-4.7-15.3-8.1-22.6-0.1-0.2-0.4 0-0.3 0.2 3.1 6.5 5.4 13.4 7.1 20.4 1.6 6.7 2.2 13.5 3.4 20.2 0.5 3.3 1.3 6.6 2.5 9.7 1.1 2.9 2.7 5.7 4.3 8.3 3.4 5.5 6.9 11 7.8 17.5 0.9 6.4-0.2 12.9-3.2 18.6-2.6 5-6.3 10.5-4 16.3 1.9 4.9 6.6 7.8 9.7 11.9 3.5 4.5 4.5 10.3 3.4 15.7-2.7 14-16.7 20.9-29.8 21.6-0.4 0-0.4 0.7 0 0.7 11.4-0.2 23.8-5.2 29.2-15.8 2.4-5 3.3-10.8 2-16.2z"/>
				</g>
				<g id="&lt;Group&gt;">
					<g id="&lt;Group&gt;">
						<path id="&lt;Path&gt;" class="s13" d="m208.4 413.3c4.7 19.6 35.9 88 47 95.4 12.8 8.6 80.7 42.9 93.5 38.8 4.4-1.4 23.4-48.8 14.9-52.5-26-11.3-75-19.8-82-25.8-4.5-4-32.2-36.4-57.6-63.6-9.6-10.3-18.9-4.9-15.8 7.7z"/>
						<g id="&lt;Group&gt;">
							<path id="&lt;Path&gt;" class="s8" d="m204.8 412.1c2.4 12.7 13.4 36.8 13.4 36.8l47.7-7.9c0 0-27.5-31.7-47.6-42.8-8-4.4-16 1.1-13.5 13.9z"/>
							<path id="&lt;Path&gt;" class="s8" d="m204.8 412.1c2.4 12.7 13.4 36.8 13.4 36.8l47.7-7.9c0 0-27.5-31.7-47.6-42.8-8-4.4-16 1.1-13.5 13.9z"/>
							<g id="&lt;Group&gt;">
								<path id="&lt;Path&gt;" class="s7" d="m219.6 423.9c0 2.1-1.6 3.7-3.6 3.7-2 0-3.7-1.6-3.7-3.7 0-2 1.7-3.6 3.7-3.6 2 0 3.6 1.6 3.6 3.6z"/>
							</g>
							<path id="&lt;Path&gt;" class="s4" d="m217.4 442.4c7-1.6 14-3.2 21.1-4.4q5.3-0.9 10.7-1.7c3.5-0.5 7.1-0.6 10.7-1.2 0.2 0 0.2 0.3 0 0.3-3.6 0.4-7.1 1.2-10.6 1.8q-5.4 0.9-10.7 1.8c-7 1.2-14.1 2.4-21.1 3.7-0.2 0.1-0.3-0.2-0.1-0.3z"/>
							<path id="&lt;Path&gt;" class="s14" d="m255.2 442.8l-37 6.1c0 0-11-24.1-13.4-36.8-1.2-6.5 0.2-11.2 3-13.6z"/>
						</g>
					</g>
					<g id="&lt;Group&gt;">
						<g id="&lt;Group&gt;">
							<path id="&lt;Path&gt;" class="s8" d="m245.3 536.4l-129.6 4.2c0 0 39.3-112.9 67.8-139.8 13-12.3 24.8-9.6 34.3-0.6 2.4 2.3 31.2 43.8 33 57.7 1.6 12.3-9.2 25.3-9.2 25.3z"/>
							<path id="&lt;Compound Path&gt;" fill-rule="evenodd" class="s7" d="m151.8 458.5c0 2-1.6 3.7-3.7 3.7q-0.5 0-1-0.2 1.5-3.3 3.1-6.5c1 0.6 1.6 1.7 1.6 3zm45.2 0c0 2-1.6 3.7-3.6 3.7-2 0-3.7-1.7-3.7-3.7 0-2 1.7-3.6 3.7-3.6 2 0 3.6 1.6 3.6 3.6zm45.2 0c0 2-1.6 3.7-3.6 3.7-2 0-3.7-1.7-3.7-3.7 0-2 1.7-3.6 3.7-3.6 2 0 3.6 1.6 3.6 3.6zm-67.8-34.6c0 2.1-1.6 3.7-3.6 3.7-2.1 0-3.7-1.6-3.7-3.7 0-2 1.6-3.6 3.7-3.6 2 0 3.6 1.6 3.6 3.6zm45.2 0c0 2.1-1.6 3.7-3.6 3.7-2 0-3.7-1.6-3.7-3.7 0-2 1.7-3.6 3.7-3.6 2 0 3.6 1.6 3.6 3.6zm-67.8 105.3c0 2.1-1.6 3.7-3.7 3.7-2 0-3.6-1.6-3.6-3.7 0-2 1.6-3.6 3.6-3.6 2.1 0 3.7 1.6 3.7 3.6zm45.2 0c0 2.1-1.6 3.7-3.6 3.7-2 0-3.7-1.6-3.7-3.7 0-2 1.7-3.6 3.7-3.6 2 0 3.6 1.6 3.6 3.6zm45.2 0c0 2.1-1.6 3.7-3.6 3.7-2 0-3.7-1.6-3.7-3.7 0-2 1.7-3.6 3.7-3.6 2 0 3.6 1.6 3.6 3.6zm-67.8-34.5c0 2-1.6 3.6-3.6 3.6-2.1 0-3.7-1.6-3.7-3.6 0-2.1 1.6-3.7 3.7-3.7 2 0 3.6 1.6 3.6 3.7zm45.2 0c0 2-1.6 3.6-3.6 3.6-2 0-3.7-1.6-3.7-3.6 0-2.1 1.7-3.7 3.7-3.7 2 0 3.6 1.6 3.6 3.7z"/>
						</g>
						<path id="&lt;Path&gt;" class="s4" d="m233.7 483c-2.6-0.3-5.3-0.4-7.9-0.2-1.2 0.1-2.5 0.2-3.7 0.5-1.4 0.2-2.7 0.6-4.1 0.9-0.2 0.1-0.1 0.4 0.1 0.4 1.3-0.3 2.7-0.4 4.1-0.5 1.3-0.1 2.5-0.3 3.8-0.4q3.8-0.3 7.6-0.5c0.1 0 0.2-0.1 0.1-0.2z"/>
						<path id="&lt;Path&gt;" class="s4" d="m234.7 477.5c-5.9 0.2-11.5 1.1-17.2 2.7-5.8 1.7-11.6 4-17.7 4.7-0.2 0.1-0.2 0.4 0 0.4 2.9-0.3 5.8-0.6 8.7-1.1 2.9-0.4 5.7-1.2 8.6-1.8 5.9-1.3 11.6-3.5 17.7-4.5 0.2 0 0.2-0.4-0.1-0.4z"/>
					</g>
					<g id="&lt;Group&gt;">
						<g id="&lt;Group&gt;">
							<path id="&lt;Path&gt;" class="s13" d="m195.8 396.6c-0.1 2.4 7 19.4 17.2 21.5 3.4 0.6 7.8-17.5 7.8-17.5l0.7-1.2 8.8-17.7-18.5-19.6-2.7-2.7c0 0-2.1 5-4.7 11.3q-0.1 0.4-0.3 0.9-0.3 0.5-0.5 1-0.5 1.4-1.1 2.8c-0.3 0.7-0.6 1.4-0.9 2.2q-0.4 1.2-0.8 2.3c-2.8 7.6-5 15.7-5 16.7z"/>
							<path id="&lt;Path&gt;" class="s4" d="m204.4 370.7c1.7 16.2 12.1 25.2 17.1 28.7l8.8-17.7-18.5-19.6-2.7-2.7c0 0-2.1 5-4.7 11.3z"/>
						</g>
						<g id="&lt;Group&gt;">
							<path id="&lt;Path&gt;" class="s13" d="m264.9 361.2c-7 33.9-28.2 33.6-35.5 32.1-6.6-1.4-29.1-7-25.7-41.5 3.5-34.5 21.5-42 36.9-39.7 15.4 2.4 31.3 15.1 24.3 49.1z"/>
							<g id="&lt;Group&gt;">
								<path id="&lt;Path&gt;" class="s4" d="m251.5 387.5c1.5-1.2 2.8-2.6 3.9-4.1 1.1-1.5 2.1-3.1 3-4.8 1.8-3.3 3.2-6.8 4.2-10.4 1.2-3.6 1.9-7.3 2.6-11l0.8-5.7 0.6-5.6-0.1 5.7-0.5 5.7c-0.6 3.7-1.3 7.5-2.4 11.2-1.2 3.6-2.6 7.2-4.5 10.5-2 3.2-4.4 6.4-7.6 8.5z"/>
							</g>
							<g id="&lt;Group&gt;">
								<path id="&lt;Path&gt;" class="s4" d="m262 351.2c-0.8-0.3-1.5-0.7-2.2-1-0.8-0.4-1.6-0.6-2-1.5-0.3-0.4-0.1-1.1 0.3-1.4 0.9-0.7 2.1-0.5 3.1-0.1 1.1 0.5 1.8 1.2 2.4 2.2 0.5 1-0.6 2.1-1.6 1.8z"/>
								<path id="&lt;Path&gt;" class="s4" d="m238.1 348.9c0.9 0.1 1.6 0 2.4 0 1 0 1.7 0.1 2.5-0.4 0.4-0.3 0.6-1 0.3-1.4-0.5-1.1-1.7-1.4-2.8-1.4-1.2-0.1-2.1 0.2-3.1 0.9-0.9 0.7-0.3 2.2 0.7 2.3z"/>
								<g id="&lt;Group&gt;">
									<g id="&lt;Group&gt;">
										<path id="&lt;Path&gt;" class="s4" d="m241.6 358.4c0-0.1-0.2 0.1-0.2 0.2-0.4 2.3-1.3 4.9-3.5 5.3-0.1 0-0.1 0.1 0 0.1 2.6 0.2 3.7-3.3 3.7-5.6z"/>
										<path id="&lt;Path&gt;" class="s4" d="m240 355.6c-3.6-1.1-5.5 6.4-2.1 7.3 3.4 1 5.2-6.4 2.1-7.3z"/>
									</g>
									<path id="&lt;Path&gt;" class="s4" d="m238.5 355.6c-0.8 0.3-1.6 0.9-2.4 0.8-0.9-0.2-1.4-1.1-1.8-2-0.1-0.1-0.1-0.1-0.2 0-0.3 1.5-0.1 3 1.3 3.6 1.4 0.6 2.7-0.4 3.4-1.8 0.1-0.2 0-0.7-0.3-0.6z"/>
								</g>
								<g id="&lt;Group&gt;">
									<g id="&lt;Group&gt;">
										<path id="&lt;Path&gt;" class="s4" d="m254.5 361.1c0-0.1 0.1 0.1 0.1 0.2-0.7 2.3-1 5 0.8 6.3 0.1 0 0.1 0.2 0 0.1-2.4-1-1.9-4.6-0.9-6.6z"/>
										<path id="&lt;Path&gt;" class="s4" d="m257.1 359.2c3.8 0.7 2.2 8.1-1.3 7.5-3.4-0.6-1.8-8 1.3-7.5z"/>
									</g>
									<path id="&lt;Path&gt;" class="s4" d="m258.6 360c0.5 0.6 0.9 1.4 1.6 1.6 0.8 0.2 1.6-0.5 2.3-1.1 0-0.1 0.1 0 0.1 0.1-0.3 1.4-1.1 2.8-2.5 2.8-1.3 0-2-1.4-2-2.9 0-0.3 0.3-0.7 0.5-0.5z"/>
								</g>
								<path id="&lt;Path&gt;" class="s4" d="m236.7 377.2c0.4 0.7 0.7 1.6 1.5 1.9 0.8 0.3 1.8 0.2 2.6 0.1 0.1 0 0.1 0.1 0.1 0.2-0.9 0.7-2.3 0.9-3.3 0.4-0.9-0.5-1.2-1.5-1.2-2.6 0.1-0.1 0.2-0.1 0.3 0z"/>
								<g id="&lt;Group&gt;">
									<path id="&lt;Path&gt;" class="s4" d="m248.3 371.1c0 0-0.4 3.6-0.7 5.2-0.1 0.2-0.5 0.1-1.1 0q0 0.1 0 0c-3-0.2-5.6-1.9-6.8-4.6-0.1-0.2 0.1-0.3 0.3-0.2 1.7 2.1 4 3.1 6.5 3.7 0.3-0.4 0.4-6.1 0.7-6.1 0.9 0.2 2.5 1.2 3.4 1.7 0.9-7.3 0.6-14.8 1.7-22.1 0-0.3 0.4-0.3 0.4 0 0.9 7.8 0 16.3-0.7 23.9-0.1 1-3.2-1-3.7-1.5z"/>
								</g>
							</g>
							<path id="&lt;Path&gt;" class="s4" d="m205.7 355c3.8 0.4 15.2-8.2 18.5-26.2 0 0-4.1 15.9-5.7 18.1-1.6 2.1 6.4-4.9 9.3-19.3 0 0 7 7.2 13.6 10.2 6.5 3.1 10.7 3.8 11.3 3.4 0.5-0.5-9-5.3-11.2-8.9 0 0 16.8 11.5 25.1 13.6 0.9 0.2 5.4-19.6-6.1-30.2-11.5-10.7-33.6-5-40.1-0.6 0 0-6.6-0.2-15.3 8.2-8.6 8.4-3.4 31.2 0.6 31.7z"/>
							<g id="&lt;Group&gt;">
								<path id="&lt;Compound Path&gt;" fill-rule="evenodd" class="s8" d="m232.5 368.2c-4.6-1.6-7.7-6.2-7.2-11.2 0.5-6 5.8-10.5 11.8-9.9 6 0.5 10.4 5.8 9.9 11.8-0.5 6-5.8 10.4-11.8 9.9q-1.4-0.2-2.7-0.6zm6.8-19.2q-1.1-0.4-2.3-0.5c-5.2-0.4-9.8 3.4-10.3 8.6-0.4 5.2 3.4 9.8 8.6 10.2 5.2 0.5 9.8-3.4 10.2-8.6 0.4-4.3-2.3-8.3-6.2-9.7z"/>
								<path id="&lt;Compound Path&gt;" fill-rule="evenodd" class="s8" d="m257 373.5c-4-1.4-6.1-6.6-4.9-12.2 0.6-2.8 2-5.2 3.9-6.9 2-1.7 4.2-2.4 6.4-1.9 2.2 0.4 3.9 2 4.9 4.4 1.1 2.3 1.3 5.2 0.6 8-1.3 5.8-5.9 9.8-10.3 8.8q-0.3-0.1-0.6-0.2zm5.6-19.5q-0.3-0.1-0.5-0.1c-1.7-0.4-3.5 0.2-5.1 1.6-1.7 1.5-2.9 3.6-3.5 6.1-1.1 5.1 0.9 9.9 4.5 10.7 3.5 0.8 7.4-2.7 8.5-7.8 0.6-2.5 0.4-5-0.5-7-0.7-1.7-1.9-3-3.4-3.5z"/>
								<path id="&lt;Path&gt;" class="s8" d="m246.4 360l-0.7-1.3c1.9-1 6-2 8 1.4l-1.3 0.7c-1.7-3-5.9-0.9-6-0.8z"/>
								<path id="&lt;Path&gt;" class="s8" d="m198.4 352.2l-1.1-1c0.4-0.5 4.3-5.1 7.6-4.9 3.1 0.2 21.7 6.3 22.5 6.5l-0.4 1.4c-5.4-1.7-19.8-6.3-22.2-6.4-2.2-0.1-5.4 3.1-6.4 4.4z"/>
							</g>
							<g id="&lt;Group&gt;">
								<g id="&lt;Group&gt;">
									<path id="&lt;Path&gt;" class="s13" d="m201.1 364.3q0.7 0.6 1.4 0.9 0.8 0.4 1.6 0.5c0.7 0.1 1.5 0.1 2.1-0.1 0.5-0.1 1.1-0.3 1.5-0.6 1.2-0.6 1.8-1.4 1.8-1.4l0.9-9.5c0 0-4.2-12.5-9.7-11.3-5.5 1.1-4.5 17.8 0.4 21.5z"/>
									<path id="&lt;Path&gt;" class="s4" d="m201.1 347.5c-0.1 0-0.1 0.1-0.1 0.2 3.4 2.7 4.4 6.9 4.7 11-0.7-1.7-2-3-4.4-2.2-0.1 0.1 0 0.2 0.1 0.3 1.7 0.1 2.7 0.7 3.4 2.3 0.5 1.1 0.7 2.4 0.9 3.6 0.1 0.4 0.8 0.4 0.8 0q0-0.1 0-0.1c1.5-4.9-0.2-13-5.4-15.1z"/>
								</g>
								<path id="&lt;Path&gt;" class="s7" d="m202 363.1c-0.1 0.8 0.5 1.6 1.4 1.7 0.9 0.1 1.7-0.6 1.8-1.4 0.1-0.9-0.6-1.7-1.5-1.8-0.9-0.1-1.6 0.6-1.7 1.5z"/>
								<path id="&lt;Path&gt;" class="s7" d="m199.5 359.8c-0.1 0.6 0.4 1.2 1 1.2 0.7 0.1 1.2-0.4 1.3-1 0-0.6-0.4-1.2-1.1-1.2-0.6-0.1-1.1 0.4-1.2 1z"/>
							</g>
							<g id="&lt;Group&gt;">
								<path id="&lt;Path&gt;" class="s8" d="m220.3 343l-8.1-8.7-2.1 2.3 9 7.7z"/>
								<path id="&lt;Path&gt;" class="s8" d="m218.4 345.4l-9.5-7.2-1.7 2.7 10.2 6z"/>
							</g>
						</g>
					</g>
					<g id="&lt;Group&gt;">
						<g id="&lt;Group&gt;">
							<path id="&lt;Path&gt;" class="s13" d="m176 407.1c-14.3 13.4-57.9 66.1-57.8 81.2 0.1 23 80.5 53.5 93.1 61.1 5.3 3.2 24.2-52.6 18.6-56.2-5-3.1-59.3-16.6-59.2-19.1 0.1-2 11.8-28 20.7-59.7 6.9-24.8-8-14.3-15.4-7.3z"/>
							<g id="&lt;Group&gt;">
								<path id="&lt;Path&gt;" class="s13" d="m249.3 512.7c-2.5-2.6-1.1-4 5.3-3.1 6.5 0.9 31 10 33.4 1.1 2.5-8.8-32.4-21.1-43.2-21.7-10.8-0.8-28.5 1.9-28.5 1.9 6.3 3.8 20.7 14.3 33 21.8z"/>
								<g id="&lt;Group&gt;">
									<path id="&lt;Path&gt;" class="s4" d="m258.4 510.5c3.5 0.4 7 1.2 10.5 1.9 3.5 0.8 6.9 1.7 10.4 2.1 1.7 0.2 3.5 0.2 5-0.3 1.5-0.5 2.6-1.9 2.9-3.4 0.3-1.4-0.6-2.9-1.7-4.2-1.1-1.2-2.5-2.3-4-3.3-2.8-2-5.9-3.7-9.1-5.2-3.2-1.5-6.5-2.9-9.8-4.1q-5-1.7-10.1-3.2c-3.5-0.9-6.9-1.9-10.5-2 3.6-0.3 7.2 0.6 10.6 1.3q5.2 1.2 10.4 2.8c3.4 1 6.7 2.5 10 4 3.2 1.5 6.4 3.1 9.4 5.2 1.5 1 2.9 2.2 4.2 3.6 1.1 1.3 2.4 3.2 2 5.4-0.5 1.9-2 3.7-3.9 4.3-1.9 0.6-3.7 0.5-5.5 0.2-7.2-1.1-13.8-3.8-20.8-5.1z"/>
								</g>
								<g id="&lt;Group&gt;">
									<g id="&lt;Group&gt;">
										<path id="&lt;Path&gt;" class="s3" d="m205.2 546.1v5.9h133.2v-5.9z"/>
									</g>
									<g id="&lt;Group&gt;">
										<path id="&lt;Path&gt;" class="s12" d="m258.8 546.1l-4.5 5.9h109.2v-5.9z"/>
									</g>
									<g id="&lt;Group&gt;">
										<path id="&lt;Path&gt;" class="s3" d="m264.5 552h129.8l10.8-88.1h-129.8z"/>
										<path id="&lt;Path&gt;" class="s7" d="m326.9 507.9c-0.1 4.4 3.4 7.9 7.8 7.9 4.3 0 7.9-3.5 8-7.9 0.1-4.3-3.4-7.9-7.7-7.9-4.4 0-8 3.6-8.1 7.9z"/>
									</g>
								</g>
								<path id="&lt;Path&gt;" class="s13" d="m194 540.1c18.5 12.5 40.2 23.4 63.5 22.6 4.6-0.2 7.1-2.5 7.1-2.5 10.5-0.2 13.5-5.2 13.5-5.2 9.7-3.1 12.2-8.7 12.2-8.7 0 0 12.3-0.3 13.3-7.7 1.2-8.4-16.3-6.3-26.6-11-23.6-10.9-54.2-32.9-60.7-36.7z"/>
								<path id="&lt;Path&gt;" class="s4" d="m244.2 533.6c7.1 3.1 13.9 6.2 21.3 8.3 8.1 2.3 16.3 3.2 24.6 4.2 0.3 0.1 0.2 0.4 0 0.4-15.4 0.5-32.9-4.6-46-12.6-0.3-0.2-0.2-0.4 0.1-0.3z"/>
								<path id="&lt;Path&gt;" class="s4" d="m235.6 546.9c7 2.6 19.3 7.1 42.6 7.9 0 0 0.1 0.1 0 0.1-15.2 1.5-29-1.2-42.7-7.6-0.4-0.2-0.3-0.5 0.1-0.4z"/>
								<path id="&lt;Path&gt;" class="s4" d="m231.1 554.2c12.1 3.9 20.2 4.9 33.5 5.9 0 0 0.1 0.1 0 0.1-15.2 0.5-20.8-1.1-33.7-5.6-0.4-0.2-0.2-0.6 0.2-0.4z"/>
							</g>
						</g>
						<g id="&lt;Group&gt;">
							<g id="&lt;Group&gt;">
								<path id="&lt;Path&gt;" class="s8" d="m135.8 445.7l49.1 5.4c0 0 8.5-23.3 11.4-36.9 3.8-17.9-2-23.5-20-10.1-12 9-40.5 41.6-40.5 41.6z"/>
								<path id="&lt;Path&gt;" class="s8" d="m135.8 445.7l49.1 5.4c0 0 8.5-23.3 11.4-36.9 3.8-17.9-2-23.5-20-10.1-12 9-40.5 41.6-40.5 41.6z"/>
								<path id="&lt;Compound Path&gt;" class="s7" d="m174.4 423.9c0 2.1-1.6 3.7-3.6 3.7-2.1 0-3.7-1.6-3.7-3.7 0-2 1.6-3.6 3.7-3.6 2 0 3.6 1.6 3.6 3.6z"/>
							</g>
							<path id="&lt;Path&gt;" class="s4" d="m178.9 450.4c0.5 0 5.6 0.4 5.9 0.5 1-2.8 1.9-5.5 2.8-8.3q0.7-2.1 1.5-4.1c0.6-1.5 1.2-3.2 1.7-4.6 0.1-0.2 0.3-0.1 0.3 0.1-0.5 1.8-0.9 3.1-1.4 4.7q-0.6 2.1-1.2 4.1c-1 2.9-1.9 6-3 8.8-0.1 0.2-6.1-0.9-6.6-1-0.1 0-0.1-0.2 0-0.2z"/>
							<path id="&lt;Path&gt;" class="s4" d="m143.4 440c6.9 0.3 13.8 0.7 20.7 1.3q5.1 0.5 10.3 1.2c3.4 0.4 6.8 1.2 10.2 1.6 0.2 0.1 0.1 0.4 0 0.3-3.4-0.5-6.9-0.7-10.4-1q-5.1-0.6-10.3-1.2c-6.8-0.7-13.7-1.4-20.5-1.9-0.2 0-0.2-0.3 0-0.3z"/>
							<path id="&lt;Path&gt;" class="s4" d="m165.3 414.5c0.1-0.1 0-0.3-0.2-0.2q-3.4 2.9-6.6 5.9 0.9-1.4 2.1-2.6c0-0.1 0-0.1-0.1-0.1-1.1 1.1-2.1 2.3-3 3.6-2.9 2.6-5.7 5.3-8.4 8.1-4.9 5.1-9.9 10.4-14.1 16.2-0.3 0.3 0 0.7 0.4 0.8 2.3 0.2 4.8 0.4 7 0.8 0.3 0.1 0.4-0.3 0.1-0.3-2-0.3-4.1-0.9-6.1-1.4 4.7-4.9 9.2-10.2 13.9-15.2 4.9-5.2 9.9-10.5 15-15.6z"/>
						</g>
					</g>
					<g id="&lt;Group&gt;">
						<g id="&lt;Group&gt;">
							<path id="&lt;Path&gt;" class="s13" d="m403.1 478.8c4.9 7.5 17 16.3 18.7 22.8 1.5 5.9-3.2 8.6-3.2 8.6 0 0 7 2.4 7.5 8.6 0.3 3.1-4.5 6.3-4.5 6.3 0 0 5.5 2.2 5.7 7.7 0.1 4.3-4.7 6.9-4.7 6.9 0 0 4.3 4.6 3 9-2.7 9.1-39.8 14-47.4 1.1-3.5-6 5.6-6.7 5.6-6.7 0 0-13.3-2.2-14.6-9.8-1.2-7.6 10.8-7.8 10.8-7.8 0 0-13-2.3-13.4-10.3-0.5-8.4 11.5-6.5 11.5-6.5 0 0-9-4.5-8-10.8 1.8-10.3 23 0.7 30.9-2.3z"/>
							<g id="&lt;Group&gt;">
								<path id="&lt;Path&gt;" class="s4" d="m421.9 540.2c0.1 0 0.2 0.2 0 0.2-11.8 4.6-26.2 6-38.5 2.8-0.5-0.1-0.5-0.8 0-0.8 13.4 0.9 25.3 0.6 38.5-2.2z"/>
								<path id="&lt;Path&gt;" class="s4" d="m421.8 525.2c0.1-0.1 0.2 0.2 0.1 0.2-12.3 4.7-28.5 5.9-42.3 0.4-0.5-0.1-0.7-0.8-0.2-0.6 9.5 2.9 30.6 2.6 42.4 0z"/>
								<path id="&lt;Path&gt;" class="s4" d="m377.2 508c13.4 4.6 27 4.5 40.9 2.4 0.2 0 0.2 0.3 0.1 0.3-6.6 2.9-15.6 3.3-22.6 3.1-6.8-0.3-12.8-1.9-18.6-5.4-0.2-0.1-0.1-0.5 0.2-0.4z"/>
							</g>
						</g>
					</g>
				</g>
			</g>
		</g>
	</g>
	<g id="Plant">
		<g id="&lt;Group&gt;">
			<g id="&lt;Group&gt;">
				<g id="&lt;Group&gt;">
					<g id="&lt;Group&gt;">
						<path id="&lt;Path&gt;" class="s8" d="m856.9 743.1c-1.8 7.8-3.7 15.5-4.1 23.5 0.2 0.3 0.2 1.8-0.1 1.4 0 1.3-2 1-2-0.2q0-1.3 0.1-2.5c-4.6-5.7-11.2-9.3-16.6-14.2-4.3-4-7.5-8.8-9.1-14.5-4.5-15.3-0.3-31.6-5.6-46.9-4.7-13.2-12.9-24.7-20-36.7-7.4-12.6-12.8-25.9-13.4-40.7-0.4-11.4 1-26.5 9.6-35 9.2-9 20.5-2.3 27.5 5.8 20.4 23.3 29.8 52.8 33.6 83 2.1 16.7 4.3 33.5 3.8 50.3-0.3 9.1-1.6 17.9-3.7 26.7z"/>
						<path id="&lt;Path&gt;" class="s4" d="m852.9 772.7c1-15.8 1-31.6-0.6-47.3 0-0.1 0.1-0.1 0.1-0.2 0.2-12.8 1.3-25.5 0.8-38.3-0.6-13.9-2.6-27.5-5.7-41.1 0-0.2-0.2-0.1-0.2 0 2.5 13.3 3.9 26.8 4.4 40.2q0.4 10.9-0.1 21.7c-0.2 2.3-0.4 4.7-0.5 7.1q0 0 0 0c-5.2-36-18.5-70.1-38.1-100.7-0.2-0.4-1 0-0.7 0.5 14.1 23 24.5 48.3 30.9 74.6-9.7-18.1-24.5-33-35.5-50.4 0-0.1-0.2 0-0.1 0.1 9.8 19.3 26.1 34.6 36.4 53.7q2.8 11.7 4.4 23.6c1.5 10.8 2.2 21.8 2.4 32.7-6-11.1-12.2-21.8-17-33.6-0.2-0.3-0.6-0.1-0.5 0.2 4.1 12.3 9.7 25.4 17.5 35.9q0.1 11.6-0.6 23.2c-1.3 20.7-4.8 41-6.4 61.6-0.1 0.6 0.8 0.7 0.9 0.1 4.3-20.8 6.8-42.5 8.2-63.6z"/>
						<path id="&lt;Path&gt;" class="s4" d="m830.9 613.4c0-0.1-0.2 0-0.2 0.2 3.8 10.4 5.9 20.9 8.6 31.6 0.2 0.5 0.9 0.4 0.8-0.1-1.1-10.8-5-21.7-9.2-31.7z"/>
					</g>
					<g id="&lt;Group&gt;">
						<path id="&lt;Path&gt;" class="s8" d="m926.7 666.2c-2.4 6.1-5.5 12.1-8.7 17.8-6.8 12.4-13.8 23.7-15.1 38-0.6 6.4-0.8 12.9-2.7 19.1-1.7 5.3-4.5 10.2-7.6 14.9-7.4 10.7-16.6 19.9-23.4 31-7.1 11.6-12.3 24.3-15.5 37.5-0.2 0.7-1.4 0.5-1.2-0.2q0-0.1 0.1-0.2c-0.1 0-0.1 0-0.1-0.1-1.1-30.8 1.4-61.8 10.8-91.3 4.1-12.9 9.1-25.7 14.9-38 5-10.7 11.3-21 20.1-29 5.7-5.1 18.2-14.9 26.3-9.7 3.9 2.4 3.7 6.4 2.1 10.2z"/>
						<path id="&lt;Path&gt;" class="s4" d="m895.8 736c-5.3 9-11.6 17.4-17.9 25.7-3 3.9-6 7.8-9 11.7-1.4 1.8-3 3.7-4.3 5.6q1.2-4.8 2.5-9.7c3.9-15.5 7.7-31.2 13.7-46.2 5.7-14.6 13.4-28.3 21.3-41.9 0.2-0.3-0.3-0.6-0.5-0.3-6.5 10.7-13.1 21.4-18.6 32.7-3.1 6.3-5.6 12.8-7.9 19.4 2.7-14.2 5.8-27.7 10.5-41.4 0-0.1-0.1-0.2-0.2-0.1-5.7 13.4-9.7 28.5-10.9 43.1q0 0 0 0-2 6-3.7 12.1c-4.8 17.3-9.1 34.7-13 52.1 0-11.5 0.8-22.8 2.9-34.2 0.1-0.3-0.3-0.3-0.4-0.1-2.8 11.7-4.1 24.1-2.9 36.1q-2.3 10-4.4 20c-3 14.2-6.7 28.6-8.5 43-0.1 0.4 0.5 0.5 0.6 0.1 2.1-7.8 3.3-15.8 5.1-23.7q2.6-11.8 5.3-23.6c2.7-11.5 5.5-22.9 8.4-34.3 1.9-4.2 5.5-7.9 8.3-11.4 3-3.9 6.1-7.7 9-11.6 5.5-7.3 10.6-14.9 14.8-23 0.1-0.1-0.1-0.2-0.2-0.1z"/>
						<path id="&lt;Path&gt;" class="s4" d="m897.1 722.9c-6.7 8.5-12.8 18-17.5 27.8-0.1 0.1 0.1 0.2 0.2 0.1 5.9-9.2 11.7-18.5 17.6-27.8 0.1-0.1-0.2-0.3-0.3-0.1z"/>
					</g>
					<g id="&lt;Group&gt;">
						<path id="&lt;Path&gt;" class="s8" d="m759.4 702.3c4.3 6.8 9.2 14.8 7.8 23.1-0.9 5.3-4.6 9.7-5 15-1.1 11.8 10.9 19.2 19.6 24.4 21.6 13 51.1 24.3 56 52.4 0.2 1 1.9 0.7 1.8-0.3q0-0.1-0.1-0.2c0.1 0 0.1-0.1 0.1-0.1 2.2-14.5 1.6-29.1-2-43.3-3.8-14.4-10.6-27.3-18.7-39.8-13.5-21.2-27.8-42.9-47.7-58.8-5.5-4.4-16.7-12.2-20.6-1.7-3.7 10.3 3.6 21.2 8.8 29.3z"/>
						<path id="&lt;Path&gt;" class="s4" d="m780.6 747.6c14.6 14.6 37.2 22.2 49.9 38.8-8.2-25.8-20.9-48.8-39.9-68.4-0.5-0.5 0.2-1.3 0.8-0.8 13.8 12.3 24.2 26.9 32 42.8-3.7-11.5-8.6-22.2-14.3-32.9-0.3-0.4 0.3-0.8 0.6-0.4 7.2 11.3 12.2 24.1 15.5 37 17.4 37.9 20.6 82.9 18.9 123.6-0.1 0.6-0.9 0.6-0.9 0-0.4-32-2.2-64.4-11-95.3q-0.3-1-0.6-2c-13.8-17.7-36.3-25.4-51.3-42.2-0.1-0.1 0.1-0.4 0.3-0.2z"/>
						<path id="&lt;Path&gt;" class="s4" d="m776.8 734.7c7.6 6.4 15.1 13.1 22.8 19.5 0 0.1-0.1 0.2-0.1 0.2-8.3-5.1-16.7-12-23.1-19.3-0.3-0.3 0.1-0.7 0.4-0.4z"/>
						<path id="&lt;Path&gt;" class="s4" d="m774.5 705.5c7.1 10.4 14.5 20.2 23.2 29.4 0.1 0.1-0.1 0.3-0.2 0.2-9.2-8.3-17.6-18.3-23.4-29.4-0.1-0.2 0.3-0.4 0.4-0.2z"/>
					</g>
				</g>
				<g id="&lt;Group&gt;">
					<g id="&lt;Group&gt;">
						<path id="&lt;Path&gt;" class="s10" d="m814.1 912.1h64.4l-8.7-86.7h-45.8z"/>
						<path id="&lt;Path&gt;" class="s4" d="m822.4 839.5h48.9l-1.4-14.1h-45.9z"/>
					</g>
					<path id="&lt;Path&gt;" class="s10" d="m816.1 829.6h60.4v-13.8h-60.4z"/>
				</g>
			</g>
		</g>
	</g>
</svg>